<svg width="340" height="243" viewBox="0 0 340 243" fill="none" xmlns="http://www.w3.org/2000/svg">
<path d="M299.854 32.2217H232.113V77.8716H299.854V32.2217Z" fill="white" stroke="#EBEBEB" stroke-miterlimit="10"/>
<path d="M238.662 35.6738C238.662 35.9828 238.571 36.2847 238.399 36.5416C238.228 36.7985 237.984 36.9986 237.698 37.1169C237.413 37.2351 237.099 37.266 236.796 37.2057C236.493 37.1455 236.214 36.9967 235.996 36.7783C235.778 36.5598 235.629 36.2815 235.569 35.9785C235.508 35.6756 235.539 35.3615 235.657 35.0761C235.776 34.7907 235.976 34.5468 236.233 34.3751C236.49 34.2035 236.792 34.1119 237.1 34.1119C237.515 34.1119 237.912 34.2765 238.205 34.5694C238.498 34.8623 238.662 35.2596 238.662 35.6738Z" fill="#37474F"/>
<path d="M245.03 35.6738C245.03 35.9828 244.938 36.2847 244.767 36.5416C244.595 36.7985 244.351 36.9986 244.066 37.1169C243.78 37.2351 243.466 37.266 243.163 37.2057C242.86 37.1455 242.582 36.9967 242.363 36.7783C242.145 36.5598 241.996 36.2815 241.936 35.9785C241.876 35.6756 241.907 35.3615 242.025 35.0761C242.143 34.7907 242.343 34.5468 242.6 34.3751C242.857 34.2035 243.159 34.1119 243.468 34.1119C243.882 34.1119 244.279 34.2765 244.572 34.5694C244.865 34.8623 245.03 35.2596 245.03 35.6738Z" fill="#EBEBEB"/>
<path d="M251.403 35.6738C251.403 35.9828 251.311 36.2847 251.139 36.5416C250.968 36.7985 250.724 36.9986 250.438 37.1169C250.153 37.2351 249.839 37.266 249.536 37.2057C249.233 37.1455 248.955 36.9967 248.736 36.7783C248.518 36.5598 248.369 36.2815 248.309 35.9785C248.248 35.6756 248.279 35.3615 248.398 35.0761C248.516 34.7907 248.716 34.5468 248.973 34.3751C249.23 34.2035 249.532 34.1119 249.841 34.1119C250.255 34.1119 250.652 34.2765 250.945 34.5694C251.238 34.8623 251.403 35.2596 251.403 35.6738Z" fill="#65B8DB"/>
<path d="M232.113 39.0995H299.859" stroke="#EBEBEB" stroke-miterlimit="10"/>
<path d="M8.3877 32.6072V130.113H82.9957V32.6072H8.3877ZM81.0277 128.145H10.3557V34.5752H81.0277V128.145Z" fill="#EBEBEB"/>
<path d="M81.0275 34.5752V128.145H47.4409V35.0855H45.4781V128.145H10.3556V34.5752H81.0275Z" fill="white"/>
<path d="M47.4412 35.0853H45.4784V129.129H47.4412V35.0853Z" fill="#EBEBEB"/>
<path d="M6.60711 39.3233L84.7815 39.3233V36.5847L6.60711 36.5847V39.3233Z" fill="#EBEBEB"/>
<path d="M6.60711 42.4055L84.7815 42.4055V39.667L6.60711 39.667V42.4055Z" fill="#EBEBEB"/>
<path d="M6.60711 45.4878L84.7815 45.4878V42.7492L6.60711 42.7492V45.4878Z" fill="#EBEBEB"/>
<path d="M6.60711 48.5699L84.7815 48.5699V45.8313L6.60711 45.8313V48.5699Z" fill="#EBEBEB"/>
<path d="M6.60711 51.647L84.7815 51.647V48.9085L6.60711 48.9085V51.647Z" fill="#EBEBEB"/>
<path d="M6.60711 54.7293L84.7815 54.7293V51.9907L6.60711 51.9907V54.7293Z" fill="#EBEBEB"/>
<path d="M6.60711 57.8114L84.7815 57.8114V55.0728L6.60711 55.0728V57.8114Z" fill="#EBEBEB"/>
<path d="M6.60711 60.8936L84.7815 60.8936V58.155L6.60711 58.155V60.8936Z" fill="#EBEBEB"/>
<path d="M6.60711 63.9757L84.7815 63.9757V61.2371L6.60711 61.2371V63.9757Z" fill="#EBEBEB"/>
<path d="M12.9381 36.0277H12.4487V99.1711H12.9381V36.0277Z" fill="#263238"/>
<path d="M11.824 101.462H13.5681L13.1308 98.9525H12.2613L11.824 101.462Z" fill="#263238"/>
<path d="M11.1679 36.0277H10.6785V127.374H11.1679V36.0277Z" fill="#263238"/>
<path d="M10.0537 129.218H11.7979L11.3605 126.708H10.4858L10.0537 129.218Z" fill="#263238"/>
<path d="M3.55609 37.9489L87.8324 37.9489V32.2166L3.55609 32.2166V37.9489Z" fill="#DBDBDB"/>
<path d="M334.596 167.047H243.104L241.198 129.504H336.502L334.596 167.047Z" fill="#EBEBEB"/>
<path d="M246.602 133.659H286.405L285.692 146.675H247.451L246.602 133.659ZM285.921 134.117H247.092L247.873 146.227H285.255L285.921 134.117Z" fill="#DBDBDB"/>
<path d="M247.409 149.918H284.776L284.193 161.685H248.143L247.409 149.918ZM284.291 150.381H247.899L248.581 161.221H283.75L284.291 150.381Z" fill="#DBDBDB"/>
<path d="M262.477 138.443H269.714L269.308 141.567H262.883L262.477 138.443ZM269.188 138.907H263.003L263.289 141.125H268.901L269.188 138.907Z" fill="#DBDBDB"/>
<path d="M262.477 154.229H269.714L269.308 157.353H262.883L262.477 154.229ZM269.188 154.693H263.003L263.289 156.91H268.901L269.188 154.693Z" fill="#DBDBDB"/>
<path d="M291.596 133.659H331.399L330.681 146.675H292.434L291.596 133.659ZM330.915 134.117H292.085L292.866 146.227H330.233L330.915 134.117Z" fill="#DBDBDB"/>
<path d="M292.403 149.918H329.77L329.192 161.685H293.137L292.403 149.918ZM329.285 150.381H292.893L293.569 161.221H328.744L329.285 150.381Z" fill="#DBDBDB"/>
<path d="M307.47 138.443H314.707L314.301 141.567H307.877L307.47 138.443ZM314.182 138.907H307.996L308.283 141.125H313.895L314.182 138.907Z" fill="#DBDBDB"/>
<path d="M307.47 154.229H314.707L314.301 157.353H307.877L307.47 154.229ZM314.182 154.693H307.996L308.283 156.91H313.895L314.182 154.693Z" fill="#DBDBDB"/>
<path d="M326.391 167.047L326.968 171.139L328.124 179.355H330.379V167.047H326.391Z" fill="#EBEBEB"/>
<path d="M326.391 167.047L326.968 171.139H330.379V167.047H326.391Z" fill="#DBDBDB"/>
<path d="M251.309 167.047L250.731 171.139L249.575 179.355H247.316V167.047H251.309Z" fill="#EBEBEB"/>
<path d="M251.309 167.047L250.731 171.139H247.316V167.047H251.309Z" fill="#DBDBDB"/>
<path d="M324.975 129.493V111.87H320.539V129.493H324.975Z" fill="#C7C7C7"/>
<path d="M324.969 112.864V110.927H320.533V112.864H324.969Z" fill="#DBDBDB"/>
<path d="M324.975 116.061V115.342H320.539V116.061H324.975Z" fill="#DBDBDB"/>
<path d="M324.969 127.182V125.245H320.533V127.182H324.969Z" fill="#DBDBDB"/>
<path d="M320.533 129.499V108.939H317.43V129.499H320.533Z" fill="#DBDBDB"/>
<path d="M319.929 118.773V110.865H318.066V118.773H319.929Z" fill="#EBEBEB"/>
<path d="M297.524 129.493L312.146 115.039L309.965 112.832L295.343 127.286L297.524 129.493Z" fill="#C7C7C7"/>
<path d="M300.52 125.655L306.144 120.095L304.834 118.769L299.21 124.329L300.52 125.655Z" fill="#DBDBDB"/>
<path d="M317.436 129.493V113.879H312.167V129.493H317.436Z" fill="#A6A6A6"/>
<path d="M317.436 127.843V126.385H312.167V127.843H317.436Z" fill="#C7C7C7"/>
<path d="M317.43 125.432V124.87H312.162V125.432H317.43Z" fill="#C7C7C7"/>
<path d="M334.051 128.076L328.262 114.589L324.918 116.024L330.707 129.511L334.051 128.076Z" fill="#A6A6A6"/>
<path d="M333.437 126.64L332.897 125.382L329.553 126.817L330.093 128.076L333.437 126.64Z" fill="#C7C7C7"/>
<path d="M329.998 118.621L329.458 117.363L326.114 118.798L326.654 120.057L329.998 118.621Z" fill="#C7C7C7"/>
<path d="M330.578 119.971L330.369 119.483L327.024 120.919L327.234 121.407L330.578 119.971Z" fill="#C7C7C7"/>
<path d="M278.861 242.863C312.627 242.863 340 238.831 340 233.856C340 228.882 312.627 224.849 278.861 224.849C245.095 224.849 217.722 228.882 217.722 233.856C217.722 238.831 245.095 242.863 278.861 242.863Z" fill="#EBEBEB"/>
<path d="M27.0474 148.867C27.0474 148.867 31.6082 132.487 35.2527 126.922C38.8972 121.356 45.6655 115.249 45.6655 115.249C45.6655 115.249 45.5354 140.505 27.0474 148.867Z" fill="#65B8DB"/>
<path d="M27.3702 148.591C28.9081 146.025 30.2987 143.375 31.5353 140.651C32.0569 137.723 32.8143 134.841 33.8001 132.034C33.8043 132.024 33.8123 132.016 33.8226 132.011C33.8328 132.007 33.8444 132.007 33.8548 132.011C33.8651 132.015 33.8734 132.023 33.8778 132.034C33.8822 132.044 33.8824 132.055 33.8782 132.066C33.2743 134.669 32.5714 137.22 31.931 139.797C33.7741 135.814 35.5234 131.774 37.7205 128.005C38.2261 126.183 38.9351 124.425 39.8344 122.762C39.8344 122.715 39.9385 122.762 39.9124 122.793C39.358 124.073 38.8833 125.386 38.4911 126.724C39.5257 125.043 40.6848 123.442 41.9586 121.934C42.0367 121.84 42.1981 121.934 42.12 122.043C39.1835 125.792 37.1583 130.051 35.2319 134.362C37.3049 132.111 39.2186 129.719 40.9589 127.203C40.9589 127.177 41.0162 127.203 41.0006 127.234C39.1829 130.052 37.1313 132.711 34.8674 135.184C33.4617 138.345 32.082 141.515 30.4055 144.519C33.7533 141.692 36.3252 138.032 38.8764 134.502C38.8874 134.486 38.9046 134.474 38.9241 134.47C38.9436 134.466 38.9639 134.47 38.9805 134.481C38.9971 134.493 39.0086 134.51 39.0125 134.529C39.0164 134.549 39.0124 134.569 39.0013 134.586C36.4502 138.464 33.7949 142.114 30.1504 144.998C29.4061 146.319 28.5874 147.597 27.6982 148.825C27.6671 148.869 27.62 148.898 27.5673 148.907C27.5146 148.916 27.4605 148.903 27.417 148.872C27.3735 148.841 27.3442 148.794 27.3354 148.741C27.3266 148.688 27.3391 148.634 27.3702 148.591Z" fill="#263238"/>
<path d="M25.6573 150.345C25.6573 150.345 33.8626 135.247 31.478 120.596C29.0935 105.945 26.5424 100.734 26.5424 100.734C26.5424 100.734 13.62 123.512 25.6573 150.345Z" fill="#65B8DB"/>
<path d="M22.2626 126.599C22.9574 130.748 24.0167 134.829 25.4281 138.792C25.4524 133.419 25.5426 128.039 25.6988 122.652C24.771 119.391 24.2465 116.029 24.1369 112.64C24.1369 112.542 24.2775 112.547 24.2879 112.64C24.5467 115.543 25.027 118.422 25.7248 121.252C25.8498 116.816 25.9938 112.384 26.157 107.955C26.157 107.939 26.163 107.925 26.1738 107.914C26.1845 107.903 26.1991 107.897 26.2143 107.897C26.2294 107.897 26.244 107.903 26.2548 107.914C26.2655 107.925 26.2715 107.939 26.2715 107.955C26.2715 114.879 26.2715 121.809 26.2247 128.733C27.2248 126.055 28.0168 123.303 28.5936 120.502C28.5936 120.476 28.6404 120.502 28.6404 120.502C28.3116 123.73 27.4953 126.89 26.2195 129.874C26.1882 134.303 26.1292 138.73 26.0424 143.155C27.4273 138.47 28.9112 133.893 29.3121 128.916C29.3121 128.902 29.3176 128.889 29.3273 128.879C29.3371 128.869 29.3503 128.864 29.3641 128.864C29.3779 128.864 29.3912 128.869 29.401 128.879C29.4107 128.889 29.4162 128.902 29.4162 128.916C29.3069 134.398 27.8907 139.969 26.0841 145.123C26.0667 145.175 26.034 145.221 25.9904 145.253C25.9487 146.873 25.9071 148.492 25.8498 150.106C25.8426 150.148 25.8206 150.187 25.7877 150.214C25.7548 150.242 25.7132 150.257 25.6702 150.257C25.6272 150.257 25.5856 150.242 25.5527 150.214C25.5198 150.187 25.4978 150.148 25.4906 150.106C25.4281 146.795 25.4021 143.485 25.4125 140.177C23.6235 135.843 22.5306 131.253 22.1741 126.578C22.1768 126.566 22.1841 126.556 22.1944 126.55C22.2047 126.543 22.217 126.541 22.2287 126.544C22.2405 126.547 22.2506 126.554 22.257 126.565C22.2633 126.575 22.2653 126.587 22.2626 126.599Z" fill="#263238"/>
<path d="M22.8249 124.261C23.1117 125.575 23.3031 126.908 23.3976 128.249C23.3976 128.296 23.3299 128.301 23.3195 128.249C22.9993 126.942 22.7748 125.612 22.6479 124.272C22.6322 124.178 22.804 124.162 22.8249 124.261Z" fill="#263238"/>
<path d="M27.62 113.218C27.62 113.172 27.6981 113.187 27.6981 113.218C27.6895 114.151 27.5511 115.078 27.2868 115.973C27.2868 116.046 27.1619 116.014 27.1775 115.941C27.3545 115.041 27.4691 114.14 27.62 113.218Z" fill="#263238"/>
<path d="M22.6375 151.501C22.6375 151.501 22.9759 135.731 18.4724 127.895C13.9688 120.06 6.44556 116.066 6.44556 116.066C6.44556 116.066 9.44966 143.858 22.6375 151.501Z" fill="#65B8DB"/>
<path d="M14.3959 138.017C16.2127 140.772 18.261 143.367 20.5187 145.774C19.6128 142.553 18.5715 139.384 17.3948 136.267C14.8593 134.044 12.3446 131.738 10.7879 128.697C10.7848 128.687 10.7851 128.676 10.7888 128.667C10.7926 128.657 10.7995 128.648 10.8085 128.643C10.8175 128.638 10.8281 128.635 10.8385 128.637C10.8489 128.638 10.8586 128.643 10.866 128.65C12.5372 131.347 14.776 133.503 17.1137 135.575C15.299 130.88 13.195 126.301 10.8139 121.866C10.8001 121.844 10.7959 121.816 10.8023 121.79C10.8086 121.764 10.825 121.742 10.8478 121.728C10.8706 121.715 10.8979 121.71 10.9238 121.717C10.9496 121.723 10.9719 121.739 10.9857 121.762C12.4336 124.088 13.7529 126.492 14.9374 128.963C14.5105 127.276 14.1721 125.552 13.7399 123.876C13.7399 123.829 13.792 123.814 13.8128 123.876C14.701 126.02 15.3234 128.265 15.6663 130.561C17.2503 134.059 18.5814 137.666 19.6492 141.354C19.5347 138.99 19.3837 136.632 19.1286 134.278C19.1315 134.27 19.1369 134.264 19.1438 134.259C19.1508 134.254 19.1591 134.251 19.1676 134.251C19.1761 134.251 19.1844 134.254 19.1914 134.259C19.1984 134.264 19.2037 134.27 19.2067 134.278C19.7215 136.884 19.964 139.536 19.9304 142.192C20.5812 144.545 21.133 146.92 21.5704 149.315C21.5704 149.382 21.4871 149.408 21.4715 149.346C21.2268 148.341 20.9508 147.341 20.6905 146.352C20.6905 146.352 20.6541 146.352 20.6384 146.352C18.2122 143.921 15.9058 141.146 14.3907 138.053C14.3647 138.011 14.3855 138.001 14.3959 138.017Z" fill="#263238"/>
<path d="M9.15295 125.188C9.6736 125.709 10.1213 126.302 10.6055 126.864C11.0799 127.337 11.5168 127.845 11.9124 128.385C11.9161 128.39 11.9179 128.396 11.9175 128.402C11.917 128.408 11.9144 128.414 11.9099 128.419C11.9055 128.423 11.8996 128.426 11.8934 128.426C11.8871 128.427 11.8809 128.425 11.8759 128.421C11.3082 127.998 10.8019 127.499 10.3713 126.937C9.89564 126.409 9.46545 125.841 9.08527 125.24C9.07836 125.231 9.07531 125.22 9.07678 125.208C9.07824 125.197 9.0841 125.187 9.09308 125.18C9.10205 125.173 9.1134 125.17 9.12463 125.172C9.13586 125.173 9.14605 125.179 9.15295 125.188Z" fill="#263238"/>
<path d="M36.0701 149.575L35.5026 157.046L33.7845 179.621H18.8056L17.0875 157.046L16.5148 149.575H36.0701Z" fill="#455A64"/>
<path d="M36.0701 149.575L35.5026 157.046H17.0875L16.5148 149.575H36.0701Z" fill="#37474F"/>
<path d="M15.182 151.637H37.4082V145.91H15.182V151.637Z" fill="#455A64"/>
<path d="M0 179.376L42.2084 179.246L84.4169 179.199L168.834 179.116L253.251 179.199L295.459 179.246L337.668 179.376L295.459 179.501L253.251 179.548L168.834 179.636L84.4169 179.548L42.2084 179.501L0 179.376Z" fill="#263238"/>
<path d="M276.778 55.1405H60.8889V199.556H276.778V55.1405Z" fill="#DBDBDB"/>
<path d="M275.211 56.9055H62.4563V197.796H275.211V56.9055Z" fill="#37474F"/>
<path d="M304.898 210.386H32.7693V220.299H304.898V210.386Z" fill="#C7C7C7"/>
<path d="M32.7693 210.386L60.8892 199.556H276.779L304.898 210.386H32.7693Z" fill="#DBDBDB"/>
<path d="M63.3986 206.548L81.5429 199.556H256.125L274.269 206.548H63.3986Z" fill="#263238"/>
<path d="M263.184 67.6098H74.4778V187.092H263.184V67.6098Z" fill="white"/>
<path d="M263.184 67.6098H74.4778V72.2071H263.184V67.6098Z" fill="#263238"/>
<path d="M77.9766 69.8852C77.9766 70.1107 77.9097 70.3312 77.7844 70.5187C77.6591 70.7062 77.4811 70.8523 77.2727 70.9386C77.0644 71.0249 76.8351 71.0475 76.6139 71.0035C76.3928 70.9595 76.1896 70.8509 76.0301 70.6915C75.8707 70.532 75.7621 70.3289 75.7181 70.1077C75.6741 69.8865 75.6967 69.6572 75.783 69.4489C75.8693 69.2406 76.0154 69.0625 76.2029 68.9372C76.3904 68.8119 76.6109 68.745 76.8364 68.745C77.1388 68.745 77.4288 68.8652 77.6426 69.079C77.8564 69.2928 77.9766 69.5828 77.9766 69.8852Z" fill="#C7C7C7"/>
<path d="M82.631 69.8852C82.631 70.1107 82.5641 70.3312 82.4388 70.5187C82.3135 70.7062 82.1355 70.8523 81.9271 70.9386C81.7188 71.0249 81.4895 71.0475 81.2684 71.0035C81.0472 70.9595 80.844 70.8509 80.6845 70.6915C80.5251 70.532 80.4165 70.3289 80.3725 70.1077C80.3285 69.8865 80.3511 69.6572 80.4374 69.4489C80.5237 69.2406 80.6698 69.0625 80.8573 68.9372C81.0448 68.8119 81.2653 68.745 81.4908 68.745C81.7932 68.745 82.0832 68.8652 82.297 69.079C82.5109 69.2928 82.631 69.5828 82.631 69.8852Z" fill="white"/>
<path d="M87.2855 69.8852C87.2855 70.1107 87.2187 70.3312 87.0934 70.5187C86.9681 70.7062 86.79 70.8523 86.5817 70.9386C86.3733 71.0249 86.1441 71.0475 85.9229 71.0035C85.7017 70.9595 85.4986 70.8509 85.3391 70.6915C85.1796 70.532 85.071 70.3289 85.027 70.1077C84.983 69.8865 85.0056 69.6572 85.0919 69.4489C85.1782 69.2406 85.3244 69.0625 85.5119 68.9372C85.6994 68.8119 85.9198 68.745 86.1453 68.745C86.4477 68.745 86.7378 68.8652 86.9516 69.079C87.1654 69.2928 87.2855 69.5828 87.2855 69.8852Z" fill="#65B8DB"/>
<path d="M234.705 156.713H102.957V165.564H234.705V156.713Z" fill="#EBEBEB"/>
<path d="M176.029 158.379H104.399V164.085H176.029V158.379Z" fill="#65B8DB"/>
<path d="M146.379 144.233H147.487L146.202 150.278H149.731L149.523 151.256H144.884L146.379 144.233Z" fill="#263238"/>
<path d="M152.61 151.303C152.236 151.311 151.864 151.229 151.528 151.064C151.221 150.906 150.952 150.686 150.736 150.418C150.519 150.143 150.353 149.831 150.247 149.497C150.134 149.141 150.077 148.771 150.08 148.398C150.082 147.859 150.197 147.327 150.419 146.836C150.643 146.339 150.949 145.883 151.324 145.488C151.695 145.095 152.134 144.773 152.621 144.54C153.095 144.304 153.617 144.181 154.146 144.181C154.522 144.174 154.894 144.26 155.229 144.431C155.535 144.588 155.803 144.81 156.015 145.082C156.23 145.363 156.392 145.68 156.494 146.019C156.604 146.373 156.658 146.741 156.656 147.112C156.657 147.65 156.544 148.183 156.323 148.674C156.103 149.17 155.8 149.624 155.427 150.017C155.057 150.407 154.619 150.728 154.136 150.965C153.659 151.191 153.138 151.307 152.61 151.303ZM152.829 150.304C153.203 150.306 153.572 150.209 153.896 150.022C154.224 149.835 154.514 149.588 154.75 149.293C154.994 148.992 155.186 148.653 155.318 148.289C155.45 147.937 155.518 147.565 155.521 147.19C155.521 146.931 155.486 146.674 155.417 146.425C155.351 146.197 155.247 145.982 155.11 145.79C154.97 145.607 154.792 145.458 154.589 145.352C154.376 145.24 154.137 145.185 153.896 145.191C153.52 145.186 153.149 145.283 152.824 145.472C152.496 145.661 152.205 145.908 151.965 146.201C151.719 146.5 151.527 146.84 151.397 147.206C151.266 147.557 151.197 147.929 151.194 148.304C151.194 148.565 151.229 148.824 151.298 149.075C151.362 149.301 151.464 149.514 151.6 149.705C151.737 149.89 151.915 150.04 152.121 150.142C152.34 150.255 152.583 150.31 152.829 150.304Z" fill="#263238"/>
<path d="M160.191 144.233H161.17L162.294 151.256H161.128L160.852 149.346H158.327L157.249 151.256H156.083L160.191 144.233ZM160.81 148.523L160.415 145.508L158.697 148.523H160.81Z" fill="#263238"/>
<path d="M164.637 144.233H167.022C167.422 144.223 167.821 144.294 168.193 144.441C168.505 144.566 168.783 144.762 169.006 145.014C169.223 145.264 169.386 145.556 169.485 145.873C169.595 146.218 169.65 146.578 169.646 146.94C169.652 147.529 169.546 148.114 169.334 148.664C169.139 149.17 168.847 149.633 168.475 150.028C168.104 150.413 167.66 150.719 167.168 150.928C166.65 151.15 166.091 151.261 165.528 151.256H163.148L164.637 144.233ZM165.736 150.278C166.133 150.283 166.526 150.194 166.881 150.017C167.218 149.85 167.515 149.612 167.751 149.32C167.997 149.019 168.184 148.674 168.303 148.304C168.433 147.92 168.498 147.517 168.495 147.112C168.497 146.853 168.462 146.596 168.391 146.347C168.323 146.129 168.215 145.927 168.074 145.748C167.932 145.579 167.754 145.444 167.553 145.352C167.321 145.254 167.071 145.206 166.819 145.212H165.554L164.476 150.278H165.736Z" fill="#263238"/>
<path d="M171.484 144.243H172.603L171.109 151.256H169.99L171.484 144.243Z" fill="#263238"/>
<path d="M174.165 144.233H175.035L177.695 149.294L178.768 144.243H179.882L178.387 151.256H177.482L174.837 146.31L173.795 151.256H172.676L174.165 144.233Z" fill="#263238"/>
<path d="M184.802 150.392C184.237 150.949 183.485 151.274 182.693 151.303C182.333 151.309 181.976 151.231 181.652 151.074C181.349 150.921 181.081 150.707 180.866 150.444C180.633 150.17 180.456 149.854 180.345 149.512C180.229 149.149 180.171 148.769 180.173 148.388C180.176 147.849 180.292 147.317 180.512 146.826C180.728 146.325 181.033 145.868 181.412 145.477C181.783 145.092 182.22 144.778 182.704 144.55C183.172 144.32 183.687 144.201 184.208 144.202C184.747 144.172 185.281 144.321 185.729 144.623C186.097 144.901 186.362 145.293 186.483 145.738L185.515 146.352C185.434 146.006 185.233 145.699 184.948 145.488C184.658 145.291 184.313 145.191 183.964 145.201C183.599 145.197 183.24 145.289 182.922 145.467C182.599 145.648 182.313 145.888 182.079 146.175C181.834 146.475 181.639 146.813 181.501 147.174C181.363 147.541 181.292 147.929 181.293 148.32C181.291 148.584 181.328 148.847 181.402 149.101C181.473 149.33 181.584 149.545 181.73 149.736C181.87 149.916 182.048 150.064 182.251 150.168C182.462 150.274 182.696 150.328 182.933 150.324C183.328 150.298 183.714 150.192 184.067 150.013C184.42 149.834 184.734 149.586 184.989 149.283L185.151 148.539H183.766L183.943 147.721H186.244L185.494 151.272H184.562L184.802 150.392Z" fill="#263238"/>
<path d="M186.609 151.256L186.879 149.986H187.785L187.509 151.256H186.609Z" fill="#263238"/>
<path d="M188.707 151.256L188.972 149.986H189.883L189.607 151.256H188.707Z" fill="#263238"/>
<path d="M190.805 151.256L191.07 149.986H191.981L191.706 151.256H190.805Z" fill="#263238"/>
<path d="M168.813 119.122C169.681 119.122 170.385 118.418 170.385 117.55C170.385 116.682 169.681 115.978 168.813 115.978C167.944 115.978 167.24 116.682 167.24 117.55C167.24 118.418 167.944 119.122 168.813 119.122Z" fill="#65B8DB"/>
<path d="M162.347 121.471C163.111 121.471 163.731 120.85 163.731 120.086C163.731 119.321 163.111 118.701 162.347 118.701C161.582 118.701 160.962 119.321 160.962 120.086C160.962 120.85 161.582 121.471 162.347 121.471Z" fill="#65B8DB"/>
<path d="M159.566 125.209C159.813 125.208 160.054 125.28 160.259 125.416C160.464 125.552 160.625 125.746 160.72 125.973C160.815 126.2 160.84 126.451 160.793 126.693C160.745 126.934 160.627 127.156 160.453 127.331C160.279 127.506 160.058 127.625 159.816 127.673C159.575 127.721 159.324 127.697 159.097 127.603C158.869 127.509 158.674 127.35 158.537 127.145C158.4 126.94 158.327 126.699 158.327 126.453C158.326 126.29 158.358 126.128 158.42 125.977C158.482 125.826 158.573 125.689 158.688 125.573C158.803 125.458 158.94 125.366 159.091 125.303C159.242 125.241 159.403 125.209 159.566 125.209Z" fill="#65B8DB"/>
<path d="M161.362 132.175C161.509 132.031 161.694 131.933 161.896 131.894C162.097 131.855 162.306 131.877 162.495 131.956C162.685 132.035 162.846 132.169 162.96 132.34C163.074 132.511 163.134 132.711 163.134 132.917C163.134 133.122 163.074 133.323 162.96 133.493C162.846 133.664 162.685 133.798 162.495 133.877C162.306 133.956 162.097 133.978 161.896 133.939C161.694 133.9 161.509 133.803 161.362 133.659C161.264 133.562 161.186 133.446 161.133 133.319C161.079 133.191 161.052 133.055 161.052 132.917C161.052 132.779 161.079 132.642 161.133 132.514C161.186 132.387 161.264 132.272 161.362 132.175Z" fill="#65B8DB"/>
<path d="M168.469 136.522C168.926 136.522 169.297 136.152 169.297 135.694C169.297 135.237 168.926 134.867 168.469 134.867C168.012 134.867 167.641 135.237 167.641 135.694C167.641 136.152 168.012 136.522 168.469 136.522Z" fill="#65B8DB"/>
<path d="M174.509 133.586C174.396 133.473 174.333 133.321 174.333 133.161C174.333 133.002 174.396 132.85 174.509 132.737C174.621 132.625 174.774 132.561 174.933 132.561C175.092 132.561 175.245 132.625 175.357 132.737C175.414 132.792 175.459 132.858 175.49 132.931C175.52 133.004 175.536 133.082 175.536 133.161C175.536 133.24 175.52 133.319 175.49 133.392C175.459 133.464 175.414 133.53 175.357 133.586C175.302 133.642 175.236 133.686 175.163 133.716C175.09 133.746 175.012 133.762 174.933 133.762C174.854 133.762 174.776 133.746 174.703 133.716C174.631 133.686 174.564 133.642 174.509 133.586Z" fill="#65B8DB"/>
<path d="M177.711 127.234C177.624 127.234 177.539 127.208 177.468 127.16C177.396 127.112 177.34 127.044 177.306 126.964C177.273 126.884 177.265 126.796 177.282 126.711C177.298 126.626 177.34 126.548 177.401 126.487C177.462 126.426 177.54 126.384 177.625 126.368C177.71 126.351 177.798 126.359 177.878 126.392C177.958 126.426 178.026 126.482 178.074 126.554C178.122 126.625 178.148 126.71 178.148 126.797C178.148 126.913 178.102 127.024 178.02 127.106C177.938 127.188 177.827 127.234 177.711 127.234Z" fill="#65B8DB"/>
<path d="M175.399 120.549C175.356 120.593 175.3 120.624 175.239 120.636C175.179 120.649 175.115 120.643 175.058 120.619C175 120.596 174.951 120.556 174.917 120.504C174.882 120.453 174.864 120.392 174.864 120.33C174.864 120.268 174.882 120.208 174.917 120.156C174.951 120.105 175 120.065 175.058 120.041C175.115 120.018 175.179 120.012 175.239 120.024C175.3 120.037 175.356 120.067 175.399 120.112C175.428 120.14 175.451 120.174 175.467 120.212C175.482 120.249 175.491 120.29 175.491 120.33C175.491 120.371 175.482 120.411 175.467 120.449C175.451 120.486 175.428 120.52 175.399 120.549Z" fill="#65B8DB"/>
<path d="M110.332 158.216C130.221 138.326 130.221 106.08 110.332 86.1907C90.4425 66.3017 58.1959 66.3017 38.3068 86.1907C18.4177 106.08 18.4177 138.326 38.3068 158.216C58.1959 178.105 90.4425 178.105 110.332 158.216Z" fill="white"/>
<path d="M125.246 122.205C125.21 134.822 120.484 146.975 111.986 156.301C103.488 165.627 91.8248 171.46 79.2653 172.665C66.7057 173.869 54.1468 170.361 44.0305 162.821C33.9142 155.28 26.9634 144.248 24.5296 131.867C22.0958 119.487 24.353 106.644 30.8622 95.8355C37.3714 85.0269 47.6675 77.0252 59.7486 73.3862C71.8296 69.7472 84.8323 70.7309 96.2283 76.146C107.624 81.5612 116.6 91.0208 121.409 102.686C123.956 108.877 125.26 115.509 125.246 122.205ZM125.246 122.205C125.258 109.586 120.577 97.414 112.112 88.0555C103.648 78.6971 92.0053 72.8211 79.449 71.5704C66.8926 70.3197 54.3199 73.7835 44.1757 81.2884C34.0316 88.7933 27.0412 99.8027 24.564 112.176C22.0867 124.549 24.2997 137.401 30.7726 148.232C37.2455 159.064 47.5155 167.102 59.5855 170.781C71.6556 174.461 84.6628 173.52 96.0777 168.142C107.493 162.764 116.499 153.332 121.346 141.682C123.912 135.508 125.237 128.89 125.246 122.205Z" fill="#263238"/>
<path d="M111.235 122.205H73.8428L100.182 95.8654C103.687 99.2975 106.47 103.396 108.368 107.919C110.266 112.442 111.241 117.299 111.235 122.205Z" fill="#65B8DB"/>
<path opacity="0.3" d="M111.235 122.205H73.8428L100.182 95.8654C103.687 99.2975 106.47 103.396 108.368 107.919C110.266 112.442 111.241 117.299 111.235 122.205Z" fill="white"/>
<path d="M100.182 95.8653L73.8428 122.205V85.2963H74.3218C83.996 85.2831 93.2863 89.08 100.182 95.8653Z" fill="#65B8DB"/>
<path opacity="0.5" d="M100.182 95.8653L73.8428 122.205V85.2963H74.3218C83.996 85.2831 93.2863 89.08 100.182 95.8653Z" fill="white"/>
<path d="M73.8428 85.2963V122.205L47.9825 96.3391C54.7993 89.3776 64.1002 85.4059 73.8428 85.2963Z" fill="#65B8DB"/>
<path opacity="0.7" d="M73.8428 85.2963V122.205L47.9825 96.3391C54.7993 89.3776 64.1002 85.4059 73.8428 85.2963Z" fill="white"/>
<path d="M73.8427 122.204H37.3977C37.3873 112.528 41.1859 103.237 47.972 96.3389L73.8427 122.204Z" fill="#65B8DB"/>
<path opacity="0.8" d="M73.8427 122.204H37.3977C37.3873 112.528 41.1859 103.237 47.972 96.3389L73.8427 122.204Z" fill="white"/>
<path d="M73.8427 122.205L47.9825 148.07C41.1964 141.172 37.3978 131.881 37.4082 122.205H73.8427Z" fill="#65B8DB"/>
<path opacity="0.9" d="M73.8427 122.205L47.9825 148.07C41.1964 141.172 37.3978 131.881 37.4082 122.205H73.8427Z" fill="white"/>
<path d="M111.235 122.205C111.241 127.11 110.266 131.967 108.368 136.49C106.47 141.014 103.687 145.112 100.182 148.544L73.8428 122.205H111.235Z" fill="#65B8DB"/>
<path d="M96.7616 125.79C98.745 113.393 90.3036 101.736 77.9071 99.7526C65.5107 97.7692 53.8535 106.211 51.8701 118.607C49.8868 131.004 58.3282 142.661 70.7247 144.644C83.1211 146.627 94.7783 138.186 96.7616 125.79Z" fill="white"/>
<path d="M77.2946 124.396C77.0618 124.795 76.7519 125.142 76.3832 125.419C76.0144 125.696 75.594 125.897 75.1468 126.009C74.6995 126.121 74.2344 126.143 73.7785 126.074C73.3226 126.004 72.8851 125.845 72.4917 125.604C72.0984 125.363 71.7569 125.047 71.4875 124.672C71.218 124.298 71.0259 123.874 70.9223 123.424C70.8188 122.975 70.806 122.51 70.8846 122.055C70.9632 121.601 71.1317 121.167 71.3801 120.778C71.5311 120.533 91.2426 95.1572 91.2426 95.1572C91.2426 95.1572 77.4404 124.157 77.2946 124.396Z" fill="#263238"/>
<path d="M78.089 125.973C80.171 123.891 80.171 120.515 78.089 118.433C76.0069 116.351 72.6313 116.351 70.5493 118.433C68.4672 120.515 68.4672 123.891 70.5493 125.973C72.6313 128.055 76.0069 128.055 78.089 125.973Z" fill="#263238"/>
<path d="M56.7059 157.152C56.7059 156.678 56.7428 156.25 56.8167 155.871C56.8905 155.48 57.0171 155.121 57.1965 154.794C57.3864 154.467 57.6396 154.161 57.9561 153.876C58.2832 153.592 58.6947 153.312 59.1905 153.038C59.6231 152.806 60.0029 152.605 60.33 152.436C60.6676 152.257 60.9472 152.093 61.1688 151.946C61.3903 151.798 61.5591 151.65 61.6752 151.503C61.7913 151.344 61.8493 151.165 61.8493 150.964C61.8493 150.648 61.7227 150.379 61.4695 150.157C61.2162 149.925 60.8523 149.809 60.3775 149.809C60.1243 149.809 59.8922 149.846 59.6811 149.92C59.4701 149.983 59.2697 150.073 59.0798 150.189C58.9004 150.305 58.7316 150.437 58.5733 150.585C58.4256 150.722 58.2885 150.87 58.1619 151.028L56.8008 149.461C56.938 149.313 57.1332 149.155 57.3864 148.986C57.6396 148.807 57.935 148.643 58.2726 148.496C58.6208 148.337 59.0006 148.211 59.4121 148.116C59.8341 148.01 60.2825 147.958 60.7573 147.958C61.2954 147.958 61.7754 148.026 62.1975 148.163C62.6195 148.29 62.9729 148.475 63.2578 148.717C63.5532 148.949 63.7748 149.234 63.9225 149.572C64.0807 149.899 64.1599 150.258 64.1599 150.648C64.1599 151.017 64.0913 151.344 63.9541 151.629C63.817 151.914 63.6429 152.167 63.4319 152.389C63.2209 152.61 62.9887 152.806 62.7355 152.974C62.4929 153.133 62.2555 153.275 62.0234 153.402C61.8335 153.507 61.6172 153.629 61.3745 153.766C61.1318 153.903 60.8892 154.056 60.6465 154.225C60.4144 154.383 60.1981 154.552 59.9977 154.731C59.7972 154.9 59.6442 155.069 59.5387 155.237H64.3339V157.152H56.7059ZM73.9791 152.515C73.9791 153.212 73.8736 153.855 73.6626 154.446C73.4621 155.026 73.1772 155.533 72.808 155.965C72.4492 156.387 72.0167 156.72 71.5102 156.962C71.0144 157.195 70.4763 157.311 69.896 157.311C69.3052 157.311 68.7618 157.195 68.2659 156.962C67.7701 156.72 67.3375 156.387 66.9682 155.965C66.6095 155.533 66.3246 155.026 66.1136 154.446C65.9132 153.855 65.8129 153.212 65.8129 152.515C65.8129 151.819 65.9132 151.181 66.1136 150.6C66.3246 150.01 66.6095 149.503 66.9682 149.081C67.3375 148.649 67.7701 148.311 68.2659 148.068C68.7618 147.826 69.3052 147.704 69.896 147.704C70.4763 147.704 71.0144 147.826 71.5102 148.068C72.0167 148.311 72.4492 148.649 72.808 149.081C73.1772 149.503 73.4621 150.01 73.6626 150.6C73.8736 151.181 73.9791 151.819 73.9791 152.515ZM71.8426 152.515C71.8426 152.093 71.7951 151.708 71.7001 151.36C71.6052 151.001 71.468 150.695 71.2887 150.442C71.1199 150.189 70.9141 149.994 70.6715 149.857C70.4394 149.72 70.1809 149.651 69.896 149.651C69.6006 149.651 69.3315 149.72 69.0889 149.857C68.8568 149.994 68.651 150.189 68.4717 150.442C68.3029 150.695 68.171 151.001 68.076 151.36C67.9811 151.708 67.9336 152.093 67.9336 152.515C67.9336 152.937 67.9811 153.323 68.076 153.671C68.171 154.019 68.3029 154.32 68.4717 154.573C68.651 154.826 68.8568 155.021 69.0889 155.158C69.3315 155.296 69.6006 155.364 69.896 155.364C70.1809 155.364 70.4394 155.296 70.6715 155.158C70.9141 155.021 71.1199 154.826 71.2887 154.573C71.468 154.32 71.6052 154.019 71.7001 153.671C71.7951 153.323 71.8426 152.937 71.8426 152.515ZM83.7002 152.515C83.7002 153.212 83.5947 153.855 83.3837 154.446C83.1833 155.026 82.8984 155.533 82.5291 155.965C82.1704 156.387 81.7378 156.72 81.2314 156.962C80.7355 157.195 80.1974 157.311 79.6172 157.311C79.0263 157.311 78.483 157.195 77.9871 156.962C77.4912 156.72 77.0586 156.387 76.6894 155.965C76.3307 155.533 76.0458 155.026 75.8348 154.446C75.6343 153.855 75.5341 153.212 75.5341 152.515C75.5341 151.819 75.6343 151.181 75.8348 150.6C76.0458 150.01 76.3307 149.503 76.6894 149.081C77.0586 148.649 77.4912 148.311 77.9871 148.068C78.483 147.826 79.0263 147.704 79.6172 147.704C80.1974 147.704 80.7355 147.826 81.2314 148.068C81.7378 148.311 82.1704 148.649 82.5291 149.081C82.8984 149.503 83.1833 150.01 83.3837 150.6C83.5947 151.181 83.7002 151.819 83.7002 152.515ZM81.5637 152.515C81.5637 152.093 81.5163 151.708 81.4213 151.36C81.3264 151.001 81.1892 150.695 81.0098 150.442C80.841 150.189 80.6353 149.994 80.3926 149.857C80.1605 149.72 79.902 149.651 79.6172 149.651C79.3217 149.651 79.0527 149.72 78.81 149.857C78.5779 149.994 78.3722 150.189 78.1928 150.442C78.024 150.695 77.8921 151.001 77.7972 151.36C77.7022 151.708 77.6548 152.093 77.6548 152.515C77.6548 152.937 77.7022 153.323 77.7972 153.671C77.8921 154.019 78.024 154.32 78.1928 154.573C78.3722 154.826 78.5779 155.021 78.81 155.158C79.0527 155.296 79.3217 155.364 79.6172 155.364C79.902 155.364 80.1605 155.296 80.3926 155.158C80.6353 155.021 80.841 154.826 81.0098 154.573C81.1892 154.32 81.3264 154.019 81.4213 153.671C81.5163 153.323 81.5637 152.937 81.5637 152.515ZM94.8141 157.152V149.714L91.9179 155.253H90.731L87.8349 149.714V157.152H85.6509V145.916H87.9931L91.3166 152.31L94.6716 145.916H96.998V157.152H94.8141ZM61.786 176.311C61.1529 176.311 60.5885 176.168 60.0926 175.883C59.5967 175.598 59.2064 175.208 58.9215 174.712V176.152H57.0699V164.6H59.1905V169.316C59.486 168.809 59.871 168.419 60.3458 168.145C60.8312 167.86 61.3956 167.717 62.0392 167.717C62.5773 167.717 63.0679 167.833 63.511 168.065C63.9541 168.297 64.3339 168.609 64.6505 168.999C64.9775 169.389 65.2255 169.848 65.3943 170.376C65.5736 170.903 65.6633 171.457 65.6633 172.038C65.6633 172.639 65.5631 173.198 65.3626 173.715C65.1727 174.232 64.9037 174.686 64.5555 175.076C64.2073 175.456 63.7959 175.757 63.3211 175.978C62.8463 176.2 62.3346 176.311 61.786 176.311ZM61.2004 174.507C61.538 174.507 61.8493 174.443 62.1341 174.317C62.419 174.179 62.6617 174 62.8621 173.779C63.0626 173.557 63.2156 173.298 63.3211 173.003C63.4371 172.708 63.4952 172.391 63.4952 172.054C63.4952 171.716 63.4424 171.394 63.3369 171.088C63.2314 170.782 63.0784 170.513 62.878 170.281C62.6881 170.049 62.4612 169.864 62.1975 169.727C61.9337 169.59 61.6435 169.521 61.327 169.521C60.8523 169.521 60.425 169.68 60.0451 169.996C59.6759 170.302 59.391 170.682 59.1905 171.136V173.114C59.2644 173.325 59.3699 173.515 59.5071 173.684C59.6548 173.852 59.8183 174 59.9977 174.127C60.177 174.243 60.3722 174.338 60.5832 174.412C60.7942 174.475 61 174.507 61.2004 174.507ZM72.0695 176.311C71.4153 176.311 70.8456 176.168 70.3603 175.883C69.8749 175.588 69.4951 175.192 69.2208 174.696V179.523H67.1001V167.86H68.9518V169.284C69.2577 168.799 69.6534 168.419 70.1387 168.145C70.624 167.86 71.1832 167.717 71.8162 167.717C72.3754 167.717 72.8924 167.833 73.3672 168.065C73.842 168.287 74.2482 168.593 74.5858 168.983C74.9339 169.363 75.203 169.817 75.3929 170.344C75.5934 170.861 75.6936 171.41 75.6936 171.99C75.6936 172.592 75.6039 173.156 75.4245 173.684C75.2452 174.211 74.992 174.67 74.6649 175.06C74.3484 175.451 73.9686 175.757 73.5254 175.978C73.0823 176.2 72.597 176.311 72.0695 176.311ZM71.3573 174.507C71.6738 174.507 71.964 174.438 72.2277 174.301C72.502 174.164 72.7341 173.979 72.9241 173.747C73.114 173.515 73.2617 173.246 73.3672 172.94C73.4727 172.634 73.5254 172.317 73.5254 171.99C73.5254 171.642 73.4674 171.32 73.3514 171.025C73.2353 170.719 73.0718 170.455 72.8607 170.234C72.6603 170.012 72.4176 169.838 72.1328 169.711C71.8584 169.585 71.5578 169.521 71.2307 169.521C71.0302 169.521 70.8245 169.558 70.6135 169.632C70.4025 169.695 70.2073 169.79 70.0279 169.917C69.8486 170.044 69.685 170.191 69.5373 170.36C69.4002 170.529 69.2947 170.714 69.2208 170.914V172.861C69.4107 173.335 69.7009 173.731 70.0912 174.048C70.4816 174.354 70.9036 174.507 71.3573 174.507ZM80.2639 176.311C79.5676 176.311 78.8871 176.2 78.2224 175.978C77.5577 175.757 76.988 175.44 76.5132 175.029L77.3045 173.699C77.8109 174.058 78.3015 174.332 78.7763 174.522C79.2616 174.702 79.7417 174.791 80.2164 174.791C80.6385 174.791 80.9708 174.712 81.2135 174.554C81.4561 174.396 81.5775 174.169 81.5775 173.873C81.5775 173.578 81.435 173.362 81.1502 173.225C80.8653 173.087 80.4011 172.929 79.7575 172.75C79.2194 172.602 78.7605 172.46 78.3806 172.323C78.0008 172.185 77.6949 172.032 77.4627 171.864C77.2306 171.684 77.0618 171.484 76.9563 171.262C76.8508 171.03 76.7981 170.756 76.7981 170.439C76.7981 170.017 76.8772 169.637 77.0354 169.3C77.2043 168.962 77.4364 168.677 77.7318 168.445C78.0272 168.203 78.3701 168.018 78.7605 167.891C79.1614 167.765 79.594 167.701 80.0582 167.701C80.6807 167.701 81.2609 167.791 81.799 167.97C82.3477 168.15 82.8488 168.44 83.3025 168.841L82.4479 170.123C82.0259 169.806 81.6144 169.574 81.2135 169.426C80.8231 169.279 80.4327 169.205 80.0424 169.205C79.6836 169.205 79.3829 169.279 79.1403 169.426C78.8976 169.574 78.7763 169.812 78.7763 170.139C78.7763 170.286 78.8027 170.408 78.8554 170.503C78.9187 170.598 79.0137 170.682 79.1403 170.756C79.2669 170.83 79.4304 170.903 79.6309 170.977C79.8419 171.041 80.1004 171.109 80.4064 171.183C80.9761 171.331 81.4614 171.478 81.8623 171.626C82.2738 171.774 82.6061 171.943 82.8594 172.133C83.1231 172.323 83.313 172.544 83.4291 172.797C83.5557 173.04 83.619 173.335 83.619 173.684C83.619 174.496 83.3183 175.14 82.7169 175.614C82.1155 176.079 81.2979 176.311 80.2639 176.311Z" fill="#263238"/>
<path d="M50.2731 102.686C52.3786 99.6219 55.1206 97.0486 58.3118 95.1416C61.4955 93.2075 64.9988 91.857 68.6569 91.1535C72.3151 90.4589 76.0668 90.4113 79.7414 91.0129C83.4076 91.5744 86.9381 92.8101 90.1542 94.6574C88.5241 93.8013 86.8155 93.1039 85.052 92.5748C83.2982 92.0291 81.503 91.6269 79.6841 91.3721C77.8694 91.1234 76.0385 91.0121 74.207 91.0389C72.3763 91.0844 70.5528 91.2847 68.7559 91.6377C65.1488 92.3135 61.6858 93.6081 58.52 95.4644C56.9332 96.3842 55.4375 97.4529 54.0529 98.6559C52.6417 99.8488 51.3733 101.201 50.2731 102.686Z" fill="#263238"/>
<path d="M56.9739 101.41C58.4811 99.8712 60.2204 98.5781 62.1282 97.5782C64.0194 96.5291 66.0415 95.7359 68.1417 95.2197C70.2397 94.7015 72.395 94.4513 74.556 94.4751C76.7057 94.5211 78.8427 94.8181 80.9234 95.3602C78.8194 95.0107 76.6887 94.8469 74.556 94.8708C72.4338 94.9101 70.3233 95.1949 68.2666 95.7195C67.2356 95.9657 66.2203 96.2735 65.2261 96.641C64.2368 97.0159 63.2736 97.474 62.3209 97.9426C61.3685 98.4131 60.4422 98.9345 59.5458 99.5045C58.6325 100.06 57.7717 100.698 56.9739 101.41Z" fill="#263238"/>
<path d="M89.1757 99.7335V99.2129C95.0485 99.2129 233.05 99.166 234.122 99.1869V99.7075C233.06 99.6867 90.6283 99.7335 89.1757 99.7335Z" fill="#A6A6A6"/>
<path d="M226.671 162.754C227.78 163.113 259.357 162.837 260.554 162.061C261.007 161.775 261.236 157.173 261.356 151.602C261.356 150.404 261.398 149.16 261.413 147.9L263.767 131.031L242.655 131.156L240.869 148.025L240.994 151.732C240.994 151.732 228.951 157.245 227.728 158.229C226.504 159.213 225.567 162.395 226.671 162.754Z" fill="#AD6359"/>
<path d="M226.671 162.754C227.78 163.113 259.357 162.837 260.554 162.062C261.106 161.708 261.33 154.991 261.413 147.9L240.869 148.02L240.994 151.727C240.994 151.727 228.951 157.24 227.728 158.224C226.504 159.208 225.567 162.395 226.671 162.754Z" fill="white"/>
<path d="M226.671 162.754C227.78 163.113 259.357 162.837 260.554 162.061C261.007 161.775 261.236 157.173 261.356 151.602L240.994 151.727C240.994 151.727 228.951 157.24 227.728 158.224C226.504 159.208 225.567 162.395 226.671 162.754Z" fill="#65B8DB"/>
<path d="M227.113 161.489C232.403 161.312 253.77 161.098 259.013 161.327C259.055 161.327 259.055 161.353 259.013 161.358C253.77 161.65 232.408 161.686 227.113 161.572C227.02 161.572 227.02 161.489 227.113 161.489Z" fill="#263238"/>
<path d="M229.753 157.063C230.341 157.042 230.927 157.144 231.474 157.361C232.021 157.579 232.516 157.909 232.929 158.329C233.677 159.076 234.109 160.083 234.137 161.14C234.137 161.171 234.08 161.176 234.074 161.14C233.885 160.093 233.361 159.136 232.582 158.411C231.803 157.687 230.811 157.234 229.753 157.121C229.748 157.123 229.743 157.124 229.738 157.123C229.733 157.123 229.728 157.121 229.723 157.118C229.719 157.115 229.716 157.111 229.713 157.107C229.711 157.102 229.709 157.097 229.709 157.092C229.709 157.087 229.711 157.082 229.713 157.077C229.716 157.073 229.719 157.069 229.723 157.066C229.728 157.063 229.733 157.061 229.738 157.061C229.743 157.06 229.748 157.061 229.753 157.063Z" fill="#263238"/>
<path d="M238.948 152.268C241.067 152.221 243.529 152.945 244.857 154.668C244.909 154.736 244.815 154.809 244.753 154.778C242.891 153.822 240.933 153.068 238.911 152.528C238.883 152.517 238.86 152.497 238.844 152.471C238.829 152.444 238.823 152.414 238.827 152.384C238.832 152.354 238.846 152.326 238.868 152.305C238.889 152.284 238.918 152.271 238.948 152.268Z" fill="#263238"/>
<path d="M237.318 152.898C239.437 152.851 241.9 153.58 243.227 155.298C243.279 155.366 243.186 155.439 243.123 155.408C241.263 154.451 239.304 153.699 237.282 153.164C237.25 153.155 237.223 153.135 237.205 153.107C237.188 153.08 237.18 153.047 237.185 153.015C237.189 152.983 237.205 152.953 237.229 152.932C237.254 152.91 237.285 152.898 237.318 152.898Z" fill="#263238"/>
<path d="M235.688 153.575C237.802 153.523 240.27 154.252 241.598 155.97C241.65 156.038 241.556 156.11 241.494 156.079C239.632 155.125 237.674 154.373 235.652 153.835C235.617 153.83 235.586 153.812 235.565 153.784C235.544 153.756 235.535 153.721 235.54 153.687C235.545 153.652 235.563 153.621 235.591 153.6C235.619 153.579 235.654 153.57 235.688 153.575Z" fill="#263238"/>
<path d="M234.054 154.226C236.173 154.179 238.635 154.902 239.968 156.626C240.02 156.693 239.927 156.761 239.864 156.73C238.002 155.778 236.043 155.026 234.022 154.486C233.988 154.482 233.956 154.464 233.935 154.437C233.914 154.409 233.904 154.375 233.908 154.34C233.912 154.306 233.93 154.274 233.957 154.253C233.984 154.231 234.019 154.221 234.054 154.226Z" fill="#263238"/>
<path d="M257.618 156.308C259.997 156.308 260.023 159.989 257.644 160.005C255.264 160.02 255.238 156.324 257.618 156.308Z" fill="#263238"/>
<path d="M236.803 149.738C237.958 151.206 239.708 152.117 241.228 153.148C241.263 153.168 241.303 153.179 241.343 153.18C241.384 153.182 241.424 153.174 241.461 153.157C241.498 153.141 241.531 153.116 241.556 153.084C241.582 153.053 241.599 153.016 241.608 152.976C241.617 152.977 241.625 152.976 241.633 152.973C241.641 152.97 241.648 152.966 241.654 152.96C241.66 152.954 241.665 152.947 241.667 152.939C241.67 152.931 241.671 152.922 241.671 152.914C241.502 150.97 240.821 149.105 239.697 147.51C239.031 146.593 237.672 145.739 236.605 146.635C235.537 147.53 236.126 148.884 236.803 149.738ZM236.688 147.983C236.881 145.677 238.974 147.431 239.442 148.129C239.737 148.584 239.999 149.059 240.228 149.551C240.688 150.571 241.096 151.613 241.452 152.674C240.733 152.122 239.978 151.633 239.244 151.112C238.37 150.488 236.584 149.254 236.688 147.983Z" fill="#263238"/>
<path d="M249.183 151.498C249.006 150.113 247.424 149.826 246.309 150.05C244.405 150.472 242.645 151.387 241.207 152.705C241.201 152.711 241.195 152.718 241.192 152.725C241.188 152.733 241.186 152.741 241.186 152.75C241.186 152.758 241.188 152.767 241.192 152.774C241.195 152.782 241.201 152.789 241.207 152.794C241.187 152.829 241.174 152.868 241.172 152.909C241.169 152.949 241.175 152.99 241.191 153.027C241.207 153.065 241.231 153.098 241.262 153.124C241.293 153.151 241.329 153.169 241.369 153.179C243.186 153.445 245.091 153.95 246.934 153.653C248.017 153.476 249.355 152.804 249.183 151.498ZM244.201 153.018C243.305 152.908 242.42 152.757 241.52 152.679C242.519 152.159 243.488 151.612 244.534 151.196C245.043 150.988 245.564 150.814 246.096 150.675C246.913 150.477 249.642 150.597 248.22 152.429C247.429 153.445 245.279 153.148 244.201 153.018Z" fill="#263238"/>
<path d="M293.823 52.7942C293.823 52.7942 269.822 94.7996 269.192 97.71C268.239 102.224 263.465 146.723 263.465 146.723L239.843 146.577C239.843 146.577 243.759 107.347 247.762 94.3883C249.949 87.318 261.445 68.1375 266.839 58.6775C267.318 57.8288 267.177 53.9605 267.177 53.9605L293.823 52.7942Z" fill="#263238"/>
<path d="M242.118 142.657C245.763 142.584 256.873 142.282 261.752 142.657C261.788 142.657 261.788 142.72 261.752 142.725C260.08 142.985 245.784 142.813 242.118 142.725C242.11 142.715 242.106 142.703 242.106 142.691C242.106 142.678 242.11 142.666 242.118 142.657Z" fill="#455A64"/>
<path d="M289.689 56.673C288.128 59.2086 286.446 61.6972 284.837 64.2171C283.228 66.7371 281.619 69.257 280.032 71.7925C276.866 76.8635 273.773 81.9762 270.754 87.1306C269.287 89.5071 268.037 92.0111 267.021 94.6122C266.094 97.2222 265.408 99.9111 264.969 102.646C264.501 105.39 264.209 108.154 263.928 110.924C263.633 113.871 263.34 116.821 263.048 119.775C262.451 125.804 261.854 131.831 261.257 137.857C261.184 138.596 261.111 139.335 261.044 140.08C261.044 140.184 261.231 140.205 261.242 140.08C261.918 134.087 262.47 128.105 263.074 122.081C263.38 119.096 263.683 116.111 263.985 113.126C264.266 110.346 264.532 107.566 264.928 104.796C265.292 102.073 265.86 99.3805 266.625 96.7417C267.475 94.006 268.626 91.3728 270.056 88.8904C272.951 83.7568 276.017 78.7066 279.084 73.672C282.151 68.6374 285.3 63.5247 288.539 58.5317C288.94 57.9174 289.341 57.303 289.757 56.6991C289.799 56.6678 289.715 56.621 289.689 56.673Z" fill="#455A64"/>
<path d="M284.327 164.467C285.488 164.383 315.367 151.846 316.19 150.685C316.223 150.616 316.238 150.538 316.232 150.462C316.232 149.42 314.092 145.838 312.296 141.121C312.181 140.819 311.39 139.419 310.291 137.534C307.266 132.359 301.924 123.477 301.924 123.477L282.395 131.552L291.965 145.5L293.469 148.884C293.469 148.884 284.374 158.516 283.613 159.89C282.853 161.265 283.166 164.55 284.327 164.467Z" fill="#AD6359"/>
<path d="M284.327 164.467C285.488 164.384 315.368 151.847 316.19 150.685C316.223 150.616 316.238 150.539 316.232 150.462C316.232 149.42 314.092 145.838 312.296 141.121C312.181 140.819 311.39 139.419 310.291 137.534L291.965 145.484L293.469 148.868C293.469 148.868 284.374 158.5 283.614 159.875C282.853 161.249 283.166 164.55 284.327 164.467Z" fill="white"/>
<path d="M284.327 164.467C285.488 164.383 315.367 151.846 316.19 150.685C316.502 150.243 315.107 146.161 312.296 141.121L293.469 148.868C293.469 148.868 284.374 158.5 283.608 159.875C282.843 161.249 283.166 164.55 284.327 164.467Z" fill="#65B8DB"/>
<path d="M284.29 163.129C289.127 160.978 308.849 152.768 313.8 151.008C313.837 151.008 313.847 151.008 313.8 151.039C309.052 153.273 289.262 161.327 284.311 163.207C284.191 163.248 284.16 163.17 284.29 163.129Z" fill="#263238"/>
<path d="M285.05 158.047C285.589 157.809 286.172 157.686 286.761 157.686C287.35 157.686 287.932 157.809 288.471 158.047C289.447 158.459 290.227 159.231 290.647 160.203C290.647 160.234 290.606 160.255 290.59 160.229C290.02 159.332 289.174 158.645 288.18 158.269C287.186 157.894 286.097 157.851 285.076 158.146C285.063 158.15 285.049 158.148 285.038 158.141C285.026 158.134 285.017 158.123 285.014 158.11C285.011 158.097 285.012 158.083 285.019 158.071C285.026 158.059 285.037 158.051 285.05 158.047Z" fill="#263238"/>
<path d="M291.772 150.144C293.719 149.306 296.276 149.051 298.155 150.144C298.228 150.186 298.155 150.29 298.098 150.284C296.017 150.098 293.923 150.134 291.85 150.394C291.82 150.395 291.791 150.387 291.766 150.369C291.742 150.352 291.724 150.327 291.715 150.299C291.706 150.27 291.707 150.24 291.717 150.212C291.727 150.184 291.747 150.16 291.772 150.144Z" fill="#263238"/>
<path d="M290.507 151.336C292.454 150.498 295.01 150.248 296.89 151.336C296.963 151.383 296.89 151.482 296.827 151.477C294.747 151.292 292.653 151.329 290.58 151.586C290.55 151.586 290.522 151.577 290.498 151.559C290.474 151.542 290.457 151.517 290.449 151.489C290.441 151.46 290.442 151.43 290.452 151.403C290.463 151.375 290.482 151.352 290.507 151.336Z" fill="#263238"/>
<path d="M289.242 152.575C291.189 151.737 293.74 151.487 295.625 152.575C295.698 152.617 295.625 152.721 295.562 152.716C293.482 152.529 291.387 152.565 289.315 152.825C289.285 152.825 289.257 152.816 289.233 152.798C289.209 152.781 289.192 152.756 289.184 152.728C289.176 152.699 289.177 152.669 289.187 152.642C289.198 152.614 289.217 152.591 289.242 152.575Z" fill="#263238"/>
<path d="M287.977 153.789C289.919 152.95 292.475 152.7 294.354 153.789C294.427 153.83 294.354 153.929 294.297 153.924C292.217 153.74 290.122 153.776 288.05 154.033C288.02 154.036 287.989 154.028 287.965 154.011C287.94 153.995 287.921 153.97 287.913 153.941C287.904 153.912 287.906 153.881 287.917 153.853C287.929 153.825 287.95 153.803 287.977 153.789Z" fill="#263238"/>
<path d="M310.598 146.885C312.795 145.979 314.206 149.394 312.004 150.3C309.802 151.206 308.396 147.791 310.598 146.885Z" fill="#263238"/>
<path d="M288.836 148.603C290.46 149.524 292.423 149.717 294.219 150.102C294.401 150.144 294.521 149.957 294.505 149.8C294.537 149.8 294.563 149.759 294.542 149.717C293.655 147.982 292.326 146.511 290.689 145.453C289.721 144.849 288.143 144.568 287.492 145.797C286.842 147.025 287.893 148.061 288.836 148.603ZM288.075 147.041C287.388 144.828 289.986 145.667 290.679 146.14C291.124 146.458 291.546 146.806 291.944 147.182C292.777 147.937 293.506 148.796 294.245 149.623C293.376 149.379 292.496 149.212 291.642 149.004C290.575 148.733 288.456 148.239 288.075 147.02V147.041Z" fill="#263238"/>
<path d="M300.951 145.609C300.269 144.396 298.696 144.724 297.749 145.349C296.142 146.455 294.853 147.963 294.011 149.722C294.007 149.73 294.006 149.738 294.006 149.747C294.007 149.755 294.009 149.764 294.013 149.771C294.017 149.779 294.023 149.785 294.029 149.79C294.036 149.795 294.044 149.799 294.052 149.8C294.052 149.962 294.162 150.144 294.349 150.097C296.13 149.665 298.087 149.42 299.686 148.452C300.638 147.858 301.617 146.734 300.951 145.609ZM296.916 148.889C296.041 149.123 295.166 149.311 294.313 149.582C295.016 148.709 295.763 147.874 296.551 147.077C296.939 146.703 297.351 146.355 297.785 146.036C298.467 145.552 301.039 144.641 300.388 146.869C300.076 148.051 297.973 148.582 296.937 148.863L296.916 148.889Z" fill="#263238"/>
<path d="M290.439 144.714L312.306 135.571C312.306 135.571 284.571 95.8565 284.332 92.8785C284.124 90.2388 295.786 67.1119 296.192 60.4112C296.614 53.1795 293.068 47.6243 289.2 44.2036L267.161 53.9761C267.161 53.9761 269.088 57.9069 272.888 59.9895C272.888 59.9895 261.596 86.6932 262.356 94.8725C263.116 103.052 290.439 144.714 290.439 144.714Z" fill="#263238"/>
<path d="M289.413 140.549C292.574 139.143 291.647 139.507 294.823 138.133C296.385 137.461 306.589 133.067 308.151 132.697C308.157 132.701 308.161 132.705 308.164 132.711C308.167 132.716 308.169 132.722 308.169 132.729C308.169 132.735 308.167 132.741 308.164 132.746C308.161 132.752 308.157 132.757 308.151 132.76C306.798 133.614 296.505 137.831 294.937 138.487C291.735 139.794 292.641 139.382 289.424 140.658C289.417 140.659 289.409 140.658 289.402 140.656C289.396 140.654 289.389 140.65 289.384 140.646C289.378 140.641 289.373 140.635 289.37 140.629C289.367 140.623 289.365 140.616 289.364 140.608C289.363 140.601 289.364 140.594 289.366 140.587C289.368 140.58 289.372 140.574 289.376 140.568C289.381 140.563 289.386 140.558 289.393 140.555C289.399 140.551 289.406 140.549 289.413 140.549Z" fill="#455A64"/>
<path d="M269.145 59.5575C271.511 60.0772 273.83 60.7966 276.075 61.7078C276.093 61.714 276.109 61.7274 276.117 61.7449C276.126 61.7625 276.128 61.7829 276.121 61.8015C276.115 61.8202 276.102 61.8356 276.084 61.8443C276.067 61.8531 276.046 61.8546 276.028 61.8484C273.7 61.1976 271.342 60.5988 269.056 59.8231C268.874 59.7658 268.963 59.5211 269.145 59.5575Z" fill="#455A64"/>
<path d="M271.821 58.5891C272.046 58.9783 272.246 59.3818 272.42 59.797C272.585 60.113 272.689 60.4575 272.727 60.8122C272.727 60.8799 272.638 60.8955 272.591 60.8539C272.349 60.5694 272.154 60.2476 272.014 59.9011C271.816 59.5314 271.607 59.1618 271.42 58.7869C271.398 58.7343 271.396 58.6751 271.416 58.6214C271.436 58.5678 271.476 58.5237 271.527 58.4984C271.578 58.4731 271.637 58.4684 271.692 58.4852C271.747 58.5021 271.793 58.5393 271.821 58.5891Z" fill="#455A64"/>
<path d="M271.519 56.4649C271.373 56.116 271.233 55.7672 271.082 55.4236C270.931 55.08 270.743 54.7207 270.618 54.3511C270.618 54.2938 270.504 54.3511 270.53 54.3927C270.67 54.7415 270.764 55.1112 270.884 55.4704C271.004 55.8297 271.118 56.1837 271.243 56.543C271.478 57.2106 271.748 57.8657 272.05 58.5058C271.677 58.5317 271.303 58.4711 270.957 58.3288C270.608 58.1138 270.335 57.7953 270.176 57.4176C269.973 57.0272 269.785 56.6315 269.572 56.2462C269.319 55.831 269.105 55.3936 268.931 54.9394C268.931 54.8821 268.817 54.9394 268.843 54.981C269.16 55.9476 269.575 56.8792 270.082 57.7613C270.296 58.1049 270.467 58.4641 270.858 58.5943C271.279 58.7045 271.718 58.7292 272.149 58.6672C272.201 58.6672 272.274 58.6672 272.253 58.5787C272.04 57.8706 271.795 57.1469 271.519 56.4649Z" fill="#455A64"/>
<path d="M272.539 60.8644C271.753 62.5825 271.066 64.2954 270.332 66.0031C269.598 67.7108 268.952 69.3665 268.301 71.0638C266.995 74.4948 265.823 77.9883 264.803 81.5183C264.303 83.2537 263.843 85.0118 263.423 86.7924C263.007 88.5677 262.049 92.2747 262.049 94.0813C262.049 97.1792 266.568 105.187 267.396 106.847C267.916 107.889 268.067 107.727 267.822 107.212C267.125 105.759 262.866 96.518 262.663 94.1959C262.507 92.3997 263.402 89.7027 263.788 87.9482C264.173 86.1936 264.626 84.3818 265.115 82.6168C266.078 79.1337 267.234 75.7235 268.421 72.3133C269.088 70.4026 269.806 68.5126 270.504 66.5862C271.201 64.6599 271.894 62.9418 272.649 60.8592C272.644 60.8436 272.56 60.8123 272.539 60.8644Z" fill="#455A64"/>
<path d="M289.148 55.0175C288.752 54.877 288.211 55.1269 287.81 55.1998C287.294 55.2926 286.772 55.3518 286.248 55.3768C285.727 55.3967 285.205 55.3845 284.686 55.3403C284.169 55.3346 283.661 55.208 283.202 54.9707C282.446 54.4373 281.798 53.766 281.291 52.9922C280.681 52.205 280.176 51.3423 279.787 50.4255C279.787 50.3734 279.688 50.4255 279.709 50.4671C279.881 50.9878 280.005 51.5084 280.229 52.029C280.44 52.5097 280.689 52.9728 280.974 53.4139C281.442 54.2986 282.124 55.0522 282.957 55.6059C283.874 56.1265 285.04 56.0692 286.081 56.0015C286.668 55.9581 287.251 55.8729 287.825 55.7464C288.242 55.6527 288.94 55.5746 289.2 55.2258C289.214 55.21 289.224 55.191 289.229 55.1704C289.234 55.1499 289.234 55.1284 289.229 55.1079C289.224 55.0874 289.214 55.0685 289.2 55.0527C289.185 55.037 289.168 55.0249 289.148 55.0175Z" fill="#455A64"/>
<path d="M305.975 131.463C302.299 126.045 298.686 120.58 295.135 115.068C291.585 109.556 288.086 104.003 284.639 98.4078C283.817 97.0697 282.864 95.7317 282.328 94.2426C281.739 92.6286 282.041 91.0511 282.536 89.4579C283.464 86.5422 284.556 83.6811 285.805 80.8882C287.034 78.0819 288.367 75.3173 289.674 72.5579C291.047 69.83 292.264 67.0262 293.318 64.1599C294.329 61.4586 294.499 58.5151 293.808 55.7151C293.037 52.8984 291.418 50.3837 289.731 48.0356C289.283 47.4213 288.83 46.8069 288.383 46.1874C288.351 46.1405 288.278 46.1874 288.315 46.2446C290.174 48.6917 291.959 51.2793 293.094 54.1636C293.658 55.5863 293.983 57.0919 294.058 58.6203C294.086 60.1715 293.862 61.717 293.396 63.1967C292.543 66.0811 291.173 68.8197 289.903 71.527C288.633 74.2343 287.258 77.0614 286.003 79.8573C284.721 82.6649 283.586 85.5376 282.603 88.4635C282.177 89.7703 281.698 91.1344 281.744 92.5297C281.796 94.0552 282.541 95.4193 283.306 96.6948C286.659 102.261 290.137 107.753 293.662 113.21C297.187 118.666 300.795 124.143 304.455 129.521C304.913 130.216 305.375 130.896 305.84 131.562C305.913 131.646 306.032 131.552 305.975 131.463Z" fill="#455A64"/>
<path d="M267.765 27.9441C263.079 36.5867 256.42 46.3175 251.261 46.6872C246.601 47.01 238.807 43.657 230.321 40.075C228.639 39.3617 234.861 26.5383 236.568 27.4859C239.958 29.3342 247.278 34.426 249.511 34.5822C250.464 34.6499 258.784 27.0329 264.449 22.7897C271.337 17.6249 269.629 24.5026 267.765 27.9441Z" fill="#AD6359"/>
<path d="M224.375 39.6533C227.191 40.5072 231.617 41.4339 233.372 41.1163C235.017 40.8091 238.109 28.4491 236.667 27.5171C232.184 24.6224 225 23.8726 222.209 25.0128C219.418 26.1531 221.454 38.763 224.375 39.6533Z" fill="#AD6359"/>
<path d="M295.677 107.909C292.938 107.909 290.246 106.67 287.659 104.228C282.27 99.1313 280.109 73.9687 278.808 58.9325C278.386 54.0177 278.022 49.7692 277.767 49.3527C276.439 48.4624 218.793 25.1793 217.33 24.9659L217.356 24.4452C218.398 24.4452 276.85 48.0667 278.1 48.9622C278.475 49.2278 278.667 51.0813 279.339 58.8909C280.542 72.8701 282.775 98.8866 288.023 103.854C290.626 106.301 293.292 107.498 296.01 107.383C299.222 107.259 302.539 105.332 305.871 101.656L306.256 102.005C302.825 105.79 299.384 107.774 296.031 107.904L295.677 107.909Z" fill="#A6A6A6"/>
<path d="M226.848 24.1643C227.889 25.3253 225.921 25.8876 225.921 25.8876C225.921 25.8876 228.946 25.7574 229.566 27.3714C230.185 28.9854 227.754 29.5269 227.582 29.5685C227.743 29.5685 230.524 29.5165 230.971 31.2034C231.419 32.8902 228.925 33.1402 228.764 33.1506C228.915 33.1922 230.924 33.7857 230.976 35.1446C231.06 37.4719 225.874 36.0974 224.286 37.1126C224.286 37.1126 224.567 39.6273 224.588 39.7159C224.588 39.7159 220.767 38.888 219.512 36.6649C219.326 36.3442 219.256 35.9698 219.312 35.6035C219.368 35.2372 219.547 34.9009 219.819 34.65C219.819 34.65 218.174 34.4366 217.783 33.1193C217.58 32.4425 218.481 31.521 218.481 31.521C218.116 31.45 217.778 31.2805 217.503 31.0308C217.227 30.7812 217.025 30.4609 216.919 30.1048C216.695 29.1572 217.632 28.3815 217.632 28.3815C217.632 28.3815 216.477 27.5797 216.565 26.5332C216.706 24.4298 224.609 21.6964 226.848 24.1643Z" fill="#AD6359"/>
<path d="M218.434 31.526C218.403 31.526 218.382 31.4895 218.408 31.4687C221.146 29.722 224.418 29.0111 227.634 29.4642C227.749 29.4642 227.832 29.6152 227.697 29.5996C225.505 29.3965 220.902 30.4222 218.434 31.526Z" fill="#263238"/>
<path d="M228.972 33.2651C225.848 32.8537 222.86 33.4889 219.908 34.5823C219.871 34.5823 219.856 34.5406 219.908 34.5198C221.209 33.5931 223.162 33.0932 224.713 32.8329C226.15 32.5634 227.633 32.6746 229.014 33.1557C229.04 33.1765 229.04 33.2755 228.972 33.2651Z" fill="#263238"/>
<path d="M225.921 25.8875C226.504 25.916 227.082 25.9979 227.65 26.1322C228.206 26.2388 228.724 26.4922 229.149 26.8663C229.336 27.0482 229.447 27.2934 229.461 27.5535C229.476 27.8145 229.423 28.0748 229.305 28.3085C229.169 28.5327 228.988 28.726 228.773 28.8758C228.558 29.0255 228.313 29.1285 228.056 29.1779L226.811 29.4695L228.082 29.6309C228.648 29.6948 229.201 29.8513 229.717 30.0943C229.957 30.1958 230.174 30.3463 230.354 30.5364C230.533 30.7264 230.671 30.9518 230.758 31.198C230.844 31.429 230.845 31.6829 230.761 31.9146C230.677 32.1462 230.513 32.3406 230.3 32.4632C229.824 32.7381 229.287 32.8869 228.738 32.8953L227.228 32.9734L228.675 33.3951C229.079 33.5194 229.466 33.6943 229.826 33.9158C230.178 34.0929 230.469 34.3701 230.664 34.7124C230.742 34.8742 230.773 35.0545 230.754 35.233C230.734 35.4114 230.665 35.581 230.555 35.7224C230.263 35.99 229.903 36.1704 229.514 36.243C228.656 36.4215 227.785 36.5312 226.91 36.5711C226.468 36.6075 226.025 36.6439 225.583 36.7064C225.136 36.7382 224.701 36.8642 224.307 37.0761C224.716 36.9118 225.152 36.827 225.593 36.8262C226.036 36.8262 226.478 36.8262 226.921 36.7949C227.819 36.814 228.717 36.7478 229.602 36.5971C230.083 36.5245 230.532 36.3127 230.893 35.9879C231.071 35.7892 231.187 35.543 231.227 35.2794C231.266 35.0158 231.228 34.7464 231.117 34.5041C230.897 34.0655 230.551 33.7028 230.123 33.4628C229.726 33.2175 229.299 33.025 228.852 32.8901L228.785 33.4108C229.437 33.4003 230.076 33.2209 230.638 32.8901C230.944 32.7013 231.176 32.4126 231.294 32.0727C231.4 31.7336 231.4 31.3705 231.294 31.0314C231.183 30.7159 231.005 30.4278 230.774 30.1863C230.542 29.9447 230.262 29.7554 229.951 29.6309C229.38 29.3742 228.772 29.2107 228.149 29.1467V29.5997C228.462 29.5281 228.756 29.3896 229.011 29.1936C229.265 28.9977 229.474 28.749 229.623 28.4647C229.755 28.1675 229.807 27.8407 229.774 27.5171C229.734 27.1895 229.579 26.8867 229.337 26.6632C228.856 26.2833 228.279 26.0453 227.67 25.976C227.092 25.8823 226.506 25.8526 225.921 25.8875Z" fill="#263238"/>
<path d="M235.511 26.8507C235.511 26.8507 224.963 18.333 223.651 23.6124C223.261 25.1743 223.526 32.0884 224.911 32.0572C226.707 32.0259 227.134 29.1207 227.113 27.2568C227.113 27.2568 229.977 30.4536 232.799 29.1207C233.876 28.5983 234.807 27.8186 235.511 26.8507Z" fill="#AD6359"/>
<path d="M223.787 23.1802C223.56 23.7763 223.423 24.4026 223.38 25.0389C223.317 25.6737 223.298 26.3121 223.323 26.9496C223.35 28.23 223.491 29.5055 223.745 30.7607C223.811 31.0947 223.925 31.4174 224.083 31.7187C224.177 31.8918 224.306 32.0427 224.463 32.1612C224.548 32.2254 224.643 32.2746 224.745 32.307C224.847 32.3384 224.955 32.3525 225.062 32.3487C225.45 32.3407 225.821 32.1885 226.103 31.9218C226.354 31.6751 226.558 31.386 226.707 31.0679C226.988 30.4687 227.164 29.826 227.228 29.1676C227.304 28.5284 227.334 27.8846 227.317 27.2412L226.926 27.387C227.267 27.738 227.64 28.0569 228.04 28.3397C228.437 28.623 228.86 28.8654 229.305 29.0634C229.751 29.2578 230.223 29.3842 230.706 29.4383C231.184 29.4953 231.668 29.46 232.132 29.3342C231.665 29.3968 231.189 29.381 230.727 29.2873C230.273 29.1864 229.836 29.0253 229.425 28.8083C229.01 28.598 228.619 28.3431 228.259 28.0482C227.898 27.7631 227.565 27.444 227.264 27.0954L226.895 26.6633V27.2412C226.889 27.8616 226.84 28.4809 226.749 29.0947C226.67 29.6968 226.494 30.2822 226.228 30.8284C225.968 31.349 225.536 31.802 225.047 31.802C224.557 31.802 224.364 31.1981 224.219 30.6253C224.073 30.0526 223.969 29.407 223.875 28.7875C223.781 28.1679 223.698 27.5432 223.646 26.9184C223.499 25.6726 223.546 24.4114 223.787 23.1802Z" fill="#263238"/>
<path d="M259.789 41.5745L252.323 32.2029C252.323 32.2029 259.904 24.9139 264.683 21.9671C269.463 19.0203 271.524 20.7644 268.567 27.1423C265.61 33.5201 259.789 41.5745 259.789 41.5745Z" fill="#65B8DB"/>
<path d="M254.13 31.2865C255.275 32.4319 256.322 33.6919 257.358 34.931C258.394 36.1701 259.383 37.4301 260.315 38.7421C260.315 38.7681 260.315 38.7994 260.273 38.7785C259.185 37.5706 258.139 36.3263 257.103 35.0768C256.067 33.8272 255.02 32.6089 254.083 31.3177C254.062 31.2969 254.093 31.2605 254.13 31.2865Z" fill="#263238"/>
<path opacity="0.1" d="M255.957 36.795L259.789 41.6005C259.789 41.6005 265.61 33.5514 268.567 27.1683C269.608 24.9712 270.004 23.3312 269.926 22.2378L255.957 36.795Z" fill="black"/>
<path d="M266.828 55.4497L291.876 46.3436C291.876 46.3436 281.218 26.7779 273.393 21.5298C269.832 19.1453 267.145 20.2595 265.24 22.769C264.766 23.399 259.929 36.061 260.762 39.341C261.845 43.5894 264.714 44.4537 264.714 44.4537L266.828 55.4497Z" fill="#65B8DB"/>
<path d="M272.019 20.7592L264.99 23.2582L265.11 22.9927L271.733 20.655L272.019 20.7592ZM273.982 21.9462L264.09 25.471C264.058 25.5543 264.027 25.6428 263.991 25.7313L274.164 22.0868L273.982 21.9462ZM275.736 23.4301L263.241 27.8919L263.147 28.1523L275.913 23.5914L275.736 23.4301ZM277.298 24.992L262.424 30.2869L262.345 30.542L277.444 25.1586L277.298 24.992ZM278.73 26.5956L261.736 32.6298C261.736 32.7131 261.689 32.7964 261.669 32.8797L278.85 26.7413L278.73 26.5956ZM280.078 28.2304L261.158 34.9987C261.158 35.082 261.122 35.1653 261.111 35.2434L280.214 28.423L280.078 28.2304ZM281.359 29.886L260.757 37.2375C260.757 37.3156 260.757 37.3885 260.757 37.4666L281.521 30.0578L281.359 29.886ZM282.593 31.5521L260.773 39.3617C260.773 39.4294 260.81 39.4971 260.825 39.5595L282.718 31.7499L282.593 31.5521ZM283.78 33.2389L261.445 41.21C261.481 41.2724 261.512 41.3401 261.544 41.4026L283.931 33.4212L283.78 33.2389ZM284.941 34.9414L262.554 42.9229L262.705 43.0895L285.035 35.1185L284.941 34.9414ZM286.066 36.6491L264.47 44.3599C264.552 44.3986 264.638 44.4317 264.725 44.4588V44.49L286.18 36.8314C286.134 36.7949 286.092 36.7064 286.055 36.6439L286.066 36.6491ZM287.154 38.3569L265.058 46.2394L265.1 46.4476L287.269 38.5391L287.154 38.3569ZM288.227 40.0854L265.438 48.2491L265.48 48.4573L288.341 40.3041L288.227 40.0854ZM289.268 41.8191L265.808 50.191L265.849 50.4045L289.393 42.0013C289.351 41.9545 289.315 41.892 289.278 41.8295L289.268 41.8191ZM290.309 43.5633L266.198 52.1695L266.24 52.3777L290.413 43.7507C290.377 43.6986 290.34 43.6362 290.309 43.5633ZM291.314 45.3178L266.578 54.1687L266.62 54.3822L291.418 45.5313C291.379 45.4662 291.344 45.3983 291.314 45.3282V45.3178Z" fill="white"/>
<path d="M273.034 41.1786C271.797 41.4118 270.579 41.7355 269.39 42.147C268.801 42.3605 268.228 42.6 267.661 42.8499C267.375 42.9748 267.088 43.0946 266.802 43.2039C266.502 43.3343 266.187 43.427 265.865 43.4799C265.865 43.4799 265.865 43.5267 265.865 43.5215C266.172 43.5077 266.478 43.4729 266.781 43.4174C267.072 43.3524 267.359 43.2689 267.64 43.1675C268.234 42.954 268.822 42.7197 269.416 42.5011C270.613 42.0637 271.81 41.6316 273.06 41.2827C273.117 41.2671 273.091 41.1682 273.034 41.1786Z" fill="#263238"/>
<path d="M276.215 42.0014C275.172 41.9926 274.129 42.0447 273.091 42.1576C272.571 42.2097 272.05 42.2982 271.561 42.3971C271.316 42.444 271.076 42.496 270.837 42.5533C270.597 42.6106 270.316 42.7095 270.046 42.7668C270.019 42.7668 270.046 42.8136 270.046 42.8084C270.301 42.7616 270.566 42.7616 270.816 42.7303L271.581 42.6314C272.102 42.5689 272.623 42.5117 273.143 42.444C274.185 42.3086 275.189 42.1836 276.22 42.0847C276.278 42.0587 276.267 42.0014 276.215 42.0014Z" fill="#263238"/>
<path d="M276.913 22.8833C289.502 28.3917 304.71 44.4639 301.274 48.0251C298.15 51.2739 285.352 54.8819 279.86 55.7931C278.246 56.0638 276.408 43.4591 278.136 43.1675C280.219 42.8187 285.358 41.4754 285.55 41.3765C285.956 41.1734 275.658 29.7922 272.185 25.5125C267.338 19.5512 272.191 20.8111 276.913 22.8833Z" fill="#AD6359"/>
<path d="M261.929 46.9267C261.874 47.321 261.942 47.7225 262.122 48.0771C262.303 48.4318 262.588 48.7226 262.939 48.9104C262.489 49.4134 262.229 50.0581 262.205 50.7326C262.205 51.9249 264.095 52.4247 264.095 52.4247C263.736 53.044 263.572 53.7572 263.626 54.4708C263.751 55.611 265.573 56.3868 265.573 56.3868C265.552 57.1452 265.807 57.8855 266.292 58.4694C267.64 59.9636 270.66 59.4274 272.581 59.1046C274.502 58.7818 279.657 56.0744 280.693 55.6579L278.74 43.2979C278.74 43.2979 269.707 42.2826 267.5 42.9803C265.641 43.5634 262.189 45.4273 261.929 46.9267Z" fill="#AD6359"/>
<path d="M262.996 48.6969C264.818 47.5983 266.875 47.0985 268.895 46.4842C268.937 46.4842 268.957 46.5414 268.895 46.5518C266.875 47.1402 265.006 48.1138 263.012 48.7906C263.002 48.7881 262.993 48.7828 262.986 48.7753C262.98 48.7679 262.975 48.7587 262.973 48.7488C262.972 48.7389 262.973 48.7287 262.977 48.7195C262.981 48.7103 262.988 48.7024 262.996 48.6969Z" fill="#263238"/>
<path d="M264.105 52.258C264.545 52.0474 265.011 51.8951 265.49 51.805C266.011 51.6801 266.49 51.5655 266.995 51.4562C268.005 51.2375 269.015 51.0449 270.035 50.8783C270.077 50.8783 270.103 50.9407 270.035 50.9512C269.03 51.1698 268.025 51.4041 267.031 51.6644L265.542 52.0653C265.083 52.2261 264.608 52.336 264.126 52.3933C264.111 52.3904 264.098 52.383 264.087 52.3722C264.077 52.3614 264.07 52.3477 264.068 52.3329C264.066 52.3182 264.068 52.303 264.075 52.2896C264.081 52.2762 264.092 52.2652 264.105 52.258Z" fill="#263238"/>
<path d="M265.615 56.3762C266.013 56.1898 266.442 56.0752 266.88 56.0378L268.26 55.7619C269.181 55.5692 270.103 55.3818 271.014 55.1579C271.061 55.1579 271.082 55.2204 271.014 55.2308C270.087 55.4599 269.166 55.6994 268.234 55.9233L266.864 56.2409C266.457 56.3757 266.028 56.4373 265.599 56.4231L265.615 56.3762Z" fill="#263238"/>
<path d="M290.918 30.4275L281.687 38.0757C281.687 38.0757 274.231 30.6461 271.201 25.9291C268.171 21.2121 269.863 19.1139 276.298 21.941C282.734 24.7681 290.918 30.4275 290.918 30.4275Z" fill="#65B8DB"/>
<path d="M280.646 35.9255C281.77 34.7593 283.01 33.6868 284.233 32.6247C285.457 31.5626 286.691 30.5421 287.982 29.5893C287.982 29.5893 288.039 29.5893 288.018 29.631C286.836 30.7452 285.613 31.8177 284.374 32.8746C283.135 33.9315 281.953 34.9936 280.677 35.9724C280.646 35.9932 280.646 35.9516 280.646 35.9255Z" fill="#263238"/>
<path d="M273.742 29.3966C274.45 30.0839 275.127 30.7919 275.825 31.4792C276.522 32.1664 277.168 32.9109 277.834 33.6294L279.808 35.8109L281.755 38.0132H281.687C281.921 37.8414 282.156 37.6696 282.395 37.4926C282.187 37.6956 281.973 37.8935 281.76 38.0913L281.724 38.1226L281.682 38.0861C280.943 37.4353 280.261 36.7325 279.568 36.0348C278.876 35.3371 278.209 34.6134 277.553 33.8845C276.215 32.4528 274.919 30.9585 273.742 29.3966Z" fill="#263238"/>
<path d="M277.001 33.0515C276.092 32.532 275.275 31.8672 274.58 31.0835C275.04 31.3348 275.474 31.6295 275.877 31.9634C276.283 32.2922 276.659 32.6563 277.001 33.0515Z" fill="#263238"/>
<path d="M267.474 4.51507C268.249 2.81778 271.16 -0.769447 274.893 0.901814C280.224 3.29156 278.605 14.2355 280.62 18.2184C284.264 25.4345 283.093 31.4895 278.745 31.5156C273.877 31.552 270.493 25.5698 273.086 14.855C274.705 8.16477 273.482 4.75977 272.097 4.65565C270.712 4.55152 269.603 6.0822 269.603 6.0822L267.474 4.51507Z" fill="#263238"/>
<path d="M267.812 3.90081C268.277 3.14295 268.831 2.44374 269.462 1.81824C270.102 1.16263 270.872 0.648286 271.722 0.308375C272.6 -0.035003 273.563 -0.0932898 274.476 0.141773C275.38 0.375166 276.214 0.823486 276.908 1.44858C277.585 2.08478 278.117 2.85888 278.47 3.71858C278.809 4.55614 279.051 5.42946 279.193 6.32179C279.444 8.09632 279.495 9.89337 279.344 11.6792C279.305 9.90531 279.131 8.13698 278.824 6.38948C278.648 5.53458 278.388 4.6992 278.048 3.8956C277.715 3.10723 277.22 2.39768 276.595 1.81303C275.962 1.23873 275.202 0.821413 274.377 0.594729C273.558 0.36531 272.687 0.392562 271.883 0.672823C271.062 0.962765 270.305 1.4102 269.655 1.99005C269.318 2.27655 268.998 2.58252 268.697 2.90638C268.385 3.22224 268.09 3.55371 267.812 3.90081Z" fill="#263238"/>
<path d="M273.878 11.1742C273.695 12.2519 273.393 13.3088 273.133 14.3657C272.873 15.4226 272.607 16.49 272.368 17.5312C272.128 18.5725 271.92 19.6607 271.79 20.7332C271.644 21.7992 271.602 22.8767 271.665 23.9508C271.715 25.0116 271.964 26.0535 272.399 27.0225C272.873 27.9781 273.511 28.8433 274.284 29.5789C275.055 30.3231 275.992 30.8744 277.017 31.1877C277.524 31.3444 278.049 31.4337 278.579 31.4532C278.85 31.4653 279.121 31.4566 279.391 31.4272C279.662 31.4091 279.929 31.3512 280.182 31.2554C279.677 31.4776 279.131 31.5912 278.579 31.5886C278.024 31.6077 277.469 31.5535 276.928 31.4272C276.386 31.291 275.861 31.09 275.367 30.8284C274.872 30.5641 274.411 30.2425 273.992 29.8704C273.572 29.5013 273.191 29.0915 272.852 28.6469L272.602 28.3085L272.368 27.9649C272.209 27.7309 272.068 27.4856 271.946 27.2308C271.471 26.2098 271.197 25.1067 271.139 23.982C271.069 21.7726 271.346 19.5659 271.962 17.4427C272.238 16.4014 272.56 15.3341 272.894 14.2928C273.227 13.2516 273.607 12.2259 273.878 11.1742Z" fill="#263238"/>
<path d="M267.146 4.51514C267.198 3.9945 267.666 3.39576 267.989 3.3489C268.312 3.30204 270.634 4.66092 270.764 5.31172C270.894 5.96252 269.723 6.37904 269.723 6.37904L267.146 4.51514Z" fill="#65B8DB"/>
<path d="M270.03 22.7376C269.988 23.2582 268.072 26.9027 265.745 27.1578C264.985 27.2359 264.376 23.1125 264.376 23.1125L264.261 22.8209L262.658 18.7026L267.177 14.7301L267.833 14.2095C267.833 14.2095 268.197 15.3653 268.635 16.8127L268.697 17.0209C268.728 17.0974 268.754 17.1757 268.775 17.2552L268.978 17.906C269.025 18.0726 269.072 18.2392 269.119 18.4267C269.166 18.6141 269.212 18.7755 269.265 18.9473C269.606 20.1917 269.862 21.4581 270.03 22.7376Z" fill="#AD6359"/>
<path d="M268.635 16.8127C268.387 18.0751 267.868 19.2684 267.113 20.3096C266.358 21.3509 265.384 22.215 264.261 22.8417L262.658 18.7235L267.177 14.751L267.833 14.2303C267.833 14.2303 268.197 15.3705 268.635 16.8127Z" fill="#263238"/>
<path d="M256.176 11.877C255.259 19.5773 259.768 20.9935 261.429 21.1861C262.939 21.3631 268.093 21.7744 269.796 14.2147C271.498 6.65497 268.208 3.80185 264.782 3.20311C261.356 2.60437 257.061 4.17672 256.176 11.877Z" fill="#AD6359"/>
<path d="M257.435 11.5386C257.618 11.575 257.789 11.5802 257.956 11.6011C258.14 11.6537 258.336 11.6427 258.513 11.5698C258.564 11.5369 258.603 11.4877 258.623 11.43C258.643 11.3724 258.643 11.3098 258.623 11.2522C258.567 11.1437 258.484 11.0518 258.382 10.9859C258.279 10.92 258.161 10.8826 258.039 10.8774C257.794 10.8305 257.539 10.8769 257.326 11.0075C257.28 11.041 257.244 11.0872 257.223 11.1406C257.202 11.194 257.197 11.2524 257.208 11.3086C257.22 11.3648 257.248 11.4164 257.288 11.4572C257.328 11.498 257.379 11.5263 257.435 11.5386Z" fill="#263238"/>
<path d="M262.559 11.2418C262.382 11.208 262.208 11.1628 262.038 11.1065C261.842 11.0878 261.659 11.0034 261.517 10.867C261.482 10.8187 261.463 10.7603 261.463 10.7004C261.463 10.6404 261.482 10.5821 261.517 10.5338C261.609 10.4535 261.721 10.3991 261.841 10.3762C261.961 10.3534 262.084 10.3628 262.199 10.4036C262.444 10.4543 262.662 10.591 262.814 10.7889C262.844 10.8337 262.86 10.8859 262.862 10.9397C262.864 10.9934 262.852 11.0467 262.825 11.0936C262.799 11.1405 262.76 11.1792 262.713 11.2054C262.666 11.2315 262.612 11.2442 262.559 11.2418Z" fill="#263238"/>
<path d="M261.434 13.1476C261.434 13.1476 261.476 13.1476 261.471 13.1944C261.419 13.7151 261.471 14.3346 261.908 14.5429C261.908 14.5429 261.908 14.5741 261.908 14.5689C261.325 14.4492 261.299 13.637 261.434 13.1476Z" fill="#263238"/>
<path d="M261.944 12.632C262.793 12.632 262.741 14.3293 261.944 14.3345C261.148 14.3397 261.231 12.632 261.944 12.632Z" fill="#263238"/>
<path d="M262.277 12.7308C262.418 12.8349 262.559 13.0067 262.741 13.0328C262.923 13.0588 263.11 12.887 263.261 12.7204C263.261 13.0432 263.121 13.3764 262.767 13.4128C262.413 13.4493 262.246 13.1525 262.158 12.8193C262.163 12.7776 262.215 12.6891 262.277 12.7308Z" fill="#263238"/>
<path d="M258.467 12.8455C258.467 12.8455 258.425 12.8716 258.425 12.8924C258.425 13.413 258.347 14.0274 257.863 14.1888V14.22C258.451 14.1419 258.555 13.3349 258.467 12.8455Z" fill="#263238"/>
<path d="M258.008 12.2727C257.165 12.1894 257.056 13.8867 257.837 13.9648C258.617 14.0429 258.722 12.3248 258.008 12.2727Z" fill="#263238"/>
<path d="M257.649 12.3613C257.508 12.4446 257.363 12.6008 257.201 12.6008C257.04 12.6008 256.889 12.4082 256.785 12.2208C256.785 12.2208 256.785 12.2208 256.753 12.2208C256.727 12.5436 256.811 12.8872 257.118 12.9705C257.425 13.0538 257.639 12.7831 257.727 12.4498C257.738 12.4238 257.706 12.3249 257.649 12.3613Z" fill="#263238"/>
<path d="M261.382 17.2239C261.257 17.3489 261.137 17.5207 260.945 17.5363C260.749 17.5366 260.555 17.4939 260.377 17.4113C260.341 17.4113 260.377 17.4113 260.377 17.4113C260.454 17.5151 260.557 17.596 260.677 17.6455C260.796 17.695 260.926 17.7113 261.054 17.6925C261.161 17.6618 261.256 17.6006 261.328 17.5164C261.4 17.4322 261.446 17.3287 261.46 17.2187C261.434 17.2135 261.382 17.2031 261.382 17.2239Z" fill="#263238"/>
<path d="M259.253 15.2195C259.253 15.2195 259.112 16.0005 259.091 16.3754C259.091 16.4066 259.18 16.4274 259.305 16.443C259.621 16.5144 259.951 16.4977 260.258 16.3949C260.566 16.2921 260.839 16.1071 261.049 15.8599C261.053 15.8524 261.054 15.844 261.053 15.8358C261.051 15.8275 261.048 15.8198 261.042 15.8136C261.037 15.8075 261.029 15.8031 261.021 15.8012C261.013 15.7992 261.005 15.7997 260.997 15.8026C260.509 16.1082 259.935 16.2453 259.362 16.1931C259.362 16.089 259.654 14.8655 259.596 14.8551C259.306 14.8677 259.019 14.9203 258.742 15.0113C258.998 13.3713 259.508 11.7833 259.737 10.1485C259.733 10.1381 259.727 10.129 259.718 10.1226C259.709 10.1161 259.698 10.1127 259.687 10.1127C259.676 10.1127 259.666 10.1161 259.657 10.1226C259.648 10.129 259.641 10.1381 259.638 10.1485C259.036 11.8368 258.603 13.5809 258.347 15.3549C258.326 15.5215 259.102 15.2768 259.253 15.2195Z" fill="#263238"/>
<path d="M259.362 16.3025C259.566 16.6137 259.845 16.8681 260.174 17.0418C260.358 17.1262 260.562 17.1551 260.762 17.1251C261.2 17.047 261.236 16.6566 261.184 16.3129C261.155 16.134 261.104 15.9592 261.033 15.7923C260.545 16.1359 259.959 16.3146 259.362 16.3025Z" fill="#263238"/>
<path d="M260.174 17.0418C260.358 17.1261 260.562 17.155 260.763 17.1251C261.2 17.047 261.236 16.6565 261.184 16.3129C260.958 16.3031 260.736 16.3697 260.553 16.5019C260.369 16.6342 260.236 16.8244 260.174 17.0418Z" fill="#FF99BA"/>
<path d="M269.056 14.5428C267.151 14.4126 266.802 8.53976 266.766 7.82128C266.766 8.27423 266.766 10.6848 266.563 10.7733C266.359 10.7653 266.158 10.7212 265.969 10.6432C265.976 10.3544 265.962 10.0656 265.927 9.77889C265.927 9.64352 265.865 10.0652 265.776 10.5859L265.428 10.4713C265.469 9.85612 265.428 9.23819 265.308 8.63348C265.261 8.4096 265.167 9.43006 264.917 10.3151C263.31 9.78654 261.65 9.43733 259.966 9.27386C259.492 9.23742 259.081 9.23222 258.716 9.23742C258.716 8.52414 258.847 7.76921 258.789 7.93061C258.632 8.35564 258.517 8.79509 258.446 9.24263H257.925C257.925 8.23779 258.446 6.63941 258.274 6.88932C257.777 7.63064 257.423 8.45902 257.233 9.33113C256.545 9.44047 256.353 9.56542 256.337 9.38841C256.613 7.4166 257.58 5.60671 259.065 4.28091C261.518 2.12545 266.287 1.72456 268.843 5.26492C268.843 5.26492 270.998 6.77999 271.264 9.10726C271.529 11.4345 270.155 14.6156 269.056 14.5428Z" fill="#263238"/>
<path d="M267.984 14.4594C267.984 14.4594 269.754 12.0957 270.832 12.7309C271.91 13.366 270.53 16.8335 269.223 17.2761C269.06 17.3437 268.884 17.3777 268.707 17.3759C268.531 17.374 268.356 17.3365 268.194 17.2655C268.032 17.1945 267.886 17.0915 267.765 16.9627C267.644 16.8339 267.55 16.6819 267.489 16.5159L267.984 14.4594Z" fill="#AD6359"/>
<path d="M270.41 13.7149C270.41 13.7149 270.41 13.7409 270.41 13.7514C269.99 13.944 269.614 14.223 269.308 14.5701C269.002 14.9172 268.773 15.3247 268.635 15.7662C268.69 15.6777 268.764 15.6022 268.852 15.545C268.939 15.4878 269.038 15.4502 269.142 15.4349C269.245 15.4196 269.351 15.4268 269.451 15.4562C269.551 15.4855 269.644 15.5362 269.723 15.6048C269.723 15.6048 269.723 15.6569 269.723 15.6517C269.566 15.5949 269.395 15.589 269.234 15.6348C269.073 15.6806 268.931 15.7757 268.827 15.9068C268.654 16.1245 268.504 16.3602 268.38 16.6097C268.333 16.6878 268.192 16.6409 268.223 16.5472C268.223 15.3758 269.192 13.793 270.41 13.7149Z" fill="#263238"/>
</svg>
