<svg width="478" height="478" viewBox="0 0 478 478" fill="none" xmlns="http://www.w3.org/2000/svg">
<path d="M0.75783 63.9968C0.75783 63.9968 -5.32699 120.753 16.9872 194.734C16.9872 194.734 43.3612 273.786 60.6055 296.082C60.6055 296.082 196.525 152.166 382.144 267.706C382.144 267.706 331.936 364.493 238.619 426.314C238.619 426.314 168.631 376.652 144.287 340.169C144.287 340.169 195.005 308.751 242.679 312.802C242.679 312.802 207.175 347.263 225.434 396.92C225.434 396.92 315.711 297.601 318.751 284.422C318.751 284.422 190.946 224.629 85.4547 335.098C85.4547 335.098 135.158 417.192 237.604 478C237.604 478 380.624 401.99 437.427 254.018C437.427 254.018 280.207 101.994 75.3149 226.652C75.3149 226.652 45.9009 158.75 44.886 91.8581C44.886 91.8581 125.018 38.1444 268.038 46.2524C268.038 46.2524 352.225 49.2947 431.342 90.844C431.342 90.844 429.312 129.356 426.272 137.464C426.272 137.464 330.925 80.7078 209.205 89.8299C209.205 89.8299 109.804 93.8815 92.5592 166.854C92.5592 166.854 180.806 115.168 306.581 140.501C306.581 140.501 387.728 154.689 453.656 210.431C453.656 210.431 478 145.567 478 64.487C478 64.487 364.394 -7.47089 222.39 0.637114C222.39 0.656339 85.4547 4.70793 0.75783 63.9968Z" fill="url(#paint0_linear_172_3)"/>
<defs>
<linearGradient id="paint0_linear_172_3" x1="-9.80979" y1="10.9677" x2="453.423" y2="340.746" gradientUnits="userSpaceOnUse">
<stop stop-color="#31D8FF"/>
<stop offset="0.1611" stop-color="#2CCDF9"/>
<stop offset="0.4458" stop-color="#20AFEA"/>
<stop offset="0.8181" stop-color="#0B7FD1"/>
<stop offset="1" stop-color="#0065C3"/>
</linearGradient>
</defs>
</svg>
