<svg width="321" height="291" viewBox="0 0 321 291" fill="none" xmlns="http://www.w3.org/2000/svg">
<path d="M63.9399 263.729C122.337 299.013 217.009 299.013 275.399 263.729C333.788 228.445 333.788 171.228 275.399 135.944C217.009 100.659 122.337 100.659 63.9399 135.944C5.54311 171.228 5.55034 228.438 63.9399 263.729Z" fill="#F0F0F0"/>
<path d="M280.848 223.785C286.188 227.013 294.843 227.013 300.183 223.785C305.524 220.558 305.516 215.333 300.183 212.106C294.85 208.878 286.188 208.878 280.848 212.106C275.507 215.333 275.515 220.543 280.848 223.785Z" fill="#E0E0E0"/>
<path d="M39.5106 181.236C39.5106 181.236 38.2804 170.381 32.8894 161.994C27.4984 153.607 20.0956 148.339 13.185 147.804C6.27434 147.269 0.695159 153.593 8.11959 157.985C15.544 162.378 28.6489 166.799 34.6912 183.132L39.5106 181.236Z" fill="#65B8DB"/>
<path d="M39.5106 181.236C39.5106 181.236 38.2804 170.381 32.8894 161.994C27.4984 153.607 20.0956 148.339 13.185 147.804C6.27434 147.269 0.695159 153.593 8.11959 157.985C15.544 162.378 28.6489 166.799 34.6912 183.132L39.5106 181.236Z" fill="#263238"/>
<path d="M37.4843 178.421C37.5078 178.428 37.5331 178.428 37.5566 178.421C37.6017 178.403 37.6429 178.377 37.6776 178.343C37.7123 178.31 37.7399 178.269 37.7588 178.225C37.7777 178.18 37.7875 178.132 37.7876 178.084C37.7876 178.036 37.778 177.988 37.7593 177.943C30.4723 159.99 16.5931 152.486 10.2614 151.032C10.2138 151.021 10.1647 151.02 10.1167 151.028C10.0687 151.037 10.0229 151.054 9.98189 151.081C9.94086 151.107 9.90543 151.141 9.87763 151.181C9.84984 151.221 9.83023 151.266 9.81995 151.314C9.80016 151.409 9.8177 151.507 9.86892 151.59C9.92013 151.672 10.0011 151.731 10.0949 151.755C16.2892 153.202 29.8934 160.547 37.0718 178.218C37.1064 178.295 37.1665 178.356 37.2417 178.393C37.317 178.43 37.4027 178.44 37.4843 178.421Z" fill="white"/>
<path d="M0.579245 178.638C1.20157 180.049 2.75013 180.809 4.19739 181.359C5.64464 181.908 7.18597 182.553 7.96025 183.884C9.51606 186.583 6.96165 190.397 8.63323 192.987C9.02417 193.512 9.51756 193.952 10.0835 194.28C10.6495 194.609 11.2762 194.819 11.9257 194.898C12.998 195.052 14.0778 195.148 15.1604 195.187C15.6761 195.182 16.1909 195.143 16.7017 195.071C18.1989 194.735 19.7653 194.9 21.1592 195.542C23.3301 196.75 23.9597 199.449 25.255 201.533C26.0614 202.766 27.1262 203.81 28.3757 204.591C29.6251 205.371 31.0294 205.872 32.4913 206.056C33.4537 206.186 35.2411 206.36 36.2179 205.81C36.2883 205.774 36.356 205.733 36.4206 205.687C36.5581 205.535 36.7245 205.34 36.7968 205.238C36.8116 205.218 36.8238 205.196 36.833 205.173C37.2166 203.777 36.5942 202.322 36.5725 200.882C36.5653 200.795 36.5653 200.708 36.5725 200.622C36.6304 198.943 36.6811 197.278 36.7172 195.6C36.7944 192.527 36.8258 189.446 36.8113 186.359C36.8113 184.354 37.0284 182.169 36.1818 180.28C35.2483 178.211 32.911 178.16 32.0354 176.127C31.6808 175.316 31.4927 174.448 31.1525 173.63C30.6218 172.429 29.7717 171.397 28.6948 170.645C27.618 169.894 26.3556 169.452 25.0451 169.368C20.9783 169.158 17.324 172.458 13.2572 172.154C12.2099 172.014 11.1711 171.815 10.1456 171.561C6.84587 170.946 3.03958 171.886 1.18709 174.672C0.769802 175.233 0.496235 175.888 0.390278 176.579C0.284322 177.271 0.3492 177.977 0.579245 178.638Z" fill="#37474F"/>
<path d="M37.1662 198.74C37.2102 198.729 37.2515 198.71 37.2878 198.682C37.3241 198.655 37.3546 198.621 37.3776 198.582C37.4005 198.543 37.4154 198.5 37.4213 198.455C37.4273 198.41 37.4242 198.364 37.4122 198.32C31.7969 177.212 9.56701 174.166 4.36412 174.578C4.31877 174.581 4.27442 174.593 4.2337 174.613C4.19298 174.633 4.15671 174.661 4.12703 174.696C4.09735 174.73 4.07486 174.77 4.0609 174.813C4.04693 174.856 4.04177 174.902 4.04572 174.947C4.05312 175.038 4.09597 175.122 4.16502 175.182C4.23407 175.242 4.32377 175.272 4.41477 175.266C9.48017 174.904 31.2469 177.885 36.7465 198.523C36.7762 198.606 36.8359 198.674 36.9137 198.714C36.9916 198.754 37.0818 198.764 37.1662 198.74Z" fill="white"/>
<path d="M12.447 188.052C12.5168 188.039 12.5803 188.003 12.6279 187.951C14.6832 186.174 17.1041 184.872 19.719 184.135C22.3338 183.399 25.0787 183.246 27.759 183.689C27.8067 183.703 27.8569 183.707 27.9062 183.7C27.9555 183.693 28.0027 183.676 28.0447 183.649C28.0866 183.622 28.1224 183.587 28.1495 183.545C28.1766 183.503 28.1944 183.456 28.2018 183.407C28.2091 183.358 28.2058 183.308 28.192 183.26C28.1782 183.212 28.1543 183.168 28.122 183.13C28.0896 183.092 28.0495 183.062 28.0043 183.041C27.9592 183.02 27.9101 183.009 27.8603 183.008C25.0728 182.547 22.2178 182.708 19.4994 183.478C16.7811 184.249 14.2666 185.61 12.1359 187.466C12.0722 187.532 12.0366 187.62 12.0366 187.712C12.0366 187.804 12.0722 187.892 12.1359 187.958C12.1758 187.999 12.2251 188.028 12.2795 188.045C12.3338 188.061 12.3914 188.064 12.447 188.052Z" fill="white"/>
<path d="M214.889 0.502032L254.884 23.6003C255.273 23.854 255.597 24.1959 255.83 24.5982C256.062 25.0005 256.197 25.4519 256.223 25.9159V135.864C256.197 136.328 256.062 136.779 255.83 137.182C255.597 137.584 255.273 137.926 254.884 138.18L214.889 161.278C214.474 161.488 214.015 161.598 213.55 161.598C213.085 161.598 212.626 161.488 212.212 161.278L172.217 138.18C171.827 137.927 171.502 137.585 171.269 137.183C171.037 136.78 170.902 136.328 170.878 135.864V25.9159C170.904 25.4519 171.038 25.0005 171.271 24.5982C171.503 24.1959 171.827 23.854 172.217 23.6003L212.212 0.502032C212.627 0.294926 213.086 0.187134 213.55 0.187134C214.015 0.187134 214.473 0.294926 214.889 0.502032Z" fill="#37474F"/>
<path d="M170.878 25.9158V135.864C170.903 136.327 171.037 136.778 171.268 137.18C171.5 137.582 171.822 137.925 172.209 138.18L212.212 161.278C212.623 161.498 213.084 161.608 213.55 161.596V48.5509C213.084 48.559 212.624 48.4495 212.212 48.2325L172.209 25.1416L171.848 24.8376L171.37 24.4396C171.069 24.875 170.898 25.387 170.878 25.9158Z" fill="#263238"/>
<path d="M249.862 36.7344L219.904 54.0291C219.514 54.284 219.189 54.6271 218.957 55.0307C218.724 55.4342 218.59 55.8869 218.565 56.3519V67.7491C218.565 68.603 219.158 68.9503 219.896 68.5234L249.855 51.2287C250.244 50.9749 250.568 50.633 250.8 50.2307C251.033 49.8284 251.168 49.377 251.193 48.913V37.5087C251.2 36.6548 250.636 36.3074 249.862 36.7344Z" fill="#455A64"/>
<path d="M248.69 41.7636C248.655 42.2125 248.515 42.647 248.283 43.0327C248.051 43.4183 247.731 43.7444 247.351 43.9851L222.415 58.3781C221.691 58.805 221.076 58.5011 221.076 57.7051C221.111 57.2562 221.25 56.8216 221.483 56.436C221.715 56.0503 222.034 55.7242 222.415 55.4835L247.351 41.0833C248.089 40.6564 248.69 40.9603 248.69 41.7636Z" fill="#65B8DB"/>
<path d="M248.69 47.5597C248.655 48.0086 248.515 48.4432 248.283 48.8288C248.051 49.2145 247.731 49.5406 247.351 49.7813L222.415 64.1742C221.691 64.6012 221.076 64.2973 221.076 63.5013C221.111 63.0524 221.25 62.6178 221.483 62.2322C221.715 61.8465 222.034 61.5204 222.415 61.2797L247.351 46.8795C248.089 46.4526 248.69 46.7565 248.69 47.5597Z" fill="#263238"/>
<path d="M247.351 46.8795L233.602 54.8394V57.7339L247.351 49.774C247.732 49.5333 248.051 49.2072 248.283 48.8216C248.516 48.4359 248.655 48.0014 248.69 47.5525C248.69 46.7565 248.089 46.4525 247.351 46.8795Z" fill="#65B8DB"/>
<path d="M249.862 57.0248L219.904 74.3195C219.515 74.5737 219.191 74.9157 218.958 75.3179C218.726 75.7201 218.591 76.1713 218.565 76.6351V88.0395C218.565 88.8934 219.158 89.2407 219.896 88.8138L249.855 71.5191C250.244 71.2653 250.568 70.9234 250.8 70.5211C251.033 70.1188 251.168 69.6674 251.193 69.2035V57.7991C251.2 56.9452 250.636 56.6268 249.862 57.0248Z" fill="#455A64"/>
<path d="M248.69 62.0467C248.656 62.4969 248.517 62.9329 248.285 63.3199C248.052 63.7068 247.732 64.0341 247.351 64.2755L222.415 78.6684C221.691 79.0954 221.076 78.7915 221.076 77.9955C221.11 77.5453 221.249 77.1093 221.481 76.7223C221.713 76.3353 222.033 76.0081 222.415 75.7667L247.351 61.3737C248.089 60.9685 248.69 61.2507 248.69 62.0467Z" fill="#65B8DB"/>
<path d="M248.69 67.8503C248.655 68.2992 248.515 68.7337 248.283 69.1194C248.051 69.505 247.731 69.8312 247.351 70.0718L222.415 84.4648C221.691 84.8917 221.076 84.5878 221.076 83.7918C221.111 83.3429 221.25 82.9084 221.483 82.5227C221.715 82.1371 222.034 81.8109 222.415 81.5703L247.351 67.1701C248.089 66.7576 248.69 67.0471 248.69 67.8503Z" fill="#263238"/>
<path d="M247.351 67.1702L226.098 79.4719V82.3664L247.351 70.1009C247.732 69.8602 248.051 69.5341 248.283 69.1484C248.516 68.7628 248.655 68.3282 248.69 67.8793C248.69 67.0471 248.089 66.7577 247.351 67.1702Z" fill="#65B8DB"/>
<path d="M249.862 77.3154L219.904 94.6101C219.514 94.8639 219.19 95.2058 218.958 95.608C218.725 96.0103 218.591 96.4617 218.565 96.9257V108.33C218.565 109.184 219.158 109.531 219.896 109.104L249.855 91.8096C250.244 91.5547 250.569 91.2116 250.801 90.8081C251.034 90.4045 251.168 89.9519 251.193 89.4868V78.0897C251.2 77.2358 250.636 76.8884 249.862 77.3154Z" fill="#455A64"/>
<path d="M248.69 82.3372C248.655 82.7861 248.515 83.2206 248.283 83.6063C248.051 83.9919 247.731 84.3181 247.351 84.5587L222.415 98.9589C221.691 99.3859 221.076 99.0819 221.076 98.2787C221.111 97.8298 221.25 97.3953 221.483 97.0096C221.715 96.6239 222.034 96.2978 222.415 96.0572L247.351 81.6642C248.089 81.23 248.69 81.5412 248.69 82.3372Z" fill="#65B8DB"/>
<path d="M248.69 88.1337C248.655 88.5826 248.515 89.0172 248.283 89.4028C248.051 89.7885 247.731 90.1146 247.351 90.3553L222.415 104.755C221.691 105.182 221.076 104.878 221.076 104.075C221.111 103.626 221.25 103.192 221.483 102.806C221.715 102.42 222.034 102.094 222.415 101.854L247.351 87.4607C248.089 87.0193 248.69 87.3377 248.69 88.1337Z" fill="#263238"/>
<path d="M247.351 87.4605L238.668 92.4824V95.377L247.351 90.3477C247.732 90.1071 248.051 89.781 248.283 89.3953C248.516 89.0097 248.655 88.5751 248.69 88.1262C248.69 87.3374 248.089 87.0191 247.351 87.4605Z" fill="#65B8DB"/>
<path d="M249.862 97.606L219.904 114.901C219.514 115.154 219.19 115.496 218.958 115.899C218.725 116.301 218.591 116.752 218.565 117.216V128.621C218.565 129.475 219.158 129.822 219.896 129.395L249.855 112.1C250.244 111.845 250.569 111.502 250.801 111.099C251.034 110.695 251.168 110.242 251.193 109.777V98.3802C251.2 97.5264 250.636 97.1501 249.862 97.606Z" fill="#455A64"/>
<path d="M248.69 102.628C248.655 103.077 248.515 103.511 248.283 103.897C248.051 104.283 247.731 104.609 247.351 104.849L222.415 119.25C221.691 119.677 221.076 119.373 221.076 118.569C221.111 118.12 221.25 117.686 221.483 117.3C221.715 116.915 222.034 116.589 222.415 116.348L247.351 101.955C248.089 101.528 248.69 101.832 248.69 102.628Z" fill="#65B8DB"/>
<path d="M248.69 108.424C248.655 108.873 248.515 109.308 248.283 109.693C248.051 110.079 247.731 110.405 247.351 110.646L222.415 125.046C221.691 125.473 221.076 125.169 221.076 124.366C221.111 123.917 221.25 123.482 221.483 123.096C221.715 122.711 222.034 122.385 222.415 122.144L247.351 107.751C248.089 107.324 248.69 107.628 248.69 108.424Z" fill="#263238"/>
<path d="M247.351 107.751L233.602 115.675V118.569L247.351 110.646C247.732 110.405 248.051 110.079 248.283 109.693C248.516 109.308 248.655 108.873 248.69 108.424C248.69 107.628 248.089 107.324 247.351 107.751Z" fill="#65B8DB"/>
<path d="M249.862 117.896L219.904 135.191C219.514 135.445 219.19 135.787 218.958 136.189C218.725 136.591 218.591 137.043 218.565 137.507V148.911C218.565 149.765 219.158 150.105 219.896 149.678L249.855 132.383C250.244 132.13 250.568 131.788 250.8 131.386C251.033 130.983 251.168 130.532 251.193 130.068V118.663C251.2 117.81 250.636 117.47 249.862 117.896Z" fill="#455A64"/>
<path d="M248.69 122.919C248.655 123.367 248.515 123.802 248.283 124.188C248.051 124.573 247.731 124.899 247.351 125.14L222.415 139.54C221.691 139.96 221.076 139.663 221.076 138.86C221.111 138.411 221.25 137.977 221.483 137.591C221.715 137.205 222.034 136.879 222.415 136.639L247.351 122.238C248.089 121.819 248.69 122.115 248.69 122.919Z" fill="#65B8DB"/>
<path d="M248.69 128.715C248.655 129.164 248.515 129.598 248.283 129.984C248.051 130.37 247.731 130.696 247.351 130.936L222.415 145.337C221.691 145.764 221.076 145.46 221.076 144.656C221.111 144.208 221.25 143.773 221.483 143.387C221.715 143.002 222.034 142.676 222.415 142.435L247.351 128.042C248.089 127.615 248.69 127.912 248.69 128.715Z" fill="#263238"/>
<path d="M247.351 128.042L228.609 138.86V141.754L247.351 130.9C247.732 130.659 248.051 130.333 248.283 129.948C248.516 129.562 248.655 129.127 248.69 128.678C248.69 127.911 248.089 127.615 247.351 128.042Z" fill="#65B8DB"/>
<path d="M207.277 55.5342C205.887 54.7309 204.766 55.4618 204.766 57.1695V123.461C204.801 124.362 205.047 125.242 205.483 126.031C205.919 126.82 206.533 127.496 207.277 128.006C208.659 128.809 209.78 128.078 209.78 126.37V60.0785C209.745 59.1785 209.501 58.299 209.066 57.5101C208.631 56.7212 208.019 56.0446 207.277 55.5342Z" fill="#37474F"/>
<path d="M207.277 126.536C206.904 126.282 206.596 125.944 206.378 125.55C206.159 125.155 206.036 124.715 206.017 124.264V57.7918C206.017 56.9379 206.582 56.5689 207.277 56.9741C207.647 57.2286 207.952 57.5658 208.17 57.9589C208.387 58.352 208.51 58.7903 208.528 59.2391V125.719C208.528 126.565 207.942 126.934 207.277 126.536Z" fill="#263238"/>
<path d="M207.277 126.537C206.904 126.282 206.596 125.944 206.378 125.55C206.159 125.155 206.036 124.715 206.017 124.264V92.4827L208.528 93.9299V125.712C208.528 126.566 207.942 126.935 207.277 126.537Z" fill="#65B8DB"/>
<path d="M199.744 51.1853C198.354 50.382 197.233 51.1129 197.233 52.8207V119.112C197.265 120.014 197.509 120.895 197.946 121.684C198.382 122.474 198.998 123.149 199.744 123.657C201.126 124.46 202.255 123.729 202.255 122.021V55.7297C202.219 54.829 201.973 53.9491 201.537 53.1602C201.101 52.3712 200.487 51.695 199.744 51.1853Z" fill="#37474F"/>
<path d="M199.743 122.188C199.371 121.933 199.063 121.595 198.845 121.201C198.626 120.806 198.503 120.366 198.484 119.915V53.4428C198.484 52.5889 199.049 52.2271 199.743 52.6251C200.114 52.8804 200.421 53.2187 200.638 53.6131C200.855 54.0076 200.978 54.4473 200.995 54.8973V121.37C200.995 122.224 200.438 122.586 199.743 122.188Z" fill="#65B8DB"/>
<path d="M192.211 46.8432C190.828 46.0327 189.7 46.7708 189.7 48.4714V114.763C189.735 115.664 189.981 116.543 190.417 117.332C190.853 118.121 191.467 118.798 192.211 119.307C193.6 120.111 194.722 119.38 194.722 117.672V51.3876C194.689 50.4862 194.445 49.6051 194.009 48.8156C193.572 48.0261 192.956 47.3504 192.211 46.8432Z" fill="#37474F"/>
<path d="M192.21 117.839C191.838 117.587 191.53 117.25 191.313 116.856C191.095 116.463 190.974 116.023 190.958 115.574V49.0939C190.958 48.2473 191.516 47.8782 192.21 48.2762C192.583 48.5307 192.891 48.8686 193.109 49.2631C193.328 49.6576 193.451 50.0978 193.469 50.5484V117.021C193.469 117.875 192.905 118.244 192.21 117.839Z" fill="#263238"/>
<path d="M192.21 117.839C191.838 117.587 191.53 117.25 191.313 116.856C191.095 116.463 190.974 116.023 190.958 115.574V64.196L193.469 65.6432V117.021C193.469 117.875 192.905 118.244 192.21 117.839Z" fill="#65B8DB"/>
<path d="M184.685 42.4943C183.295 41.6911 182.174 42.4219 182.174 44.1297V110.414C182.206 111.315 182.45 112.197 182.887 112.986C183.323 113.776 183.939 114.451 184.685 114.958C186.067 115.762 187.189 115.031 187.189 113.323V47.0387C187.154 46.1386 186.909 45.2592 186.474 44.4703C186.04 43.6814 185.427 43.0048 184.685 42.4943Z" fill="#37474F"/>
<path d="M184.685 113.49C184.313 113.236 184.006 112.899 183.788 112.506C183.569 112.113 183.445 111.674 183.426 111.225V44.7521C183.426 43.8982 183.99 43.5292 184.685 43.9272C185.056 44.1824 185.362 44.5207 185.58 44.9152C185.797 45.3096 185.919 45.7493 185.937 46.1994V112.672C185.937 113.526 185.372 113.895 184.685 113.49Z" fill="#263238"/>
<path d="M184.685 113.489C184.313 113.236 184.006 112.899 183.788 112.506C183.569 112.113 183.445 111.674 183.426 111.225V100.001L185.937 101.448V112.665C185.937 113.526 185.372 113.895 184.685 113.489Z" fill="#65B8DB"/>
<path d="M177.152 38.1454C175.762 37.3422 174.641 38.073 174.641 39.7808V106.065C174.673 106.967 174.917 107.848 175.354 108.637C175.79 109.427 176.406 110.102 177.152 110.61C178.534 111.42 179.663 110.682 179.663 108.981V42.6898C179.627 41.7891 179.381 40.9093 178.945 40.1203C178.509 39.3313 177.895 38.6551 177.152 38.1454Z" fill="#37474F"/>
<path d="M177.152 109.148C176.779 108.893 176.472 108.555 176.253 108.161C176.034 107.766 175.911 107.326 175.893 106.876V40.403C175.893 39.5491 176.457 39.1801 177.152 39.5853C177.524 39.8374 177.832 40.1739 178.049 40.5676C178.267 40.9612 178.388 41.4008 178.404 41.8503V108.323C178.404 109.177 177.846 109.546 177.152 109.148Z" fill="#263238"/>
<path d="M177.152 109.148C176.779 108.893 176.472 108.555 176.253 108.161C176.034 107.766 175.911 107.326 175.893 106.875V72.1918L178.404 73.6391V108.315C178.404 109.176 177.846 109.546 177.152 109.148Z" fill="#65B8DB"/>
<path d="M208.709 136.067L175.712 117.014C175.118 116.673 174.641 116.948 174.641 117.636V129.655C174.66 130.027 174.768 130.388 174.954 130.71C175.14 131.032 175.4 131.305 175.712 131.508L208.709 150.561C209.302 150.901 209.78 150.626 209.78 149.946V137.919C209.76 137.548 209.653 137.186 209.467 136.865C209.281 136.543 209.021 136.269 208.709 136.067Z" fill="#37474F"/>
<path d="M207.356 139.634C207.356 140.43 206.756 140.734 206.017 140.307L178.404 124.387C178.023 124.147 177.704 123.821 177.472 123.435C177.239 123.049 177.1 122.615 177.065 122.166C177.065 121.363 177.666 121.059 178.404 121.486L206.017 137.405C206.399 137.647 206.719 137.974 206.951 138.361C207.184 138.748 207.322 139.184 207.356 139.634Z" fill="#263238"/>
<path d="M207.356 139.634C207.356 140.43 206.755 140.734 206.017 140.307L185.936 128.729V125.835L206.017 137.413C206.398 137.653 206.717 137.979 206.949 138.365C207.182 138.751 207.321 139.185 207.356 139.634Z" fill="#65B8DB"/>
<path d="M207.356 145.43C207.356 146.226 206.756 146.53 206.017 146.103L178.404 130.184C178.023 129.943 177.704 129.617 177.472 129.231C177.239 128.845 177.1 128.411 177.065 127.962C177.065 127.159 177.666 126.855 178.404 127.282L206.017 143.202C206.399 143.443 206.719 143.77 206.951 144.157C207.184 144.544 207.322 144.98 207.356 145.43Z" fill="#263238"/>
<path d="M207.356 145.43C207.356 146.226 206.755 146.53 206.017 146.103L198.484 141.762V138.867L206.017 143.209C206.398 143.45 206.717 143.776 206.949 144.161C207.182 144.547 207.321 144.982 207.356 145.43Z" fill="#65B8DB"/>
<path d="M172.216 23.6003L212.211 0.502032C212.627 0.294926 213.086 0.187134 213.55 0.187134C214.015 0.187134 214.473 0.294926 214.889 0.502032L254.884 23.6003C255.046 23.6532 255.188 23.7563 255.289 23.8947C255.389 24.0331 255.443 24.1998 255.443 24.3709C255.443 24.542 255.389 24.7087 255.289 24.8471C255.188 24.9856 255.046 25.0886 254.884 25.1416L214.889 48.2326C214.474 48.443 214.015 48.5526 213.55 48.5526C213.085 48.5526 212.626 48.443 212.211 48.2326L172.216 25.1416C172.054 25.0886 171.912 24.9856 171.812 24.8471C171.711 24.7087 171.657 24.542 171.657 24.3709C171.657 24.1998 171.711 24.0331 171.812 23.8947C171.912 23.7563 172.054 23.6532 172.216 23.6003Z" fill="#455A64"/>
<path d="M214.354 42.7475L245.376 24.8305C245.61 24.6797 245.806 24.4749 245.946 24.2332C246.085 23.9916 246.165 23.72 246.179 23.4411V22.3991C246.165 22.1203 246.085 21.8487 245.946 21.607C245.806 21.3653 245.61 21.1605 245.376 21.0097L214.354 3.07822C214.104 2.95341 213.829 2.88843 213.55 2.88843C213.271 2.88843 212.996 2.95341 212.747 3.07822L181.718 21.0097C181.484 21.1618 181.29 21.3669 181.15 21.6083C181.011 21.8497 180.93 22.1207 180.915 22.3991V23.4411C180.93 23.7196 181.011 23.9905 181.15 24.2319C181.29 24.4733 181.484 24.6784 181.718 24.8305L212.747 42.7475C212.996 42.8723 213.271 42.9373 213.55 42.9373C213.829 42.9373 214.104 42.8723 214.354 42.7475Z" fill="#263238"/>
<path d="M245.375 21.9358L214.354 39.8457C214.105 39.9738 213.83 40.0407 213.55 40.0407C213.271 40.0407 212.995 39.9738 212.747 39.8457L181.718 21.9358C181.622 21.9016 181.54 21.8387 181.482 21.7558C181.423 21.673 181.392 21.5741 181.392 21.4727C181.392 21.3714 181.423 21.2725 181.482 21.1896C181.54 21.1067 181.622 21.0439 181.718 21.0096L212.747 3.71488C212.995 3.58669 213.271 3.51981 213.55 3.51981C213.83 3.51981 214.105 3.58669 214.354 3.71488L245.375 21.0096C245.474 21.0402 245.561 21.1017 245.622 21.1851C245.684 21.2684 245.717 21.3692 245.717 21.4727C245.717 21.5763 245.684 21.6771 245.622 21.7604C245.561 21.8437 245.474 21.9052 245.375 21.9358Z" fill="#455A64"/>
<path d="M213.55 40.0411V42.9356C213.83 42.9429 214.106 42.8781 214.354 42.7475L245.375 24.8304C245.61 24.6796 245.806 24.4749 245.946 24.2332C246.085 23.9915 246.165 23.7199 246.179 23.4411V22.3991C246.166 22.1508 246.102 21.9079 245.989 21.6861C245.877 21.4642 245.72 21.2683 245.527 21.111C245.817 21.3643 245.766 21.7116 245.375 21.9359L214.354 39.8457C214.107 39.9789 213.83 40.0462 213.55 40.0411Z" fill="#37474F"/>
<path d="M214.353 34.0494L235.339 21.9359C235.576 21.7862 235.775 21.5822 235.919 21.3407C236.062 21.0991 236.146 20.8269 236.164 20.5465V19.4973C236.147 19.2192 236.065 18.9489 235.926 18.7078C235.786 18.4667 235.593 18.2613 235.36 18.1079L221.879 10.3144C221.363 9.99094 220.906 9.58234 220.526 9.10597L214.1 0.422428C213.946 0.220679 213.725 0.0811275 213.476 0.029305C213.228 -0.0225174 212.969 0.016851 212.747 0.140211L191.762 12.2538C191.528 12.4054 191.333 12.6104 191.193 12.8519C191.054 13.0934 190.973 13.3645 190.958 13.6431V20.4886C190.974 20.7671 191.054 21.038 191.194 21.2794C191.333 21.5208 191.528 21.7259 191.762 21.878L212.747 33.9916C212.991 34.1288 213.264 34.2056 213.543 34.2157C213.823 34.2258 214.1 34.1688 214.353 34.0494Z" fill="#263238"/>
<path d="M212.747 31.1551L199.259 23.3833C199.002 23.2323 198.76 23.0579 198.535 22.8623C198.294 22.6442 198.075 22.4017 197.884 22.1387L191.458 13.4552C191.385 13.3628 191.333 13.2555 191.306 13.1408C191.279 13.0261 191.277 12.9069 191.301 12.7916C191.326 12.6763 191.375 12.5677 191.446 12.4735C191.516 12.3793 191.607 12.3019 191.711 12.2467L212.696 0.133163C212.918 0.00980361 213.177 -0.0295675 213.426 0.0222549C213.674 0.0740774 213.896 0.213629 214.05 0.415378L220.475 9.09892C220.813 9.58683 221.234 10.0107 221.72 10.3508L235.288 18.0719C235.384 18.1062 235.466 18.169 235.524 18.2519C235.583 18.3348 235.614 18.4337 235.614 18.535C235.614 18.6364 235.583 18.7353 235.524 18.8182C235.466 18.901 235.384 18.9639 235.288 18.9982L214.303 31.1189C214.063 31.2414 213.798 31.3082 213.529 31.3144C213.26 31.3207 212.993 31.2663 212.747 31.1551Z" fill="#455A64"/>
<path d="M191.762 12.3117L212.747 0.198135C212.969 0.0747755 213.228 0.0354044 213.476 0.0872268C213.725 0.139049 213.946 0.2786 214.1 0.48035L220.526 9.1639C220.722 9.41198 220.943 9.63984 221.185 9.8441C221.185 9.8441 198.6 22.8694 198.593 22.8694C198.347 22.6533 198.127 22.4106 197.934 22.1458L191.509 13.4622C191.446 13.3714 191.402 13.2685 191.381 13.16C191.359 13.0514 191.36 12.9397 191.384 12.8317C191.408 12.7237 191.454 12.6217 191.519 12.5322C191.584 12.4428 191.667 12.3677 191.762 12.3117Z" fill="#37474F"/>
<path d="M230.245 18.3251C229.954 18.1753 229.631 18.0971 229.304 18.0971C228.977 18.0971 228.654 18.1753 228.363 18.3251C227.842 18.6217 227.842 19.1066 228.363 19.4105C228.655 19.5569 228.977 19.6332 229.304 19.6332C229.631 19.6332 229.953 19.5569 230.245 19.4105C230.766 19.1066 230.766 18.6217 230.245 18.3251Z" fill="#65B8DB"/>
<path d="M226.482 20.4961C226.19 20.3497 225.868 20.2734 225.541 20.2734C225.214 20.2734 224.892 20.3497 224.6 20.4961C224.079 20.8 224.079 21.2849 224.6 21.5815C224.891 21.7313 225.214 21.8095 225.541 21.8095C225.868 21.8095 226.191 21.7313 226.482 21.5815C227.003 21.2849 227.003 20.8 226.482 20.4961Z" fill="#65B8DB"/>
<path d="M222.718 22.6669C222.425 22.5204 222.102 22.4441 221.774 22.4441C221.446 22.4441 221.123 22.5204 220.83 22.6669C220.716 22.7065 220.618 22.7804 220.549 22.8783C220.48 22.9762 220.442 23.0932 220.442 23.2132C220.442 23.3332 220.48 23.4502 220.549 23.5481C220.618 23.646 220.716 23.7199 220.83 23.7595C221.123 23.906 221.446 23.9823 221.774 23.9823C222.102 23.9823 222.425 23.906 222.718 23.7595C222.832 23.7199 222.93 23.646 222.999 23.5481C223.069 23.4502 223.106 23.3332 223.106 23.2132C223.106 23.0932 223.069 22.9762 222.999 22.8783C222.93 22.7804 222.832 22.7065 222.718 22.6669Z" fill="#263238"/>
<path d="M218.949 24.8451C218.658 24.6953 218.335 24.6171 218.008 24.6171C217.681 24.6171 217.358 24.6953 217.067 24.8451C216.953 24.8828 216.854 24.9556 216.783 25.053C216.713 25.1505 216.675 25.2676 216.675 25.3878C216.675 25.508 216.713 25.6251 216.783 25.7226C216.854 25.82 216.953 25.8928 217.067 25.9305C217.358 26.0803 217.681 26.1585 218.008 26.1585C218.335 26.1585 218.658 26.0803 218.949 25.9305C219.063 25.8928 219.162 25.82 219.232 25.7226C219.303 25.6251 219.341 25.508 219.341 25.3878C219.341 25.2676 219.303 25.1505 219.232 25.053C219.162 24.9556 219.063 24.8828 218.949 24.8451Z" fill="#263238"/>
<path d="M227.422 16.6898C227.13 16.5434 226.808 16.4671 226.482 16.4671C226.155 16.4671 225.833 16.5434 225.541 16.6898C225.428 16.7295 225.33 16.8034 225.26 16.9012C225.191 16.9991 225.153 17.1161 225.153 17.2361C225.153 17.3561 225.191 17.4732 225.26 17.571C225.33 17.6689 225.428 17.7428 225.541 17.7825C225.833 17.9289 226.155 18.0051 226.482 18.0051C226.808 18.0051 227.13 17.9289 227.422 17.7825C227.536 17.7428 227.634 17.6689 227.703 17.571C227.773 17.4732 227.81 17.3561 227.81 17.2361C227.81 17.1161 227.773 16.9991 227.703 16.9012C227.634 16.8034 227.536 16.7295 227.422 16.6898Z" fill="#65B8DB"/>
<path d="M223.659 18.8682C223.367 18.7183 223.043 18.6402 222.715 18.6402C222.387 18.6402 222.063 18.7183 221.771 18.8682C221.657 18.9059 221.557 18.9787 221.487 19.0761C221.417 19.1736 221.379 19.2907 221.379 19.4109C221.379 19.5311 221.417 19.6482 221.487 19.7457C221.557 19.8431 221.657 19.9159 221.771 19.9536C222.064 20.1001 222.387 20.1764 222.715 20.1764C223.043 20.1764 223.366 20.1001 223.659 19.9536C223.773 19.9159 223.873 19.8431 223.943 19.7457C224.014 19.6482 224.051 19.5311 224.051 19.4109C224.051 19.2907 224.014 19.1736 223.943 19.0761C223.873 18.9787 223.773 18.9059 223.659 18.8682Z" fill="#263238"/>
<path d="M218.948 22.3487C219.684 22.3487 220.28 22.0053 220.28 21.5817C220.28 21.1581 219.684 20.8146 218.948 20.8146C218.213 20.8146 217.617 21.1581 217.617 21.5817C217.617 22.0053 218.213 22.3487 218.948 22.3487Z" fill="#65B8DB"/>
<path d="M216.126 23.217C215.835 23.0672 215.513 22.9891 215.186 22.9891C214.858 22.9891 214.536 23.0672 214.245 23.217C213.724 23.5137 213.724 23.9985 214.245 24.3025C214.537 24.4489 214.859 24.5251 215.186 24.5251C215.512 24.5251 215.834 24.4489 216.126 24.3025C216.626 23.9985 216.626 23.5137 216.126 23.217Z" fill="#263238"/>
<path d="M224.586 15.0617C224.294 14.9153 223.972 14.8391 223.645 14.8391C223.318 14.8391 222.996 14.9153 222.704 15.0617C222.183 15.3657 222.183 15.8505 222.704 16.1472C222.995 16.297 223.318 16.3751 223.645 16.3751C223.972 16.3751 224.295 16.297 224.586 16.1472C225.121 15.8505 225.121 15.3801 224.586 15.0617Z" fill="#263238"/>
<path d="M220.83 17.2324C220.538 17.086 220.216 17.0098 219.889 17.0098C219.563 17.0098 219.241 17.086 218.949 17.2324C218.836 17.2721 218.737 17.346 218.668 17.4439C218.599 17.5417 218.561 17.6588 218.561 17.7788C218.561 17.8988 218.599 18.0158 218.668 18.1137C218.737 18.2115 218.836 18.2854 218.949 18.3251C219.241 18.4715 219.563 18.5478 219.889 18.5478C220.216 18.5478 220.538 18.4715 220.83 18.3251C220.943 18.2854 221.042 18.2115 221.111 18.1137C221.18 18.0158 221.218 17.8988 221.218 17.7788C221.218 17.6588 221.18 17.5417 221.111 17.4439C221.042 17.346 220.943 17.2721 220.83 17.2324Z" fill="#65B8DB"/>
<path d="M217.067 19.4105C216.776 19.2607 216.453 19.1826 216.126 19.1826C215.799 19.1826 215.476 19.2607 215.186 19.4105C215.071 19.4483 214.972 19.521 214.902 19.6185C214.831 19.7159 214.793 19.833 214.793 19.9532C214.793 20.0734 214.831 20.1906 214.902 20.288C214.972 20.3854 215.071 20.4582 215.186 20.4959C215.477 20.6424 215.8 20.7186 216.126 20.7186C216.453 20.7186 216.775 20.6424 217.067 20.4959C217.181 20.4582 217.28 20.3854 217.351 20.288C217.421 20.1906 217.459 20.0734 217.459 19.9532C217.459 19.833 217.421 19.7159 217.351 19.6185C217.28 19.521 217.181 19.4483 217.067 19.4105Z" fill="#263238"/>
<path d="M215.179 26.958C214.887 26.8116 214.564 26.7353 214.238 26.7353C213.911 26.7353 213.589 26.8116 213.297 26.958C212.776 27.2619 212.776 27.7467 213.297 28.0434C213.588 28.1932 213.911 28.2714 214.238 28.2714C214.565 28.2714 214.888 28.1932 215.179 28.0434C215.685 27.7612 215.685 27.2764 215.179 26.958Z" fill="#65B8DB"/>
<path d="M212.342 25.3442C212.051 25.1944 211.728 25.1162 211.401 25.1162C211.074 25.1162 210.751 25.1944 210.46 25.3442C210.346 25.3819 210.247 25.4547 210.177 25.5521C210.106 25.6495 210.068 25.7667 210.068 25.8869C210.068 26.0071 210.106 26.1242 210.177 26.2216C210.247 26.3191 210.346 26.3918 210.46 26.4296C210.751 26.5794 211.074 26.6575 211.401 26.6575C211.728 26.6575 212.051 26.5794 212.342 26.4296C212.456 26.3918 212.555 26.3191 212.626 26.2216C212.696 26.1242 212.734 26.0071 212.734 25.8869C212.734 25.7667 212.696 25.6495 212.626 25.5521C212.555 25.4547 212.456 25.3819 212.342 25.3442Z" fill="#263238"/>
<path d="M213.304 21.5815C213.012 21.4351 212.69 21.3589 212.364 21.3589C212.037 21.3589 211.715 21.4351 211.423 21.5815C211.31 21.6212 211.212 21.6951 211.142 21.793C211.073 21.8909 211.035 22.0079 211.035 22.1279C211.035 22.2479 211.073 22.3649 211.142 22.4628C211.212 22.5607 211.31 22.6346 211.423 22.6742C211.715 22.8206 212.037 22.8969 212.364 22.8969C212.69 22.8969 213.012 22.8206 213.304 22.6742C213.418 22.6346 213.516 22.5607 213.585 22.4628C213.654 22.3649 213.692 22.2479 213.692 22.1279C213.692 22.0079 213.654 21.8909 213.585 21.793C213.516 21.6951 213.418 21.6212 213.304 21.5815Z" fill="#263238"/>
<path d="M221.778 13.4334C221.486 13.2835 221.162 13.2054 220.834 13.2054C220.505 13.2054 220.182 13.2835 219.889 13.4334C219.775 13.4711 219.676 13.5439 219.606 13.6413C219.535 13.7387 219.497 13.8559 219.497 13.9761C219.497 14.0963 219.535 14.2134 219.606 14.3108C219.676 14.4083 219.775 14.481 219.889 14.5188C220.182 14.6687 220.505 14.7468 220.834 14.7468C221.162 14.7468 221.486 14.6687 221.778 14.5188C221.892 14.481 221.991 14.4083 222.062 14.3108C222.132 14.2134 222.17 14.0963 222.17 13.9761C222.17 13.8559 222.132 13.7387 222.062 13.6413C221.991 13.5439 221.892 13.4711 221.778 13.4334Z" fill="#65B8DB"/>
<path d="M217.067 16.9144C217.803 16.9144 218.399 16.571 218.399 16.1473C218.399 15.7237 217.803 15.3803 217.067 15.3803C216.332 15.3803 215.736 15.7237 215.736 16.1473C215.736 16.571 216.332 16.9144 217.067 16.9144Z" fill="#263238"/>
<path d="M214.245 17.7824C213.954 17.6326 213.632 17.5545 213.304 17.5545C212.977 17.5545 212.654 17.6326 212.364 17.7824C211.843 18.0791 211.843 18.5639 212.364 18.8679C212.656 19.0143 212.978 19.0905 213.304 19.0905C213.631 19.0905 213.953 19.0143 214.245 18.8679C214.766 18.5639 214.766 18.0791 214.245 17.7824Z" fill="#65B8DB"/>
<path d="M210.482 19.9531C210.189 19.8066 209.865 19.7303 209.538 19.7303C209.21 19.7303 208.887 19.8066 208.593 19.9531C208.479 19.9909 208.38 20.0636 208.31 20.1611C208.239 20.2585 208.201 20.3756 208.201 20.4958C208.201 20.616 208.239 20.7332 208.31 20.8306C208.38 20.928 208.479 21.0008 208.593 21.0386C208.886 21.1884 209.209 21.2666 209.538 21.2666C209.866 21.2666 210.19 21.1884 210.482 21.0386C210.596 21.0008 210.695 20.928 210.766 20.8306C210.836 20.7332 210.874 20.616 210.874 20.4958C210.874 20.3756 210.836 20.2585 210.766 20.1611C210.695 20.0636 210.596 19.9909 210.482 19.9531Z" fill="#263238"/>
<path d="M209.52 23.7161C209.228 23.5663 208.904 23.4881 208.575 23.4881C208.247 23.4881 207.923 23.5663 207.631 23.7161C207.517 23.7539 207.418 23.8267 207.347 23.9241C207.277 24.0215 207.239 24.1387 207.239 24.2589C207.239 24.3791 207.277 24.4962 207.347 24.5936C207.418 24.691 207.517 24.7638 207.631 24.8016C207.923 24.9514 208.247 25.0296 208.575 25.0296C208.904 25.0296 209.228 24.9514 209.52 24.8016C209.634 24.7638 209.733 24.691 209.804 24.5936C209.874 24.4962 209.912 24.3791 209.912 24.2589C209.912 24.1387 209.874 24.0215 209.804 23.9241C209.733 23.8267 209.634 23.7539 209.52 23.7161Z" fill="#65B8DB"/>
<path d="M206.69 22.0882C206.399 21.9384 206.077 21.8603 205.749 21.8603C205.422 21.8603 205.1 21.9384 204.809 22.0882C204.288 22.3849 204.288 22.8698 204.809 23.1737C205.101 23.3201 205.423 23.3963 205.749 23.3963C206.076 23.3963 206.398 23.3201 206.69 23.1737C207.218 22.8698 207.218 22.3849 206.69 22.0882Z" fill="#263238"/>
<path d="M213.507 31.3431V34.2376C213.801 34.2511 214.093 34.1862 214.354 34.0494L235.339 21.9359C235.577 21.7846 235.775 21.5793 235.919 21.3365C236.062 21.0938 236.146 20.8206 236.164 20.5393V19.4973C236.149 19.2498 236.083 19.0081 235.969 18.7876C235.856 18.5671 235.698 18.3726 235.505 18.2164C235.795 18.4697 235.744 18.8098 235.361 19.0341L214.375 31.1549C214.108 31.2955 213.808 31.3606 213.507 31.3431Z" fill="#37474F"/>
<path d="M217.755 8.77335C217.649 8.64147 217.501 8.55049 217.336 8.51614C217.171 8.48179 216.999 8.50622 216.85 8.58521L198.571 19.1068C198.501 19.1429 198.441 19.1941 198.393 19.2567C198.346 19.3194 198.313 19.3918 198.297 19.4688C198.281 19.5457 198.282 19.6252 198.301 19.7016C198.32 19.7779 198.355 19.8491 198.405 19.91C198.51 20.0419 198.658 20.1329 198.823 20.1672C198.988 20.2016 199.16 20.1771 199.309 20.0981L217.581 9.59106C217.653 9.55499 217.715 9.50328 217.764 9.43973C217.813 9.37618 217.848 9.30242 217.864 9.22391C217.881 9.1454 217.88 9.06415 217.861 8.98616C217.842 8.90818 217.806 8.83545 217.755 8.77335Z" fill="#263238"/>
<path d="M217.755 8.77335C217.649 8.64147 217.501 8.55049 217.336 8.51614C217.171 8.48179 216.999 8.50622 216.85 8.58521L203.253 16.4004L204.013 17.4135L217.581 9.59106C217.653 9.55499 217.715 9.50328 217.764 9.43973C217.813 9.37618 217.847 9.30242 217.864 9.22391C217.881 9.1454 217.88 9.06415 217.861 8.98616C217.842 8.90818 217.805 8.83545 217.755 8.77335Z" fill="#65B8DB"/>
<path d="M216.242 6.74715C216.137 6.617 215.991 6.52715 215.827 6.49285C215.663 6.45855 215.493 6.48193 215.345 6.55901L197.088 17.0733C197.019 17.1112 196.959 17.1636 196.912 17.2269C196.865 17.2902 196.833 17.363 196.817 17.4401C196.801 17.5172 196.802 17.5968 196.82 17.6734C196.838 17.75 196.873 17.8218 196.921 17.8838C197.026 18.0157 197.174 18.1067 197.34 18.141C197.505 18.1754 197.677 18.1509 197.826 18.0719L216.083 7.52867C216.148 7.49065 216.204 7.43936 216.248 7.37816C216.292 7.31695 216.322 7.2472 216.337 7.17346C216.352 7.09972 216.351 7.02365 216.335 6.95019C216.319 6.87674 216.287 6.80755 216.242 6.74715Z" fill="#263238"/>
<path d="M216.242 6.74715C216.137 6.617 215.99 6.52715 215.827 6.49285C215.663 6.45855 215.493 6.48193 215.345 6.55901L210.8 9.17855L211.56 10.1699L216.097 7.55038C216.164 7.5114 216.222 7.45828 216.267 7.39472C216.311 7.33115 216.342 7.25865 216.355 7.18224C216.369 7.10583 216.366 7.02734 216.347 6.95222C216.327 6.87709 216.291 6.80712 216.242 6.74715Z" fill="#65B8DB"/>
<path d="M214.73 4.72086C214.624 4.58898 214.476 4.49801 214.311 4.46365C214.146 4.4293 213.974 4.45373 213.825 4.53272L195.546 15.047C195.477 15.0849 195.417 15.1373 195.37 15.2006C195.324 15.2639 195.291 15.3367 195.276 15.4138C195.26 15.4909 195.261 15.5705 195.279 15.6471C195.297 15.7237 195.331 15.7955 195.38 15.8575C195.485 15.9894 195.633 16.0804 195.798 16.1147C195.963 16.1491 196.135 16.1246 196.284 16.0456L214.541 5.50238C214.609 5.46689 214.668 5.41747 214.714 5.35742C214.761 5.29738 214.794 5.22808 214.812 5.15414C214.83 5.0802 214.832 5.00332 214.818 4.92861C214.803 4.8539 214.773 4.78308 214.73 4.72086Z" fill="#263238"/>
<path d="M214.73 4.72086C214.625 4.58898 214.477 4.49801 214.311 4.46365C214.146 4.4293 213.974 4.45373 213.825 4.53272L204.324 9.98164L205.084 10.9947L214.592 5.52409C214.659 5.48449 214.716 5.43091 214.76 5.36705C214.804 5.30319 214.833 5.23057 214.846 5.1542C214.859 5.07784 214.856 4.99955 214.836 4.92473C214.815 4.84992 214.779 4.78036 214.73 4.72086Z" fill="#65B8DB"/>
<path d="M213.225 2.69496C213.119 2.56308 212.971 2.4721 212.806 2.43774C212.641 2.40339 212.469 2.42782 212.32 2.50681L194.041 13.0211C193.972 13.059 193.912 13.1114 193.865 13.1747C193.819 13.238 193.786 13.3108 193.77 13.3879C193.755 13.465 193.756 13.5446 193.774 13.6212C193.792 13.6978 193.826 13.7696 193.875 13.8316C193.98 13.9635 194.128 14.0545 194.293 14.0888C194.458 14.1232 194.63 14.0987 194.779 14.0197L213.036 3.47648C213.104 3.44098 213.163 3.39156 213.209 3.33152C213.256 3.27147 213.289 3.20217 213.307 3.12823C213.325 3.05429 213.327 2.97741 213.313 2.9027C213.298 2.82799 213.268 2.75718 213.225 2.69496Z" fill="#263238"/>
<path d="M213.225 2.69496C213.119 2.56308 212.972 2.4721 212.806 2.43774C212.641 2.40339 212.469 2.42782 212.32 2.50681L195.72 12.0515L196.48 13.0646L213.051 3.49819C213.12 3.46177 213.181 3.41057 213.228 3.34819C213.276 3.28581 213.309 3.21377 213.326 3.13717C213.342 3.06056 213.342 2.98126 213.324 2.90485C213.307 2.82844 213.273 2.75679 213.225 2.69496Z" fill="#65B8DB"/>
<path d="M177.796 137.774C177.851 137.755 177.91 137.75 177.968 137.759C178.026 137.768 178.081 137.79 178.129 137.825C178.276 137.923 178.398 138.053 178.486 138.207C178.574 138.36 178.625 138.532 178.635 138.708C178.639 138.764 178.631 138.82 178.611 138.873C178.591 138.925 178.56 138.973 178.519 139.012L178.461 139.048L156.709 151.603L155.262 150.778L177.796 137.774Z" fill="#455A64"/>
<path d="M180.734 139.475C180.788 139.454 180.847 139.447 180.906 139.455C180.964 139.462 181.019 139.484 181.066 139.518C181.215 139.615 181.339 139.745 181.428 139.899C181.517 140.052 181.569 140.224 181.58 140.401C181.585 140.459 181.577 140.517 181.555 140.571C181.534 140.625 181.5 140.673 181.457 140.712L181.399 140.748L159.647 153.303L158.2 152.478L180.734 139.475Z" fill="#455A64"/>
<path d="M183.672 141.168C183.727 141.149 183.786 141.144 183.844 141.153C183.902 141.161 183.957 141.184 184.005 141.219C184.152 141.315 184.275 141.444 184.363 141.596C184.451 141.748 184.502 141.919 184.511 142.095C184.516 142.152 184.508 142.209 184.488 142.263C184.468 142.317 184.436 142.366 184.395 142.406L184.33 142.442L162.585 154.997L161.138 154.172L183.672 141.168Z" fill="#455A64"/>
<path d="M186.609 142.862C186.666 142.844 186.726 142.84 186.785 142.848C186.844 142.857 186.9 142.879 186.95 142.912C187.097 143.01 187.219 143.141 187.307 143.294C187.395 143.447 187.446 143.619 187.456 143.795C187.461 143.851 187.454 143.908 187.433 143.961C187.413 144.013 187.382 144.061 187.34 144.099L187.282 144.135L165.53 156.69L164.083 155.865L186.609 142.862Z" fill="#455A64"/>
<path d="M37.8899 214.059C37.9625 215.056 38.269 216.022 38.7845 216.878C39.2999 217.734 40.0099 218.457 40.8568 218.987L124.074 267.014C124.995 267.482 126.012 267.725 127.045 267.725C128.077 267.725 129.095 267.482 130.015 267.014L243.827 201.302C244.724 200.827 245.474 200.117 245.998 199.249C246.521 198.38 246.797 197.384 246.797 196.37C246.797 195.356 246.521 194.361 245.998 193.492C245.474 192.623 244.724 191.913 243.827 191.439L160.639 143.411C159.719 142.948 158.703 142.706 157.672 142.706C156.642 142.706 155.625 142.948 154.705 143.411L40.8857 209.124C40.0325 209.652 39.3163 210.374 38.7956 211.232C38.275 212.09 37.9646 213.059 37.8899 214.059Z" fill="#65B8DB"/>
<path opacity="0.7" d="M127.041 261.298V267.724C126.004 267.739 124.981 267.49 124.067 267L40.8856 218.987C40.0132 218.53 39.2779 217.85 38.7549 217.016C38.2319 216.181 37.94 215.223 37.9091 214.239C37.8782 213.254 38.1094 212.279 38.579 211.414C39.0486 210.548 39.7397 209.823 40.5817 209.312C39.2502 210.268 39.3515 211.664 40.8856 212.547L124.103 260.574C125.005 261.061 126.016 261.31 127.041 261.298Z" fill="black"/>
<path d="M35.1327 209.233C34.3012 208.668 33.6152 207.915 33.131 207.035C32.6467 206.154 32.3779 205.172 32.3467 204.167V104.929C32.403 103.9 32.701 102.898 33.2165 102.006C33.7319 101.113 34.4503 100.354 35.3136 99.791L149.133 34.0783C149.992 33.5399 150.981 33.2457 151.994 33.2272C153.008 33.2087 154.007 33.4666 154.885 33.9733C155.763 34.4799 156.486 35.2161 156.977 36.1028C157.468 36.9895 157.708 37.9933 157.672 39.0062V138.274C157.617 139.303 157.319 140.305 156.804 141.198C156.288 142.09 155.569 142.849 154.705 143.411L40.8855 209.124C40.0028 209.593 39.0217 209.848 38.0221 209.867C37.0224 209.886 36.0325 209.668 35.1327 209.233Z" fill="#65B8DB"/>
<path opacity="0.7" d="M40.5309 209.313C39.6804 209.695 38.7563 209.887 37.8238 209.874C36.8912 209.862 35.9726 209.645 35.1327 209.24C34.3016 208.676 33.6159 207.922 33.1317 207.042C32.6475 206.161 32.3785 205.179 32.3467 204.175V104.929C32.3869 103.906 32.6857 102.911 33.215 102.035L38.787 105.248C38.2554 106.123 37.9541 107.119 37.9114 108.142V207.417C37.8897 209.168 39.062 209.957 40.5309 209.313Z" fill="black"/>
<path opacity="0.5" d="M37.8899 108.149V207.416C37.8899 209.305 39.2141 210.072 40.8568 209.124L154.676 143.411C155.54 142.849 156.259 142.09 156.775 141.198C157.29 140.305 157.588 139.303 157.643 138.273V39.0061C157.643 37.1102 156.312 36.3431 154.676 37.2911L40.8857 103.004C40.0158 103.564 39.2908 104.322 38.7701 105.217C38.2494 106.111 37.9478 107.116 37.8899 108.149Z" fill="black"/>
<path d="M40.8855 212.554L124.103 260.581C125.023 261.049 126.041 261.292 127.073 261.292C128.106 261.292 129.123 261.049 130.044 260.581L243.82 194.84C245.463 193.892 245.463 192.358 243.82 191.41L160.639 143.411C159.719 142.948 158.702 142.706 157.672 142.706C156.641 142.706 155.625 142.948 154.705 143.411L40.8855 209.124C39.2429 210.072 39.2429 211.606 40.8855 212.554Z" fill="#65B8DB"/>
<path opacity="0.3" d="M40.8855 212.554L124.103 260.581C125.023 261.049 126.041 261.292 127.073 261.292C128.106 261.292 129.123 261.049 130.044 260.581L243.82 194.84C245.463 193.892 245.463 192.358 243.82 191.41L160.639 143.411C159.719 142.948 158.702 142.706 157.672 142.706C156.641 142.706 155.625 142.948 154.705 143.411L40.8855 209.124C39.2429 210.072 39.2429 211.606 40.8855 212.554Z" fill="black"/>
<path d="M42.4846 108.511L152.223 45.1718C153.207 44.6074 154.003 45.0705 154.003 46.2066V132.138C153.969 132.755 153.791 133.356 153.481 133.892C153.172 134.427 152.741 134.882 152.223 135.22L42.4846 198.559C41.5005 199.124 40.6973 198.668 40.6973 197.532V111.623C40.729 111 40.9075 110.393 41.2181 109.853C41.5287 109.312 41.9627 108.852 42.4846 108.511Z" fill="#FAFAFA"/>
<path d="M114.884 95.1022L114.16 114.944C114.16 123.114 109.03 137.869 98.4719 148.774C97.7145 149.498 96.7561 149.977 95.7221 150.149C95.1866 150.199 94.6728 150.221 94.1663 150.221C91.9082 150.254 89.6813 149.69 87.7115 148.586L87.6464 148.549L87.5234 148.47C82.827 145.633 80.5114 139.844 80.5114 134.388L79.7878 115.422C79.7831 114.909 79.9748 114.415 80.3233 114.04C80.5824 113.732 80.906 113.485 81.2712 113.316C86.1051 111.145 93.3486 102.613 96.7497 94.1687C96.9957 93.5681 97.3575 93.3727 97.7627 93.5608L97.8206 93.597C97.9591 93.675 98.0838 93.7752 98.1897 93.8937L98.2548 93.9733C101.873 98.1704 108.957 98.1631 113.69 94.545C114.052 94.27 114.348 94.1832 114.551 94.27C114.797 94.4147 114.898 94.6752 114.884 95.1022Z" fill="#65B8DB"/>
<path opacity="0.2" d="M97.3502 93.532C97.2137 93.5891 97.0916 93.6759 96.9928 93.786C96.8939 93.8962 96.8207 94.0269 96.7786 94.1688C93.3775 102.614 86.134 111.174 81.3002 113.316C80.9349 113.485 80.6113 113.732 80.3522 114.04C80.0037 114.415 79.8121 114.91 79.8167 115.422L80.5404 134.388C80.5404 139.866 82.856 145.655 87.574 148.47L87.697 148.549L87.7622 148.586C89.732 149.69 91.9588 150.254 94.2169 150.221C94.7235 150.221 95.2373 150.221 95.7727 150.149C96.3384 150.07 96.8838 149.883 97.3792 149.599L97.3502 93.532Z" fill="black"/>
<path opacity="0.3" d="M50.5389 209.985L156.189 148.991C156.649 148.758 157.157 148.638 157.672 148.638C158.187 148.638 158.695 148.758 159.156 148.991L164.561 152.109C164.741 152.17 164.897 152.285 165.007 152.439C165.118 152.593 165.178 152.777 165.178 152.967C165.178 153.156 165.118 153.341 165.007 153.495C164.897 153.649 164.741 153.764 164.561 153.824L58.8751 214.812C58.415 215.044 57.9069 215.165 57.3916 215.165C56.8763 215.165 56.3682 215.044 55.9082 214.812L50.5172 211.7C50.3382 211.638 50.1835 211.521 50.0747 211.365C49.966 211.21 49.9088 211.025 49.9112 210.835C49.9136 210.645 49.9755 210.461 50.0881 210.309C50.2007 210.157 50.3584 210.043 50.5389 209.985Z" fill="black"/>
<path opacity="0.3" d="M64.4687 217.996L170.118 157.001C170.577 156.766 171.086 156.643 171.602 156.643C172.118 156.643 172.626 156.766 173.085 157.001L206.322 176.192C206.501 176.252 206.657 176.367 206.768 176.521C206.879 176.675 206.938 176.86 206.938 177.049C206.938 177.239 206.879 177.424 206.768 177.577C206.657 177.731 206.501 177.846 206.322 177.907L100.795 238.844C100.333 239.075 99.8242 239.196 99.3078 239.196C98.7915 239.196 98.2822 239.075 97.8208 238.844L64.4687 219.733C64.2765 219.682 64.1063 219.57 63.9849 219.413C63.8634 219.256 63.7975 219.063 63.7975 218.864C63.7975 218.666 63.8634 218.473 63.9849 218.315C64.1063 218.158 64.2765 218.046 64.4687 217.996Z" fill="black"/>
<path d="M159.17 184.47L162.477 182.56C162.614 182.48 162.607 182.343 162.477 182.256L158.656 180.049C158.574 180.008 158.483 179.987 158.392 179.987C158.3 179.987 158.21 180.008 158.128 180.049L154.821 181.959C154.676 182.046 154.683 182.176 154.821 182.263L158.649 184.478C158.73 184.516 158.82 184.535 158.91 184.534C159 184.533 159.089 184.511 159.17 184.47ZM152.657 176.887L149.328 178.79C149.184 178.877 149.191 179.007 149.328 179.101L153.156 181.308C153.238 181.349 153.329 181.37 153.42 181.37C153.512 181.37 153.602 181.349 153.685 181.308L156.991 179.398C157.129 179.318 157.122 179.181 156.991 179.094L153.171 176.887C153.089 176.844 152.999 176.822 152.907 176.822C152.815 176.822 152.724 176.844 152.642 176.887H152.657ZM141.969 183.052L136.368 186.287C136.231 186.366 136.238 186.504 136.368 186.591L140.196 188.761C140.277 188.802 140.366 188.823 140.457 188.823C140.547 188.823 140.636 188.802 140.717 188.761L146.318 185.527C146.455 185.447 146.448 185.31 146.318 185.223L142.497 183.052C142.413 183.009 142.32 182.986 142.226 182.986C142.131 182.986 142.038 183.009 141.954 183.052H141.969ZM147.809 179.644L144.494 181.554C144.357 181.634 144.364 181.771 144.494 181.858L148.322 184.029C148.404 184.07 148.495 184.091 148.587 184.091C148.678 184.091 148.769 184.07 148.851 184.029L152.158 182.119C152.295 182.039 152.288 181.901 152.158 181.815L148.337 179.608C148.252 179.572 148.16 179.557 148.068 179.563C147.977 179.57 147.888 179.597 147.809 179.644ZM134.856 187.169L131.52 189.051C131.382 189.138 131.389 189.275 131.52 189.362L135.341 191.569C135.423 191.61 135.513 191.631 135.605 191.631C135.696 191.631 135.787 191.61 135.869 191.569L139.176 189.659C139.32 189.579 139.313 189.442 139.176 189.355L135.348 187.184C135.272 187.145 135.188 187.123 135.103 187.121C135.018 187.118 134.934 187.135 134.856 187.169ZM130.022 189.955L126.715 191.866C126.577 191.945 126.585 192.083 126.715 192.17L130.536 194.377C130.617 194.419 130.708 194.441 130.8 194.441C130.892 194.441 130.982 194.419 131.064 194.377L134.371 192.466C134.516 192.387 134.508 192.249 134.371 192.162L130.514 189.97C130.434 189.928 130.345 189.905 130.255 189.902C130.165 189.9 130.075 189.918 129.993 189.955H130.022ZM145.066 198.936L148.38 197.025C148.518 196.946 148.511 196.808 148.38 196.721L144.552 194.514C144.471 194.472 144.38 194.45 144.288 194.45C144.196 194.45 144.106 194.472 144.024 194.514L140.645 196.417C140.507 196.497 140.514 196.634 140.645 196.721L144.465 198.892C144.549 198.947 144.646 198.98 144.746 198.988C144.846 198.995 144.946 198.977 145.037 198.936H145.066ZM140.232 201.729L143.539 199.818C143.684 199.739 143.677 199.601 143.539 199.515L139.711 197.344C139.629 197.303 139.539 197.282 139.447 197.282C139.355 197.282 139.265 197.303 139.183 197.344L135.833 199.182C135.695 199.261 135.702 199.399 135.833 199.486L139.653 201.7C139.736 201.749 139.829 201.777 139.925 201.782C140.021 201.787 140.116 201.769 140.203 201.729H140.232ZM135.398 204.522L138.705 202.612C138.85 202.532 138.843 202.395 138.705 202.308L134.856 200.101C134.774 200.058 134.684 200.036 134.592 200.036C134.5 200.036 134.409 200.058 134.327 200.101L131.02 202.011C130.883 202.091 130.89 202.228 131.02 202.315L134.841 204.522C134.923 204.563 135.014 204.584 135.105 204.584C135.197 204.584 135.287 204.563 135.369 204.522H135.398ZM130.514 207.308L133.821 205.405C133.966 205.318 133.951 205.181 133.821 205.094L129.993 202.887C129.911 202.846 129.82 202.825 129.729 202.825C129.637 202.825 129.547 202.846 129.465 202.887L126.172 204.79C126.035 204.869 126.042 205.007 126.172 205.094L129.993 207.301C130.073 207.343 130.162 207.366 130.253 207.367C130.343 207.368 130.433 207.348 130.514 207.308ZM154.314 187.263L157.621 185.353C157.759 185.274 157.751 185.136 157.621 185.049L153.8 182.842C153.718 182.801 153.628 182.78 153.536 182.78C153.444 182.78 153.354 182.801 153.272 182.842L149.965 184.709C149.82 184.789 149.828 184.926 149.965 185.013L153.793 187.22C153.873 187.27 153.965 187.3 154.059 187.308C154.154 187.315 154.248 187.3 154.336 187.263H154.314ZM149.849 196.15L157.23 191.887C157.375 191.808 157.361 191.67 157.23 191.584L147.939 186.221C147.857 186.181 147.766 186.159 147.675 186.159C147.583 186.159 147.493 186.181 147.411 186.221L143.597 188.429C143.452 188.508 143.46 188.646 143.597 188.732L148.518 191.569C148.67 191.656 148.677 191.793 148.518 191.873L145.464 193.639C145.327 193.718 145.334 193.856 145.464 193.943L149.292 196.15C149.38 196.2 149.48 196.227 149.582 196.227C149.683 196.227 149.783 196.2 149.871 196.15H149.849ZM125.137 192.749L121.83 194.659C121.693 194.739 121.7 194.876 121.83 194.963L125.651 197.17C125.733 197.211 125.824 197.232 125.915 197.232C126.007 197.232 126.097 197.211 126.179 197.17L129.486 195.26C129.631 195.18 129.624 195.043 129.486 194.956L125.658 192.749C125.581 192.711 125.495 192.691 125.409 192.691C125.322 192.691 125.237 192.711 125.159 192.749H125.137ZM120.325 195.564L117.018 197.474C116.881 197.554 116.888 197.691 117.018 197.778L120.839 199.985C120.921 200.027 121.011 200.05 121.103 200.05C121.195 200.05 121.286 200.027 121.367 199.985L124.674 198.082C124.819 197.995 124.804 197.857 124.674 197.771L120.846 195.6C120.768 195.554 120.68 195.527 120.59 195.521C120.5 195.515 120.409 195.529 120.325 195.564ZM96.1705 226.86C96.252 226.903 96.3427 226.925 96.4346 226.925C96.5266 226.925 96.6172 226.903 96.6987 226.86L100.006 224.957C100.143 224.87 100.136 224.733 100.006 224.646L96.1777 222.439C96.0971 222.398 96.0078 222.376 95.9172 222.376C95.8266 222.376 95.7374 222.398 95.6567 222.439L92.3425 224.349C92.205 224.429 92.2122 224.567 92.3425 224.653L96.1705 226.86ZM81.6473 217.895L78.3403 219.798C78.2028 219.885 78.21 220.015 78.3403 220.109L82.161 222.316C82.2431 222.357 82.3335 222.378 82.4252 222.378C82.5168 222.378 82.6072 222.357 82.6893 222.316L85.9963 220.406C86.141 220.326 86.1338 220.189 85.9963 220.102L82.1683 217.895C82.0894 217.85 82.001 217.825 81.9104 217.821C81.8198 217.817 81.7296 217.835 81.6473 217.873V217.895ZM89.4335 224.444C89.5156 224.484 89.606 224.506 89.6976 224.506C89.7893 224.506 89.8797 224.484 89.9618 224.444L93.2687 222.533C93.4062 222.454 93.399 222.316 93.2687 222.229L89.448 220.022C89.3659 219.981 89.2755 219.96 89.1839 219.96C89.0922 219.96 89.0018 219.981 88.9197 220.022L85.6128 221.933C85.468 222.019 85.4753 222.15 85.6128 222.236L89.4335 224.444ZM104.702 228.554L108.009 226.651C108.154 226.564 108.147 226.426 108.009 226.339L104.181 224.132C104.099 224.092 104.009 224.07 103.917 224.07C103.825 224.07 103.735 224.092 103.653 224.132L100.346 226.043C100.208 226.122 100.216 226.26 100.346 226.347L104.167 228.554C104.251 228.594 104.344 228.613 104.437 228.61C104.53 228.606 104.621 228.579 104.702 228.532V228.554ZM99.34 231.34C99.4221 231.381 99.5125 231.402 99.6041 231.402C99.6958 231.402 99.7862 231.381 99.8682 231.34L103.175 229.429C103.32 229.35 103.305 229.212 103.175 229.125L99.3472 226.918C99.2651 226.878 99.1748 226.856 99.0831 226.856C98.9915 226.856 98.901 226.878 98.819 226.918L95.512 228.829C95.3745 228.916 95.3817 229.046 95.512 229.133L99.34 231.34ZM86.4811 215.101L83.1741 217.012C83.0366 217.091 83.0439 217.229 83.1741 217.316L87.0021 219.523C87.0824 219.565 87.1718 219.588 87.2626 219.588C87.3534 219.588 87.4429 219.565 87.5231 219.523L90.8374 217.62C90.9748 217.533 90.9676 217.403 90.8374 217.309L87.0094 215.138C86.9301 215.091 86.8412 215.064 86.7495 215.057C86.6578 215.051 86.5659 215.066 86.4811 215.101ZM110.658 201.143L107.358 203.031C107.213 203.111 107.228 203.248 107.358 203.335L111.186 205.542C111.268 205.583 111.358 205.604 111.45 205.604C111.542 205.604 111.632 205.583 111.714 205.542L115.021 203.632C115.159 203.552 115.151 203.415 115.021 203.328L111.2 201.121C111.116 201.078 111.023 201.055 110.929 201.055C110.835 201.055 110.741 201.078 110.658 201.121V201.143ZM91.3222 212.308L88.008 214.219C87.8705 214.298 87.8777 214.436 88.008 214.523L91.836 216.73C91.918 216.77 92.0084 216.792 92.1001 216.792C92.1917 216.792 92.2821 216.77 92.3642 216.73L95.6712 214.819C95.8087 214.74 95.8014 214.602 95.6712 214.515L91.8432 212.308C91.7641 212.264 91.6758 212.239 91.5853 212.235C91.4948 212.232 91.4047 212.249 91.3222 212.287V212.308ZM115.491 198.349L112.184 200.26C112.04 200.347 112.054 200.477 112.184 200.564L116.012 202.778C116.094 202.819 116.185 202.84 116.277 202.84C116.368 202.84 116.459 202.819 116.541 202.778L119.848 200.868C119.992 200.788 119.978 200.651 119.848 200.564L116.041 198.342C115.958 198.296 115.864 198.27 115.768 198.267C115.672 198.265 115.577 198.286 115.491 198.328V198.349ZM105.824 203.936L102.517 205.846C102.372 205.926 102.379 206.063 102.517 206.15L106.345 208.321C106.427 208.362 106.517 208.383 106.609 208.383C106.7 208.383 106.791 208.362 106.873 208.321L110.18 206.411C110.317 206.324 110.31 206.194 110.18 206.107L106.359 203.892C106.274 203.854 106.182 203.836 106.089 203.839C105.996 203.843 105.905 203.869 105.824 203.914V203.936ZM100.99 206.729L97.6829 208.589C97.5382 208.668 97.5454 208.806 97.6829 208.893L101.511 211.1C101.592 211.142 101.683 211.165 101.775 211.165C101.867 211.165 101.958 211.142 102.039 211.1L105.346 209.189C105.484 209.11 105.476 208.972 105.346 208.886L101.525 206.715C101.443 206.67 101.352 206.646 101.259 206.644C101.165 206.643 101.073 206.665 100.99 206.707V206.729ZM96.156 209.515L92.8852 211.404C92.7405 211.483 92.7477 211.621 92.8852 211.708L96.7132 213.922C96.7953 213.963 96.8857 213.984 96.9773 213.984C97.069 213.984 97.1594 213.963 97.2415 213.922L100.548 212.012C100.686 211.932 100.679 211.795 100.548 211.708L96.7277 209.501C96.6407 209.451 96.5427 209.425 96.4428 209.424C96.3429 209.422 96.2442 209.446 96.156 209.493V209.515ZM120.868 212.916L124.175 211.006C124.312 210.926 124.305 210.789 124.175 210.702L120.354 208.495C120.272 208.454 120.182 208.433 120.09 208.433C119.998 208.433 119.908 208.454 119.826 208.495L116.519 210.405C116.374 210.485 116.389 210.622 116.519 210.709L120.347 212.916C120.427 212.958 120.515 212.981 120.606 212.984C120.696 212.986 120.786 212.968 120.868 212.931V212.916ZM163.33 170.736L160.016 172.646C159.879 172.726 159.886 172.863 160.016 172.95L163.844 175.121C163.926 175.162 164.017 175.183 164.108 175.183C164.2 175.183 164.29 175.162 164.372 175.121L167.679 173.211C167.817 173.124 167.81 172.994 167.679 172.907L163.851 170.692C163.769 170.654 163.679 170.637 163.588 170.64C163.498 170.644 163.409 170.669 163.33 170.714V170.736ZM157.476 174.115L154.169 176.026C154.025 176.105 154.032 176.243 154.169 176.329L157.997 178.537C158.079 178.579 158.169 178.601 158.261 178.601C158.353 178.601 158.444 178.579 158.526 178.537L161.833 176.633C161.97 176.547 161.963 176.409 161.833 176.322L158.012 174.101C157.929 174.058 157.838 174.034 157.745 174.033C157.652 174.032 157.56 174.053 157.476 174.093V174.115ZM168.143 167.921L164.836 169.831C164.691 169.911 164.698 170.048 164.836 170.135L168.664 172.342C168.746 172.383 168.836 172.404 168.928 172.404C169.019 172.404 169.11 172.383 169.192 172.342L172.499 170.432C172.636 170.352 172.629 170.215 172.499 170.128L168.678 167.921C168.595 167.879 168.503 167.857 168.41 167.857C168.317 167.857 168.226 167.879 168.143 167.921ZM143.12 193.725L146.427 191.815C146.564 191.736 146.557 191.598 146.427 191.511L142.606 189.34C142.524 189.3 142.433 189.278 142.342 189.278C142.25 189.278 142.16 189.3 142.077 189.34L138.763 191.222C138.626 191.309 138.633 191.439 138.763 191.526L142.591 193.74C142.677 193.782 142.772 193.803 142.868 193.8C142.964 193.798 143.058 193.772 143.141 193.725H143.12ZM173.512 165.142C173.43 165.101 173.339 165.08 173.248 165.08C173.156 165.08 173.066 165.101 172.984 165.142L169.677 167.053C169.532 167.139 169.539 167.27 169.677 167.356L173.505 169.571C173.587 169.612 173.677 169.633 173.769 169.633C173.86 169.633 173.951 169.612 174.033 169.571L177.34 167.66C177.477 167.581 177.47 167.443 177.34 167.356L173.512 165.142ZM125.687 210.101L128.994 208.191C129.139 208.111 129.125 207.974 128.994 207.887L125.166 205.716C125.084 205.675 124.994 205.654 124.902 205.654C124.811 205.654 124.72 205.675 124.638 205.716L121.331 207.626C121.186 207.713 121.201 207.843 121.331 207.93L125.152 210.145C125.24 210.182 125.336 210.198 125.432 210.191C125.528 210.183 125.62 210.152 125.702 210.101H125.687ZM184.974 175.874L188.281 173.963C188.419 173.884 188.411 173.746 188.281 173.659L184.46 171.452C184.378 171.411 184.288 171.39 184.196 171.39C184.105 171.39 184.014 171.411 183.932 171.452L180.625 173.363C180.48 173.442 180.495 173.58 180.625 173.667L184.453 175.837C184.533 175.887 184.623 175.916 184.716 175.922C184.81 175.929 184.903 175.912 184.989 175.874H184.974ZM174.677 175.512L177.984 173.601C178.121 173.522 178.114 173.384 177.984 173.297L174.163 171.09C174.081 171.05 173.991 171.028 173.899 171.028C173.807 171.028 173.717 171.05 173.635 171.09L170.313 172.986C170.169 173.066 170.176 173.203 170.313 173.29L174.141 175.461C174.222 175.514 174.314 175.546 174.41 175.554C174.506 175.563 174.603 175.549 174.691 175.512H174.677ZM178.975 168.275C178.893 168.235 178.803 168.213 178.711 168.213C178.62 168.213 178.529 168.235 178.447 168.275L175.14 170.186C174.995 170.273 175.003 170.403 175.14 170.49L178.968 172.704C179.05 172.745 179.141 172.766 179.232 172.766C179.324 172.766 179.414 172.745 179.496 172.704L182.803 170.794C182.941 170.714 182.934 170.577 182.803 170.49L178.975 168.275ZM179.988 167.689L189.28 173.051C189.361 173.094 189.452 173.116 189.544 173.116C189.636 173.116 189.726 173.094 189.808 173.051L193.115 171.141C193.26 171.061 193.245 170.924 193.115 170.837L183.824 165.475C183.742 165.433 183.651 165.41 183.559 165.41C183.468 165.41 183.377 165.433 183.295 165.475L179.988 167.385C179.844 167.487 179.858 167.624 180.003 167.711L179.988 167.689ZM168.794 173.855L165.487 175.765C165.342 175.845 165.349 175.982 165.487 176.069L169.315 178.276C169.396 178.319 169.487 178.341 169.579 178.341C169.671 178.341 169.762 178.319 169.843 178.276L173.15 176.373C173.288 176.286 173.28 176.156 173.15 176.062L169.322 173.855C169.24 173.814 169.15 173.793 169.058 173.793C168.966 173.793 168.876 173.814 168.794 173.855ZM132.403 194.84L129.067 196.786C128.929 196.866 128.936 197.004 129.067 197.09L132.887 199.297C132.969 199.338 133.06 199.359 133.152 199.359C133.243 199.359 133.334 199.338 133.416 199.297L136.723 197.387C136.867 197.3 136.86 197.17 136.723 197.083L132.895 194.869C132.817 194.835 132.733 194.818 132.648 194.819C132.563 194.82 132.479 194.84 132.403 194.876V194.84ZM179.627 178.616C179.709 178.657 179.799 178.678 179.891 178.678C179.982 178.678 180.073 178.657 180.155 178.616L183.462 176.706C183.599 176.626 183.592 176.489 183.462 176.402L179.641 174.231C179.559 174.188 179.469 174.166 179.377 174.166C179.285 174.166 179.194 174.188 179.113 174.231L175.806 176.141C175.661 176.221 175.668 176.358 175.806 176.445L179.627 178.616ZM137.236 192.047L133.929 193.957C133.792 194.037 133.799 194.174 133.929 194.261L137.75 196.504C137.831 196.545 137.92 196.566 138.011 196.566C138.101 196.566 138.19 196.545 138.271 196.504L141.585 194.594C141.723 194.514 141.716 194.377 141.585 194.29L137.75 192.097C137.671 192.057 137.584 192.034 137.495 192.032C137.406 192.029 137.318 192.047 137.236 192.083V192.047ZM101.004 224.009C101.086 224.05 101.177 224.071 101.268 224.071C101.36 224.071 101.451 224.05 101.533 224.009L104.84 222.099C104.977 222.019 104.97 221.882 104.84 221.795L101.019 219.588C100.937 219.547 100.846 219.526 100.755 219.526C100.663 219.526 100.573 219.547 100.491 219.588L97.1836 221.498C97.0389 221.578 97.0461 221.715 97.1836 221.802L101.004 224.009ZM93.7319 217.171L90.4249 219.081C90.2802 219.161 90.2874 219.299 90.4249 219.385L94.2529 221.556C94.3344 221.599 94.425 221.621 94.517 221.621C94.609 221.621 94.6996 221.599 94.7811 221.556L98.0881 219.646C98.2256 219.566 98.2184 219.429 98.0881 219.342L94.2674 217.135C94.1791 217.102 94.0839 217.091 93.9905 217.104C93.8971 217.116 93.8082 217.152 93.7319 217.207V217.171ZM106.366 221.231L109.673 219.32C109.811 219.241 109.804 219.103 109.673 219.016L105.853 216.845C105.771 216.805 105.68 216.783 105.589 216.783C105.497 216.783 105.406 216.805 105.324 216.845L101.996 218.72C101.851 218.799 101.858 218.937 101.996 219.024L105.824 221.238C105.905 221.286 105.997 221.313 106.092 221.318C106.186 221.323 106.28 221.306 106.366 221.267V221.231ZM111.2 218.437L114.507 216.527C114.645 216.447 114.637 216.31 114.507 216.223L110.686 214.016C110.605 213.974 110.514 213.951 110.422 213.951C110.33 213.951 110.24 213.974 110.158 214.016L106.851 215.926C106.707 216.006 106.714 216.144 106.851 216.23L110.679 218.401C110.754 218.454 110.84 218.488 110.931 218.501C111.022 218.513 111.114 218.504 111.2 218.474V218.437ZM116.034 215.651L119.341 213.741C119.479 213.654 119.471 213.524 119.341 213.437L115.52 211.223C115.438 211.182 115.348 211.161 115.256 211.161C115.165 211.161 115.074 211.182 114.992 211.223L111.7 213.162C111.555 213.242 111.562 213.379 111.7 213.466L115.528 215.673C115.607 215.714 115.694 215.736 115.783 215.739C115.872 215.741 115.96 215.724 116.041 215.688L116.034 215.651ZM98.5657 214.378L95.2587 216.288C95.114 216.368 95.1212 216.505 95.2587 216.592L99.0867 218.799C99.1688 218.84 99.2592 218.861 99.3508 218.861C99.4425 218.861 99.5329 218.84 99.615 218.799L102.922 216.889C103.059 216.802 103.052 216.672 102.922 216.585L99.1012 214.371C99.0148 214.335 98.9213 214.321 98.8283 214.328C98.7352 214.336 98.6453 214.365 98.5657 214.414V214.378ZM103.4 211.585L100.122 213.531C99.9768 213.611 99.984 213.748 100.122 213.835L103.949 216.042C104.032 216.083 104.122 216.104 104.214 216.104C104.305 216.104 104.396 216.083 104.478 216.042L107.785 214.132C107.922 214.052 107.915 213.915 107.785 213.828L103.964 211.621C103.877 211.574 103.78 211.549 103.682 211.549C103.583 211.549 103.486 211.574 103.4 211.621V211.585ZM122.735 200.419L119.428 202.329C119.29 202.409 119.298 202.547 119.428 202.633L123.249 204.84C123.33 204.883 123.421 204.905 123.513 204.905C123.605 204.905 123.695 204.883 123.777 204.84L127.084 202.93C127.229 202.85 127.221 202.713 127.084 202.626L123.278 200.47C123.195 200.424 123.102 200.399 123.008 200.397C122.914 200.394 122.82 200.414 122.735 200.455V200.419ZM117.901 203.212L114.594 205.159C114.457 205.238 114.464 205.376 114.594 205.463L118.415 207.67C118.497 207.711 118.587 207.732 118.679 207.732C118.771 207.732 118.861 207.711 118.943 207.67L122.25 205.759C122.395 205.68 122.388 205.542 122.25 205.456L118.422 203.248C118.422 212.913 114.583 222.183 107.748 229.017C100.914 235.851 91.6451 239.69 81.9801 239.69C72.3151 239.69 63.046 235.851 56.2118 229.017C49.3776 222.183 45.5382 212.913 45.5382 203.248L117.901 203.212ZM127.569 197.633L124.262 199.536C124.124 199.623 124.132 199.761 124.262 199.847L128.083 202.018C128.165 202.059 128.255 202.08 128.347 202.08C128.438 202.08 128.529 202.059 128.611 202.018L131.918 200.108C132.062 200.028 132.055 199.891 131.918 199.804L128.09 197.597C128.003 197.566 127.911 197.557 127.82 197.57C127.73 197.582 127.643 197.616 127.569 197.669V197.633ZM108.233 208.791L104.926 210.76C104.782 210.847 104.796 210.977 104.926 211.064L108.754 213.278C108.836 213.319 108.927 213.34 109.019 213.34C109.11 213.34 109.201 213.319 109.283 213.278L112.59 211.368C112.727 211.288 112.72 211.15 112.59 211.064L108.769 208.893C108.691 208.84 108.602 208.807 108.509 208.796C108.416 208.784 108.321 208.795 108.233 208.828V208.791ZM113.067 206.005L109.76 207.916C109.623 207.995 109.63 208.133 109.76 208.22L113.581 210.391C113.663 210.433 113.753 210.455 113.845 210.455C113.937 210.455 114.028 210.433 114.109 210.391L117.416 208.488C117.561 208.401 117.546 208.263 117.416 208.176L113.588 205.969C113.502 205.94 113.41 205.932 113.319 205.945C113.229 205.957 113.143 205.99 113.067 206.042V206.005ZM109.529 225.746L112.836 223.836C112.98 223.756 112.973 223.619 112.836 223.532L109.008 221.361C108.926 221.318 108.835 221.296 108.744 221.296C108.652 221.296 108.561 221.318 108.479 221.361L105.187 223.221C105.049 223.3 105.057 223.438 105.187 223.525L109.008 225.732C109.088 225.773 109.176 225.797 109.266 225.799C109.357 225.802 109.446 225.783 109.529 225.746ZM81.1624 222.852L77.3344 220.644C77.2524 220.604 77.162 220.582 77.0703 220.582C76.9787 220.582 76.8883 220.604 76.8062 220.644L73.4992 222.555C73.3617 222.634 73.369 222.772 73.4992 222.859L77.32 225.066C77.402 225.107 77.4924 225.128 77.5841 225.128C77.6758 225.128 77.7662 225.107 77.8482 225.066L81.1552 223.155C81.3072 223.105 81.3072 222.967 81.1697 222.88L81.1624 222.852ZM88.3987 224.979L84.5707 222.772C84.4899 222.731 84.4007 222.71 84.3102 222.71C84.2197 222.71 84.1305 222.731 84.0497 222.772L78.9843 225.71C78.8468 225.789 78.8541 225.927 78.9843 226.014L82.8051 228.185C82.8872 228.225 82.9776 228.247 83.0692 228.247C83.1609 228.247 83.2513 228.225 83.3333 228.185L88.3987 225.247C88.5435 225.232 88.5435 225.095 88.4132 225.008L88.3987 224.979ZM75.2866 218.582L71.4586 216.375C71.3765 216.334 71.2861 216.313 71.1945 216.313C71.1028 216.313 71.0124 216.334 70.9303 216.375L66.878 218.72C66.7333 218.799 66.7405 218.937 66.878 219.024L70.706 221.231C70.7881 221.271 70.8785 221.293 70.9701 221.293C71.0618 221.293 71.1522 221.271 71.2343 221.231L75.301 218.879C75.4602 218.835 75.453 218.72 75.301 218.611L75.2866 218.582ZM78.4054 216.78C78.487 216.823 78.5776 216.845 78.6695 216.845C78.7615 216.845 78.8521 216.823 78.9337 216.78L82.2406 214.87C82.3854 214.79 82.3709 214.653 82.2406 214.566L78.4127 212.395C78.3306 212.354 78.2402 212.333 78.1485 212.333C78.0569 212.333 77.9665 212.354 77.8844 212.395L74.5774 214.305C74.4399 214.385 74.4472 214.523 74.5774 214.609L78.4054 216.78ZM95.1502 227.403L91.3222 225.232C91.2406 225.19 91.15 225.168 91.0581 225.168C90.9661 225.168 90.8755 225.19 90.7939 225.232L84.4332 228.85C84.2958 228.93 84.303 229.068 84.4332 229.154L88.2612 231.361C88.342 231.402 88.4313 231.423 88.5217 231.423C88.6122 231.423 88.7014 231.402 88.7822 231.361L95.1502 227.685C95.3094 227.649 95.3021 227.512 95.1502 227.403ZM98.3269 231.882L94.4989 229.675C94.4168 229.635 94.3264 229.613 94.2348 229.613C94.1431 229.613 94.0527 229.635 93.9707 229.675L89.8966 232.027C89.7591 232.107 89.7664 232.244 89.8966 232.331L93.7246 234.538C93.8067 234.579 93.8971 234.6 93.9888 234.6C94.0804 234.6 94.1708 234.579 94.2529 234.538L98.3197 232.186C98.4861 232.128 98.4716 231.991 98.3269 231.904V231.882ZM114.363 196.034C114.445 196.075 114.535 196.096 114.627 196.096C114.718 196.096 114.809 196.075 114.891 196.034L118.198 194.124C118.342 194.037 118.335 193.906 118.198 193.82L114.37 191.605C114.288 191.564 114.197 191.543 114.106 191.543C114.014 191.543 113.924 191.564 113.842 191.605L110.535 193.516C110.397 193.595 110.404 193.733 110.535 193.82L114.363 196.034ZM104.695 201.613C104.776 201.656 104.867 201.678 104.959 201.678C105.051 201.678 105.142 201.656 105.223 201.613L108.53 199.703C108.675 199.623 108.668 199.486 108.53 199.399L104.702 197.192C104.62 197.151 104.53 197.13 104.438 197.13C104.346 197.13 104.256 197.151 104.174 197.192L100.845 199.124C100.708 199.203 100.715 199.341 100.845 199.428L104.695 201.613ZM83.2537 214.016C83.3358 214.057 83.4262 214.078 83.5178 214.078C83.6095 214.078 83.6999 214.057 83.782 214.016L87.089 212.106C87.2337 212.026 87.2265 211.889 87.089 211.802L83.261 209.587C83.1789 209.547 83.0885 209.525 82.9968 209.525C82.9052 209.525 82.8148 209.547 82.7327 209.587L79.4113 211.483C79.2738 211.563 79.281 211.7 79.4113 211.787L83.2537 214.016ZM109.529 198.82C109.611 198.861 109.701 198.882 109.793 198.882C109.884 198.882 109.975 198.861 110.057 198.82L113.364 196.909C113.509 196.83 113.501 196.692 113.364 196.606L109.529 194.435C109.447 194.392 109.357 194.37 109.265 194.37C109.173 194.37 109.082 194.392 109 194.435L105.693 196.338C105.556 196.425 105.563 196.562 105.693 196.649L109.529 198.82ZM99.861 204.399C99.9431 204.44 100.033 204.461 100.125 204.461C100.217 204.461 100.307 204.44 100.389 204.399L103.696 202.489C103.841 202.409 103.826 202.272 103.696 202.185L99.8682 199.97C99.7862 199.93 99.6958 199.908 99.6041 199.908C99.5125 199.908 99.4221 199.93 99.34 199.97L96.033 201.881C95.8955 201.96 95.9028 202.098 96.033 202.185L99.861 204.399ZM100.983 232.23C100.901 232.189 100.81 232.168 100.718 232.168C100.627 232.168 100.536 232.189 100.454 232.23L95.389 235.168C95.2443 235.247 95.2515 235.385 95.389 235.472L99.217 237.679C99.299 237.719 99.3895 237.741 99.4811 237.741C99.5728 237.741 99.6631 237.719 99.7452 237.679L104.811 234.741C104.948 234.661 104.941 234.524 104.811 234.437L100.983 232.23ZM92.9214 208.408C93.0035 208.449 93.0939 208.47 93.1855 208.47C93.2772 208.47 93.3676 208.449 93.4497 208.408L96.7566 206.498C96.9014 206.418 96.8941 206.28 96.7566 206.194L92.8852 204.023C92.8037 203.98 92.7131 203.958 92.6211 203.958C92.5291 203.958 92.4385 203.98 92.357 204.023L89.05 205.926C88.9125 206.013 88.9197 206.143 89.05 206.237L92.9214 208.408ZM88.0876 211.194C88.1696 211.235 88.26 211.256 88.3517 211.256C88.4433 211.256 88.5337 211.235 88.6158 211.194L91.9228 209.284C92.0675 209.204 92.0603 209.066 91.9228 208.98L88.0948 206.773C88.0127 206.732 87.9223 206.711 87.8307 206.711C87.739 206.711 87.6486 206.732 87.5665 206.773L84.2596 208.683C84.1221 208.763 84.1293 208.9 84.2596 208.987L88.0876 211.194ZM190.575 180.548C190.493 180.507 190.403 180.486 190.311 180.486C190.219 180.486 190.129 180.507 190.047 180.548L181.892 185.245C181.747 185.324 181.761 185.462 181.892 185.548L185.72 187.719C185.801 187.762 185.892 187.784 185.984 187.784C186.076 187.784 186.166 187.762 186.248 187.719L194.389 183.023C194.533 182.943 194.519 182.806 194.389 182.719L190.575 180.548ZM179.887 186.721C179.806 186.678 179.715 186.656 179.623 186.656C179.531 186.656 179.44 186.678 179.359 186.721L176.052 188.631C175.914 188.711 175.922 188.848 176.052 188.935L179.873 191.142C179.954 191.185 180.045 191.207 180.137 191.207C180.229 191.207 180.319 191.185 180.401 191.142L183.708 189.232C183.853 189.152 183.845 189.015 183.708 188.928L179.887 186.721ZM114.399 222.953L117.713 221.042C117.85 220.963 117.843 220.825 117.713 220.739L113.87 218.531C113.788 218.491 113.698 218.469 113.606 218.469C113.515 218.469 113.424 218.491 113.342 218.531L110.035 220.442C109.898 220.521 109.905 220.659 110.035 220.746L113.856 222.96C113.937 222.997 114.025 223.016 114.114 223.015C114.203 223.014 114.29 222.992 114.37 222.953H114.399ZM170.219 192.307C170.137 192.266 170.047 192.245 169.955 192.245C169.864 192.245 169.773 192.266 169.691 192.307L166.384 194.218C166.239 194.297 166.254 194.435 166.384 194.521L170.205 196.692C170.287 196.733 170.377 196.754 170.469 196.754C170.561 196.754 170.651 196.733 170.733 196.692L174.04 194.782C174.185 194.702 174.17 194.565 174.04 194.478L170.219 192.307ZM195.409 177.762C195.327 177.721 195.236 177.7 195.145 177.7C195.053 177.7 194.963 177.721 194.881 177.762L191.545 179.644C191.407 179.723 191.414 179.861 191.545 179.948L195.365 182.155C195.448 182.195 195.538 182.217 195.63 182.217C195.721 182.217 195.812 182.195 195.894 182.155L199.201 180.244C199.345 180.165 199.331 180.027 199.201 179.94L195.409 177.762ZM204.092 177.176L194.801 171.814C194.719 171.772 194.629 171.749 194.537 171.749C194.445 171.749 194.354 171.772 194.273 171.814L190.966 173.717C190.828 173.804 190.836 173.941 190.966 174.028L200.25 179.39C200.332 179.431 200.422 179.452 200.514 179.452C200.606 179.452 200.696 179.431 200.778 179.39L204.085 177.48C204.201 177.4 204.194 177.263 204.042 177.176H204.092ZM152.172 202.735C152.091 202.694 152.002 202.673 151.912 202.673C151.821 202.673 151.732 202.694 151.651 202.735L147.577 205.086C147.432 205.166 147.447 205.304 147.577 205.39L151.405 207.597C151.487 207.64 151.577 207.662 151.669 207.662C151.761 207.662 151.852 207.64 151.933 207.597L156.007 205.246C156.145 205.166 156.138 205.029 156.007 204.942L152.172 202.735ZM164.387 195.679C164.305 195.639 164.214 195.617 164.123 195.617C164.031 195.617 163.941 195.639 163.859 195.679L158.793 198.617C158.656 198.697 158.663 198.834 158.793 198.921L162.614 201.128C162.696 201.169 162.787 201.19 162.878 201.19C162.97 201.19 163.06 201.169 163.142 201.128L168.208 198.19C168.352 198.111 168.345 197.973 168.208 197.886L164.387 195.679ZM140.978 209.197C140.896 209.154 140.805 209.132 140.713 209.132C140.621 209.132 140.531 209.154 140.449 209.197L113.147 224.907C113.009 224.986 113.017 225.124 113.147 225.211L116.968 227.381C117.05 227.422 117.14 227.443 117.232 227.443C117.323 227.443 117.414 227.422 117.496 227.381L144.719 211.657C144.863 211.577 144.856 211.44 144.719 211.353L140.978 209.197ZM112.228 225.797C112.146 225.754 112.056 225.732 111.964 225.732C111.872 225.732 111.781 225.754 111.7 225.797L107.575 228.127C107.437 228.206 107.445 228.344 107.575 228.431L111.403 230.638C111.484 230.679 111.573 230.701 111.663 230.701C111.754 230.701 111.843 230.679 111.924 230.638L115.998 228.286C116.135 228.206 116.128 228.069 115.998 227.982L112.228 225.797ZM146.578 205.969C146.497 205.927 146.406 205.905 146.314 205.905C146.222 205.905 146.132 205.927 146.05 205.969L141.976 208.321C141.839 208.401 141.846 208.538 141.976 208.625L145.797 210.832C145.879 210.873 145.969 210.894 146.061 210.894C146.153 210.894 146.243 210.873 146.325 210.832L150.399 208.48C150.537 208.401 150.529 208.263 150.399 208.176L146.578 205.969ZM106.627 229.031C106.545 228.991 106.454 228.969 106.363 228.969C106.271 228.969 106.181 228.991 106.099 229.031L102.032 231.383C101.887 231.463 101.902 231.6 102.032 231.687L105.86 233.894C105.942 233.935 106.032 233.956 106.124 233.956C106.216 233.956 106.306 233.935 106.388 233.894L110.455 231.542C110.6 231.463 110.592 231.325 110.455 231.238L106.627 229.031ZM157.773 199.5C157.691 199.459 157.601 199.438 157.509 199.438C157.417 199.438 157.327 199.459 157.245 199.5L153.171 201.852C153.033 201.931 153.04 202.069 153.171 202.156L156.999 204.327C157.08 204.369 157.171 204.391 157.263 204.391C157.355 204.391 157.445 204.369 157.527 204.327L161.594 201.982C161.738 201.895 161.724 201.758 161.594 201.671L157.773 199.5ZM175.075 189.514C174.993 189.473 174.902 189.452 174.811 189.452C174.719 189.452 174.629 189.473 174.547 189.514L171.24 191.424C171.102 191.504 171.109 191.641 171.24 191.728L175.06 193.943C175.143 193.983 175.233 194.005 175.325 194.005C175.416 194.005 175.507 193.983 175.589 193.943L178.896 192.032C179.04 191.953 179.026 191.815 178.896 191.728L175.075 189.514ZM185.618 181.815L188.925 179.904C189.063 179.825 189.055 179.687 188.925 179.6L185.104 177.393C185.023 177.351 184.932 177.329 184.84 177.329C184.748 177.329 184.658 177.351 184.576 177.393L181.269 179.304C181.124 179.383 181.139 179.521 181.269 179.608L185.097 181.815C185.178 181.854 185.267 181.875 185.358 181.875C185.448 181.875 185.537 181.854 185.618 181.815ZM164.003 181.67L167.31 179.767C167.448 179.68 167.441 179.542 167.31 179.456L163.49 177.248C163.408 177.206 163.318 177.184 163.226 177.184C163.134 177.184 163.043 177.206 162.961 177.248L159.654 179.159C159.51 179.238 159.524 179.376 159.654 179.463L163.482 181.67C163.562 181.712 163.651 181.735 163.742 181.736C163.833 181.738 163.922 181.717 164.003 181.677V181.67ZM153.048 200.629L162.715 195.05C162.86 194.97 162.853 194.833 162.715 194.746L158.887 192.539C158.805 192.498 158.715 192.477 158.623 192.477C158.532 192.477 158.441 192.498 158.359 192.539L148.677 198.096C148.539 198.183 148.547 198.321 148.677 198.407L152.498 200.614C152.581 200.661 152.675 200.687 152.771 200.689C152.867 200.692 152.962 200.671 153.048 200.629ZM180.256 184.608C180.338 184.65 180.428 184.672 180.52 184.672C180.612 184.672 180.703 184.65 180.784 184.608L184.091 182.705C184.229 182.618 184.222 182.48 184.091 182.393L180.271 180.186C180.189 180.146 180.098 180.124 180.006 180.124C179.915 180.124 179.824 180.146 179.742 180.186L176.435 182.097C176.291 182.176 176.298 182.314 176.435 182.401L180.256 184.608ZM175.321 181.46L178.628 179.557C178.765 179.47 178.758 179.333 178.628 179.246L174.807 177.039C174.725 176.998 174.635 176.977 174.543 176.977C174.451 176.977 174.361 176.998 174.279 177.039L170.95 178.92C170.806 179 170.813 179.137 170.95 179.224L174.778 181.431C174.86 181.479 174.952 181.507 175.047 181.51C175.142 181.514 175.236 181.494 175.321 181.453V181.46ZM148.214 203.422L151.521 201.512C151.666 201.432 151.651 201.295 151.521 201.208L147.693 199.001C147.611 198.96 147.52 198.939 147.429 198.939C147.337 198.939 147.247 198.96 147.165 199.001L143.858 200.911C143.713 200.991 143.727 201.128 143.858 201.215L147.678 203.422C147.762 203.463 147.854 203.484 147.947 203.482C148.04 203.481 148.131 203.458 148.214 203.415V203.422ZM169.59 190.773C169.672 190.814 169.762 190.835 169.854 190.835C169.946 190.835 170.036 190.814 170.118 190.773L173.425 188.863C173.57 188.783 173.555 188.646 173.425 188.559L169.59 186.359C169.508 186.318 169.417 186.297 169.326 186.297C169.234 186.297 169.144 186.318 169.062 186.359L165.755 188.269C165.61 188.356 165.624 188.486 165.755 188.573L169.59 190.773ZM124.066 217.374L127.373 215.463C127.511 215.376 127.504 215.246 127.373 215.159L123.509 212.931C123.427 212.89 123.337 212.869 123.245 212.869C123.153 212.869 123.063 212.89 122.981 212.931L119.659 214.848C119.515 214.928 119.522 215.065 119.659 215.152L123.487 217.359C123.572 217.407 123.667 217.433 123.764 217.436C123.861 217.438 123.958 217.417 124.045 217.374H124.066ZM128.9 214.58L132.207 212.67C132.345 212.591 132.337 212.453 132.207 212.366L128.343 210.159C128.261 210.118 128.171 210.097 128.079 210.097C127.987 210.097 127.897 210.118 127.815 210.159L124.508 212.069C124.363 212.149 124.37 212.287 124.508 212.373L128.336 214.58C128.42 214.624 128.513 214.646 128.607 214.646C128.702 214.646 128.795 214.624 128.879 214.58H128.9ZM119.204 220.167L122.518 218.256C122.655 218.177 122.648 218.039 122.518 217.953L118.69 215.746C118.608 215.703 118.518 215.681 118.426 215.681C118.334 215.681 118.243 215.703 118.162 215.746L114.855 217.656C114.717 217.735 114.724 217.873 114.855 217.96L118.683 220.167C118.763 220.208 118.852 220.23 118.943 220.23C119.034 220.23 119.123 220.208 119.204 220.167ZM138.546 209.001L141.853 207.098C141.991 207.011 141.983 206.874 141.853 206.787L138.032 204.58C137.95 204.539 137.86 204.518 137.768 204.518C137.677 204.518 137.586 204.539 137.504 204.58L134.197 206.49C134.052 206.57 134.06 206.707 134.197 206.794L138.025 209.001C138.106 209.041 138.196 209.062 138.287 209.06C138.377 209.059 138.466 209.036 138.546 208.994V209.001ZM133.712 211.794L137.019 209.884C137.157 209.805 137.15 209.667 137.019 209.58L133.199 207.373C133.117 207.332 133.026 207.311 132.934 207.311C132.843 207.311 132.752 207.332 132.67 207.373L129.363 209.284C129.219 209.37 129.226 209.501 129.363 209.587L133.191 211.802C133.274 211.839 133.363 211.857 133.454 211.855C133.544 211.852 133.632 211.829 133.712 211.787V211.794ZM143.38 206.215L146.687 204.305C146.824 204.225 146.817 204.088 146.687 204.001L142.866 201.83C142.785 201.788 142.694 201.765 142.602 201.765C142.51 201.765 142.42 201.788 142.338 201.83L139.031 203.741C138.886 203.82 138.901 203.958 139.031 204.044L142.859 206.251C142.943 206.285 143.034 206.298 143.125 206.29C143.215 206.283 143.302 206.255 143.38 206.208V206.215ZM165.494 164.925C165.576 164.966 165.667 164.987 165.758 164.987C165.85 164.987 165.94 164.966 166.022 164.925L169.329 163.015C169.474 162.935 169.467 162.798 169.329 162.711L168.309 162.125C168.227 162.084 168.137 162.063 168.045 162.063C167.953 162.063 167.863 162.084 167.781 162.125L164.474 164.035C164.336 164.115 164.344 164.252 164.474 164.339L165.494 164.925ZM141.708 180.273C141.791 180.314 141.881 180.335 141.973 180.335C142.064 180.335 142.155 180.314 142.237 180.273L145.544 178.363C145.688 178.283 145.681 178.146 145.544 178.059L141.716 175.852C141.634 175.811 141.543 175.79 141.452 175.79C141.36 175.79 141.269 175.811 141.187 175.852L137.88 177.762C137.743 177.842 137.75 177.979 137.88 178.066L141.708 180.273ZM151.376 174.694C151.458 174.737 151.548 174.759 151.64 174.759C151.732 174.759 151.823 174.737 151.904 174.694L155.211 172.784C155.356 172.704 155.349 172.567 155.211 172.48L151.383 170.273C151.302 170.23 151.211 170.208 151.119 170.208C151.027 170.208 150.937 170.23 150.855 170.273L147.548 172.183C147.411 172.263 147.418 172.4 147.548 172.487L151.376 174.694ZM135.804 183.682C135.886 183.722 135.976 183.744 136.068 183.744C136.159 183.744 136.25 183.722 136.332 183.682L139.646 181.771C139.784 181.692 139.776 181.554 139.646 181.467L135.818 179.296C135.736 179.256 135.646 179.234 135.554 179.234C135.462 179.234 135.372 179.256 135.29 179.296L131.961 181.163C131.824 181.243 131.831 181.38 131.961 181.467L135.804 183.682ZM146.542 177.473C146.624 177.514 146.715 177.535 146.806 177.535C146.898 177.535 146.988 177.514 147.071 177.473L150.378 175.562C150.522 175.483 150.515 175.345 150.378 175.258L146.55 173.088C146.467 173.047 146.377 173.026 146.285 173.026C146.194 173.026 146.103 173.047 146.021 173.088L142.714 174.998C142.577 175.085 142.584 175.215 142.714 175.302L146.542 177.473ZM126.172 189.261C126.254 189.302 126.345 189.323 126.436 189.323C126.528 189.323 126.618 189.302 126.7 189.261L130.007 187.35C130.152 187.271 130.145 187.133 130.007 187.046L126.179 184.839C126.098 184.797 126.007 184.775 125.915 184.775C125.823 184.775 125.733 184.797 125.651 184.839L122.344 186.742C122.207 186.829 122.214 186.967 122.344 187.054L126.172 189.261ZM131.006 186.467C131.088 186.508 131.178 186.53 131.27 186.53C131.362 186.53 131.452 186.508 131.534 186.467L134.841 184.557C134.986 184.47 134.979 184.34 134.841 184.253L131.013 182.039C130.931 181.998 130.841 181.977 130.749 181.977C130.657 181.977 130.567 181.998 130.485 182.039L127.127 183.985C126.99 184.065 126.997 184.203 127.127 184.289L131.006 186.467ZM155.841 170.497C155.922 170.539 156.013 170.562 156.105 170.562C156.197 170.562 156.288 170.539 156.369 170.497L159.676 168.594C159.821 168.507 159.814 168.377 159.676 168.283L158.656 167.697C158.574 167.656 158.483 167.635 158.392 167.635C158.3 167.635 158.21 167.656 158.128 167.697L154.821 169.607C154.683 169.687 154.69 169.824 154.821 169.911L155.841 170.497ZM170.313 162.125C170.395 162.167 170.486 162.189 170.578 162.189C170.67 162.189 170.76 162.167 170.842 162.125L174.156 160.214C174.293 160.135 174.286 159.997 174.156 159.91L173.136 159.324C173.054 159.282 172.963 159.26 172.871 159.26C172.78 159.26 172.689 159.282 172.607 159.324L169.3 161.227C169.163 161.314 169.17 161.452 169.3 161.539L170.313 162.125ZM178.353 166.763C178.435 166.806 178.525 166.828 178.617 166.828C178.709 166.828 178.8 166.806 178.881 166.763L182.188 164.853C182.326 164.773 182.318 164.636 182.188 164.549L178.367 162.378C178.286 162.335 178.195 162.313 178.103 162.313C178.011 162.313 177.921 162.335 177.839 162.378L174.532 164.288C174.387 164.368 174.395 164.505 174.532 164.592L178.353 166.763ZM190.438 179.029L193.745 177.118C193.889 177.039 193.875 176.901 193.745 176.814L189.917 174.643C189.834 174.603 189.744 174.581 189.652 174.581C189.561 174.581 189.47 174.603 189.388 174.643L186.081 176.554C185.937 176.633 185.951 176.771 186.081 176.858L189.902 179.065C189.989 179.106 190.086 179.124 190.182 179.117C190.278 179.111 190.371 179.08 190.452 179.029H190.438ZM160.66 167.704C160.742 167.745 160.833 167.766 160.924 167.766C161.016 167.766 161.106 167.745 161.189 167.704L164.496 165.793C164.64 165.714 164.633 165.576 164.496 165.49L163.475 164.903C163.394 164.861 163.303 164.839 163.211 164.839C163.119 164.839 163.028 164.861 162.947 164.903L159.64 166.814C159.502 166.893 159.51 167.031 159.64 167.118L160.66 167.704ZM121.302 192.047C121.384 192.087 121.475 192.109 121.566 192.109C121.658 192.109 121.748 192.087 121.83 192.047L125.137 190.136C125.282 190.057 125.275 189.919 125.137 189.832L121.309 187.625C121.227 187.585 121.137 187.563 121.045 187.563C120.954 187.563 120.863 187.585 120.781 187.625L117.489 189.536C117.351 189.615 117.358 189.753 117.489 189.84L121.302 192.047Z" fill="#263238"/>
<path opacity="0.3" d="M142.743 221.071L175.379 202.221C175.931 201.942 176.541 201.797 177.159 201.797C177.777 201.797 178.387 201.942 178.939 202.221L197.659 213.032C198.644 213.596 198.644 214.515 197.659 215.087L165.017 233.901C164.465 234.183 163.855 234.33 163.236 234.33C162.617 234.33 162.007 234.183 161.456 233.901L142.743 223.127C141.759 222.555 141.759 221.614 142.743 221.071Z" fill="black"/>
<path d="M35.1329 209.225C35.4209 209.39 35.7268 209.521 36.0447 209.616C35.726 209.527 35.4196 209.398 35.1329 209.233C35.0336 209.181 34.9392 209.12 34.8507 209.052C34.9411 209.115 35.0353 209.173 35.1329 209.225Z" fill="#65B8DB"/>
<path opacity="0.3" d="M157.643 38.5359C157.433 37.0018 156.196 36.4374 154.698 37.3057L40.8854 103.004C40.0121 103.537 39.2896 104.284 38.7869 105.175L33.215 101.969C33.7146 101.065 34.4369 100.302 35.3135 99.7549L149.133 34.0711C149.957 33.5534 150.902 33.2609 151.874 33.223C152.846 33.185 153.811 33.403 154.673 33.855C155.534 34.307 156.262 34.9772 156.783 35.7986C157.304 36.6201 157.601 37.5639 157.643 38.5359Z" fill="black"/>
<path d="M40.3282 209.508C40.3427 209.505 40.3578 209.505 40.3723 209.508H40.3282Z" fill="#65B8DB"/>
<path opacity="0.5" d="M246.794 196.374C246.719 197.37 246.412 198.335 245.897 199.191C245.382 200.047 244.673 200.77 243.827 201.302L130.007 267.015C129.094 267.505 128.07 267.754 127.033 267.738V261.32C128.07 261.335 129.093 261.086 130.007 260.596L243.827 194.84C245.354 193.95 245.455 192.56 244.124 191.605C244.893 192.154 245.532 192.866 245.994 193.69C246.455 194.515 246.729 195.431 246.794 196.374Z" fill="black"/>
<path d="M319.649 140.105L306.356 132.434C306.059 132.275 305.632 132.384 305.111 132.782C304.836 132.984 304.561 133.187 304.286 133.375L303.975 133.57C303.794 133.686 303.613 133.809 303.425 133.918C303.237 134.026 303.165 134.062 303.034 134.142L302.55 134.41L302.101 134.634L301.652 134.851L301.153 135.061C301.015 135.119 300.878 135.184 300.733 135.235L300.191 135.437L299.807 135.575L299.221 135.756L298.874 135.857L298.244 136.016L297.926 136.089C297.709 136.139 297.484 136.183 297.26 136.219L296.985 136.269L296.261 136.371H296.022C295.776 136.371 295.523 136.421 295.299 136.436H295.103H294.322H294.163C293.895 136.436 293.627 136.436 293.36 136.436H293.236C292.962 136.436 292.679 136.436 292.404 136.378H292.325L291.464 136.262H291.42L291.022 136.183L282.773 131.421C282.165 131.081 281.608 131.327 281.246 132.217C276.456 144.114 266.252 156.176 259.45 159.194C259.315 159.252 259.184 159.319 259.06 159.397C258.977 159.445 258.897 159.498 258.821 159.556L258.712 159.628L258.415 159.881C258.314 159.976 258.22 160.077 258.126 160.178C257.641 160.708 257.37 161.399 257.366 162.117L258.35 174.202C258.35 181.996 261.665 190.216 268.43 194.145L281.731 201.809L281.825 201.859C285.261 203.76 289.207 204.532 293.106 204.066C294.563 203.825 295.912 203.149 296.978 202.127C311.855 186.764 319.084 165.945 319.084 154.469L320.069 141.154C320.061 140.626 319.909 140.257 319.649 140.105Z" fill="#65B8DB"/>
<path opacity="0.4" d="M295.964 139.07C295.832 139.003 295.684 138.971 295.535 138.979C295.387 138.987 295.243 139.033 295.118 139.113L294.973 139.222C294.889 139.306 294.814 139.398 294.749 139.497C294.676 139.622 294.613 139.752 294.561 139.887C293.313 142.944 291.815 145.892 290.081 148.701C288.581 151.171 286.93 153.546 285.139 155.814C284.271 156.9 283.402 157.935 282.527 158.904C282.53 158.916 282.53 158.929 282.527 158.941L281.803 159.744C281.55 159.997 281.311 160.258 281.079 160.504C280.956 160.641 280.833 160.771 280.703 160.894C277.91 163.702 275.175 165.801 272.837 166.835C272.439 167.013 272.074 167.257 271.759 167.559L271.491 167.827C271.476 167.85 271.459 167.871 271.441 167.892L271.491 167.827L258.205 160.171C258.216 160.151 258.231 160.133 258.249 160.12C258.273 160.08 258.302 160.044 258.336 160.011L258.415 159.939C258.438 159.913 258.462 159.889 258.488 159.867L258.567 159.794C258.636 159.728 258.708 159.665 258.784 159.606L258.893 159.534C258.972 159.483 259.052 159.418 259.132 159.375C259.255 159.294 259.386 159.227 259.522 159.172C266.325 156.155 276.535 144.092 281.318 132.195C281.579 131.558 281.933 131.247 282.338 131.247C282.518 131.254 282.693 131.309 282.845 131.406L291.015 136.226L295.964 139.07Z" fill="white"/>
<path opacity="0.1" d="M319.649 140.105L306.356 132.434C306.067 132.282 305.632 132.391 305.119 132.782C304.851 132.991 304.569 133.194 304.286 133.382L303.982 133.578C303.802 133.693 303.621 133.816 303.433 133.925C303.244 134.033 303.172 134.07 303.042 134.149L302.557 134.417C302.412 134.497 302.26 134.562 302.108 134.634L301.66 134.858L301.153 135.068C301.023 135.133 300.878 135.191 300.741 135.249L300.198 135.444L299.814 135.582L299.221 135.763L298.874 135.864L298.251 136.023L297.94 136.096L297.267 136.226L296.985 136.277C296.753 136.32 296.522 136.349 296.261 136.378H296.023L295.299 136.45H295.104C294.843 136.45 294.583 136.45 294.322 136.45H294.17C293.895 136.45 293.627 136.45 293.36 136.45H293.244C292.962 136.45 292.679 136.414 292.404 136.392H292.325C292.035 136.392 291.746 136.327 291.471 136.284H291.428C291.293 136.266 291.159 136.237 291.03 136.197L295.979 139.048L296.066 139.099C296.254 139.217 296.421 139.366 296.558 139.54C296.593 139.57 296.625 139.604 296.652 139.642C301.718 145.561 311.733 145.554 318.412 140.445C318.918 140.061 319.338 139.938 319.62 140.068H319.664C319.796 140.147 319.896 140.27 319.946 140.416C319.884 140.282 319.78 140.172 319.649 140.105Z" fill="black"/>
<path opacity="0.2" d="M281.521 201.772L268.402 194.218C261.643 190.281 258.321 182.061 258.321 174.267L257.337 162.183C257.345 161.718 257.459 161.262 257.669 160.848C257.88 160.434 258.182 160.074 258.553 159.795C258.389 159.931 258.236 160.081 258.097 160.243L271.39 167.899C270.912 168.433 270.653 169.129 270.667 169.846L271.643 181.931C271.622 189.652 274.878 197.8 281.521 201.772Z" fill="black"/>
<path d="M320.04 141.226L319.055 154.541C319.055 166.047 311.819 186.836 296.956 202.199C295.889 203.226 294.532 203.9 293.07 204.131C289.177 204.611 285.232 203.852 281.796 201.96L281.702 201.91L281.528 201.801C274.878 197.828 271.614 189.688 271.614 181.959L270.638 169.875C270.627 169.16 270.885 168.468 271.361 167.935C271.442 167.841 271.529 167.751 271.622 167.668C271.936 167.365 272.301 167.12 272.7 166.944C275.044 165.902 277.765 163.803 280.573 161.003L280.949 160.612L281.673 159.845L282.396 159.042C283.279 158.065 284.148 157.03 285.016 155.945C286.806 153.676 288.457 151.301 289.958 148.831C291.69 146.025 293.186 143.079 294.43 140.025C294.488 139.889 294.554 139.756 294.626 139.627C294.691 139.53 294.766 139.44 294.85 139.359C294.895 139.318 294.943 139.282 294.995 139.251C295.117 139.167 295.26 139.119 295.408 139.112C295.556 139.104 295.704 139.137 295.834 139.207L295.928 139.251C296.118 139.367 296.285 139.516 296.42 139.692L296.514 139.801C301.58 145.713 311.595 145.705 318.274 140.604C318.773 140.22 319.2 140.097 319.482 140.22H319.519C319.586 140.249 319.644 140.297 319.685 140.358C319.9 140.597 320.026 140.904 320.04 141.226Z" fill="#65B8DB"/>
<path d="M299.199 184.897L291.283 189.463L292.506 175.143C291.558 174.643 290.957 173.406 290.957 171.64C290.957 168.485 292.875 164.824 295.241 163.456C297.607 162.089 299.525 163.536 299.525 166.691C299.474 168.56 298.94 170.385 297.976 171.988L299.199 184.897Z" fill="#455A64"/>
<path d="M299.199 184.897L292.028 180.751L291.283 189.463L299.199 184.897Z" fill="#37474F"/>
<path d="M295.241 163.456C293.516 164.62 292.23 166.326 291.586 168.304L297.976 171.988C298.94 170.385 299.473 168.56 299.525 166.691C299.525 163.536 297.607 162.089 295.241 163.456Z" fill="#37474F"/>
<path d="M305.198 106.333C303.027 105.059 300.234 105.204 297.607 106.716L276.803 118.736C274.634 120.11 272.832 121.99 271.551 124.215C270.27 126.44 269.55 128.943 269.451 131.508V156.994C269.481 157.317 269.597 157.626 269.786 157.889C269.976 158.153 270.232 158.361 270.529 158.492C271.335 158.897 272.225 159.108 273.127 159.108C274.029 159.108 274.919 158.897 275.725 158.492C276.021 158.361 276.278 158.153 276.467 157.889C276.657 157.626 276.773 157.317 276.803 156.994V131.508C276.902 130.232 277.286 128.995 277.926 127.887C278.566 126.779 279.445 125.828 280.501 125.104L301.29 113.07V138.578C301.321 138.901 301.438 139.211 301.629 139.475C301.82 139.738 302.078 139.945 302.376 140.076C303.18 140.483 304.069 140.695 304.97 140.695C305.871 140.695 306.76 140.483 307.564 140.076C307.861 139.944 308.117 139.736 308.307 139.473C308.496 139.21 308.612 138.901 308.643 138.578V113.07C308.657 110.067 307.398 107.599 305.198 106.333Z" fill="#37474F"/>
<path d="M301.29 113.07V138.556C301.321 138.88 301.438 139.189 301.629 139.453C301.82 139.716 302.078 139.924 302.376 140.054C302.714 140.245 303.077 140.389 303.454 140.481V111.825L301.29 113.07Z" fill="#263238"/>
</svg>
